<?xml version="1.0" encoding="utf-8"?>
<!-- Generator: Adobe Illustrator 21.1.0, SVG Export Plug-In . SVG Version: 6.00 Build 0)  -->
<svg version="1.1" xmlns="http://www.w3.org/2000/svg" xmlns:xlink="http://www.w3.org/1999/xlink" x="0px" y="0px"
	 viewBox="0 0 103.6 103.6" style="enable-background:new 0 0 103.6 103.6;" xml:space="preserve">
<style type="text/css">
	.st0{fill:#FFFFFF;stroke:#231F20;stroke-miterlimit:10;}
	.st1{fill:#662D91;}
	.st2{fill:#FFF200;}
	.st3{fill:#92278F;}
	.st4{fill:#1B75BC;}
	.st5{fill:#FFFFFF;}
	.st6{fill:#262262;}
	.st7{fill:#006838;}
	.st8{fill:#2BB673;}
</style>
<g id="Layer_2">
</g>
<g id="Layer_1">
	<path class="st0" d="M-607.7-207.8c0,33.8-46.2,85-61.3,85c-15.1,0-61.3-51.2-61.3-85s27.4-61.3,61.3-61.3
		C-635.1-269.1-607.7-241.7-607.7-207.8z"/>
	<polyline class="st0" points="-667.7,-122.8 -642.8,-229.1 -670.8,-221 -661.3,-292.7 -684.7,-285.9 -695.1,-196 -665.3,-204.6 
		-667.7,-122.8 	"/>
	<g id="XMLID_1_">
		<g>
			<path class="st1" d="M-478.7-257.7c14.9,11.6,23.8,30.7,21.8,51.4c-2.8,29.4-43.2,69.3-59.7,73.6l36.2-93.1l-28.9,4.1l12.5-44.8
				c2.3,3,5.7,6,10.3,7.6C-483.9-258.1-481.3-257.7-478.7-257.7z"/>
			<path class="st2" d="M-478.1-291.2c3.8-2.2,21.7,10.6,18.6,22.3c-1.9,7-10.5,11.2-19.1,11.2c-2.6,0-5.2-0.4-7.7-1.2
				c-4.6-1.6-8-4.5-10.3-7.6l-12.5,44.8l28.9-4.1l-36.2,93.1l-3.3,8.6l1.4-8.3l12.5-72.4l-30.8,4.4l16.4-62.5c-1.9,1.7-4.2,3.1-7,4
				c-5,1.7-10.9,1.5-15.9-0.1c-5.3-1.8-9.6-5.2-10.9-9.9c-3.2-11.7,14.8-24.5,18.6-22.3c2.5,1.4-1.7,8.7,2.1,13.4
				c3,3.7,9.4,3.9,16.4,2.7l3.4-12.9l24.1-3.4l-4.7,16.6c6.1,0.8,11.5,0.3,14.2-3C-476.4-282.5-480.5-289.8-478.1-291.2z"/>
			<path class="st3" d="M-506-204.8l-12.5,72.4c-0.5,0-0.9,0-1.3,0c-13.6-1.3-50.7-53.1-47.6-84.7c1.7-17.7,11-32.7,24.2-42
				c5,1.7,10.9,1.8,15.9,0.1c2.8-0.9,5.1-2.3,7-4l-16.4,62.5L-506-204.8z"/>
		</g>
		<g>
		</g>
	</g>
	<path class="st0" d="M-507.6-18.2l-12.5,72.4c-0.5,0-0.9,0-1.3,0c-13.6-1.3-50.7-53.1-47.6-84.7c1.7-17.7,11-32.7,24.2-42
		c5,1.7,10.9,1.8,15.9,0.1c2.8-0.9,5.1-2.4,7-4l-16.4,62.5L-507.6-18.2z"/>
	<path class="st0" d="M-458.5-19.7c-2.8,29.4-43.2,69.3-59.7,73.6l36.2-93.1l-28.9,4.1l12.6-44.8c2.3,3,5.7,6,10.3,7.6
		c2.4,0.8,5.1,1.2,7.7,1.2C-465.4-59.6-456.5-40.4-458.5-19.7z"/>
	<path class="st0" d="M-461.1-82.3c-1.9,7-10.5,11.2-19.1,11.2c-2.6,0-5.2-0.4-7.7-1.2c-4.6-1.6-8-4.5-10.3-7.6l-12.6,44.8l28.9-4.1
		l-36.2,93.1l-3.3,8.6l1.4-8.3l12.5-72.4l-30.8,4.4l16.4-62.5c-1.9,1.6-4.2,3.1-7,4c-5,1.7-10.9,1.5-15.9-0.1
		c-5.3-1.8-9.6-5.2-10.9-9.9c-3.1-11.7,14.8-24.5,18.6-22.3c2.5,1.4-1.7,8.7,2.1,13.4c3,3.7,9.4,3.9,16.4,2.7l3.4-12.9l24.1-3.4
		l-4.7,16.6c6.1,0.8,11.5,0.3,14.2-3c3.7-4.7-0.4-12,2.1-13.4C-475.9-106.8-458-94-461.1-82.3z"/>
	<g id="XMLID_4_">
		<g>
			<path class="st4" d="M-235.9,29.5c14.9,11.6,23.8,30.7,21.8,51.4c-2.8,29.4-43.2,69.3-59.7,73.6l36.2-93.1l-28.9,4.1l12.6-44.8
				c2.3,3,5.7,6,10.3,7.6C-241.1,29.1-238.5,29.5-235.9,29.5z"/>
			<path class="st5" d="M-235.3-4c3.8-2.2,21.7,10.6,18.6,22.3c-1.9,7-10.5,11.2-19.1,11.2c-2.6,0-5.2-0.4-7.7-1.2
				c-4.7-1.6-8-4.5-10.3-7.6l-12.6,44.8l28.9-4.1l-36.2,93.1l-3.3,8.6l1.4-8.3l12.5-72.4l-30.8,4.4l16.4-62.5c-1.9,1.6-4.2,3.1-7,4
				c-5,1.7-10.9,1.5-15.9-0.1c-5.3-1.8-9.6-5.2-10.9-9.9C-314.5,6.6-296.6-6.2-292.8-4c2.5,1.4-1.7,8.7,2.1,13.4
				c3,3.7,9.4,3.9,16.4,2.7l3.4-12.9l24.1-3.4l-4.7,16.6c6.1,0.8,11.5,0.3,14.2-3C-233.6,4.7-237.7-2.6-235.3-4z"/>
			<path class="st6" d="M-263.2,82.4l-12.5,72.4c-0.5,0-0.9,0-1.3,0c-13.6-1.3-50.7-53.1-47.6-84.7c1.7-17.7,11-32.7,24.2-42
				c5,1.7,10.9,1.8,15.9,0.1c2.8-0.9,5.1-2.4,7-4L-294,86.8L-263.2,82.4z"/>
		</g>
		<g>
		</g>
	</g>
	<g id="XMLID_3_">
		<g>
			<path class="st2" d="M-678.1,53.5c-0.2,0.5-0.9,0.3-0.8-0.2l9.2-68.2c0.4-2.4-2.3-4-4.3-2.7l-42.9,29.6c-1.5,1-3.4-0.4-2.8-2.1
				l27.4-79c-5.3,1-11.1,0.2-15.6-2.1c-4-1.9-7-4.9-8.1-8.7c-3.2-11.7,14.8-24.5,18.6-22.3c2.5,1.4-1.7,8.7,2.1,13.4
				c1.8,2.3,5,3.2,8.7,3.4l6.7-19.3c0.6-1.8,2.2-3.1,4.1-3.4l15.2-2c3.8-0.5,6.7,3.2,5.4,6.7l-6.4,17.8c3.8,0,7.1-0.8,9-3.1
				c3.9-4.5,0-12,2.5-13.3c3.9-2,21.3,11.4,17.8,22.9c-1.7,5.5-7.6,9.1-14.3,10.2c-4.3,0.7-8.8,0.4-12.8-1.1
				c-2.5-0.9-4.7-2.3-6.4-3.8l-11.8,32.9c-0.5,1.5,1,3,2.5,2.3l36.4-15.8c1.6-0.7,3.2,0.9,2.6,2.5L-678.1,53.5z"/>
			<path class="st3" d="M-659.3-69.9c4,1.5,8.6,1.8,12.8,1.1c14.1,10.5,23.2,27.6,23.1,46.9c-0.2,31.7-42.3,79.5-55.9,79.4
				c-13.7-0.1-55.3-48.2-55.1-80c0.1-20.6,10.7-38.6,26.5-48.7c4.6,2.2,10.3,3,15.6,2.1l-27.4,79c-0.6,1.7,1.3,3.2,2.8,2.1
				l42.9-29.6c2-1.4,4.6,0.3,4.3,2.7l-9.2,68.2c-0.1,0.5,0.6,0.7,0.8,0.2L-636-51.7c0.7-1.6-1-3.2-2.6-2.5l-36.4,15.8
				c-1.5,0.6-3-0.8-2.5-2.3l11.8-32.9C-663.9-72.2-661.8-70.9-659.3-69.9z"/>
		</g>
		<g>
		</g>
	</g>
	<path class="st0" d="M-772-21.9c-0.2,31.7-42.3,79.5-55.9,79.4c-13.7-0.1-55.3-48.3-55.1-80s25.2-57.3,55.8-57.2
		S-771.8-53.6-772-21.9z"/>
	<path class="st0" d="M-827.5,53.3c-0.1,0.5,0.6,0.7,0.8,0.2l42.1-105.2c0.7-1.6-1-3.2-2.6-2.5l-36.4,15.8c-1.5,0.6-3-0.8-2.5-2.3
		l22.3-62.5c1.3-3.6-1.7-7.2-5.4-6.7l-15.2,2c-1.9,0.2-3.5,1.6-4.1,3.4L-868.3,9.9c-0.6,1.7,1.3,3.2,2.8,2.2l42.9-29.6
		c2-1.4,4.6,0.3,4.3,2.7L-827.5,53.3z"/>
	<path class="st0" d="M-822.6-87.1c-8.7,2.1-17.7,2.9-21.4-1.7c-3.7-4.7,0.4-12-2.1-13.4c-3.8-2.2-21.7,10.6-18.6,22.3
		c2.4,9.1,16.4,13.5,26.8,10C-826.4-73.7-822.9-85.9-822.6-87.1z"/>
	<path class="st0" d="M-822.6-87.6c8.6,2.4,17.6,3.5,21.5-1c3.9-4.5,0-12,2.5-13.3c3.9-2,21.3,11.4,17.8,23
		c-2.7,9-16.9,12.9-27.1,9.1C-819.2-74.1-822.3-86.4-822.6-87.6z"/>
	<path class="st0" d="M-311.6-23.8c-0.2,31.7-42.3,79.5-55.9,79.4c-13.7-0.1-55.3-48.3-55.1-80s25.2-57.3,55.8-57.2
		S-311.5-55.5-311.6-23.8z"/>
	<path class="st7" d="M-241.2-288.1c-0.6-10.6,21.6-46.4,36.6-13.4c4.3,9.5,0.3,25.5-11,29.8C-240.5-262-240.8-281.5-241.2-288.1z"
		/>
	<path class="st0" d="M-367.6,54.8l46.2-111.3c0.7-1.6-1-3.2-2.6-2.5l-43.2,20.3l26.6-74.4l-26.6,3.4l-42.6,123c0,0,0,0,0,0
		l47.5-32.9c2-1.4,4.6,0.3,4.3,2.7L-367.6,54.8z"/>
	<path class="st0" d="M-362.2-89c-8.7,2.1-17.7,2.9-21.4-1.7c-3.7-4.7,0.4-12-2.1-13.4c-3.8-2.2-21.7,10.6-18.6,22.3
		c2.4,9.1,16.4,13.5,26.8,10C-366-75.6-362.5-87.8-362.2-89z"/>
	<path class="st0" d="M-362.2-89.5c8.6,2.4,17.6,3.5,21.5-1c3.9-4.5,0-12,2.5-13.3c3.9-2,21.3,11.4,17.8,23
		c-2.7,9-16.9,12.9-27.1,9.1C-358.8-76-361.9-88.3-362.2-89.5z"/>
	<g id="XMLID_2_">
		<g>
			<path class="st4" d="M-343.4-257c14.4,11.6,22.9,30.4,20.9,50.7c-2.8,29.4-43.2,69.3-59.7,73.6l36.2-93.1l-28.9,4.1l12.2-43.6
				c0,0.4-0.1,1.2,0,1.3c2.5,2.9,6.4,4.7,11.1,6.1c2.5,0.7,5.1,1,7.7,0.9C-343.6-257-343.5-257-343.4-257z"/>
			<path class="st7" d="M-344.5-290.5c3.7-2.3,22.1,9.8,19.4,21.6c-1.6,6.9-9.8,11.4-18.3,11.9c-0.1,0-0.3,0-0.4,0
				c-2.6,0.1-5.3-0.2-7.7-0.9c-4.7-1.4-8.6-3.1-11.1-6.1c-0.1-0.1-0.1-0.9,0-1.3c0,0,0,0,0-0.1l0.4-1.5l0-0.1l0-0.1l2-6.3
				c6.1,0.6,11.5-0.2,14.1-3.6C-342.5-281.9-346.9-289-344.5-290.5z"/>
			<path class="st5" d="M-346-225.8l-36.2,93.1c-0.7,0.2-1.3,0.3-1.9,0.4l12.5-72.4l-30.8,4.4L-386-263c0,0,0.1,0,0.1,0l1.4-5.6
				l1.5-5.9l3.5-13.4l24.1-3.4l-6.8,24.3l0,0.1l0,0.1l-0.4,1.3c0,0,0,0.1,0,0.2c0,0,0,0,0,0.1l-12.2,43.6L-346-225.8z"/>
			<path class="st6" d="M-371.6-204.8l-12.5,72.4c-0.5,0-0.9,0-1.3,0c-13.6-1.3-50.7-53.1-47.6-84.7c2-20.2,13.8-37,30.1-45.6
				c1.2,0.5,2.5,0.9,3.7,1.1c4.8,1,9.2,0.2,12.8-1.2c0.2-0.1,0.4-0.2,0.6-0.2l-16.5,62.6L-371.6-204.8z"/>
			<path class="st7" d="M-382.9-274.6l-1.6,5.9l-1.5,5.7c-0.1,0.1-0.4,0.2-0.6,0.2c-3.6,1.4-7.9,2.3-12.8,1.2
				c-1.2-0.3-2.5-0.7-3.7-1.1c-1.2-0.5-2.4-1.1-3.5-1.7c-7.4-4.4-12.7-12.4-10.7-19.4c3.3-11.7,25.2-13.5,27.4-9.7
				c1.4,2.5-5.9,6.6-5.1,12.6C-394.3-276.7-388.6-277-382.9-274.6z"/>
		</g>
		<g>
		</g>
	</g>
	<g id="XMLID_10_">
		<g>
			<path class="st5" d="M22.7-173.4l-36.2,93.1c-0.7,0.2-1.3,0.3-1.9,0.4L-3-152.3l-30.8,4.4l16.5-62.6c0,0,0.1,0,0.1,0l1.4-5.6
				l1.5-5.9l3.5-13.4l24.1-3.4l-6.8,24.3l0,0.1l0,0.1l-0.4,1.3c0,0,0,0.1,0,0.2c0,0,0,0,0,0.1l-12.2,43.6L22.7-173.4z"/>
			<path class="st4" d="M-197.5-395.2c14.4,11.6,22.9,30.4,20.9,50.7c-2.8,29.4-43.2,69.3-59.7,73.6l36.2-93.1l-28.9,4.1l12.2-43.6
				c0,0.4-0.1,1.2,0,1.3c2.5,2.9,6.3,4.7,11.1,6.1c2.4,0.7,5.1,1,7.7,0.9C-197.8-395.2-197.7-395.2-197.5-395.2z"/>
			<path class="st7" d="M-198.6-428.7c3.7-2.3,22.1,9.8,19.4,21.6c-1.6,6.9-9.8,11.4-18.3,11.9c-0.1,0-0.3,0-0.4,0
				c-2.6,0.1-5.3-0.2-7.7-0.9c-4.7-1.4-8.6-3.1-11.1-6.1c-0.1-0.1-0.1-0.9,0-1.3c0,0,0,0,0-0.1l0.4-1.5l0-0.1l0-0.1l2-6.3
				c6.1,0.6,11.5-0.2,14.1-3.6C-196.6-420.1-201.1-427.2-198.6-428.7z"/>
			<path class="st6" d="M-225.8-343l-12.5,72.4c-0.5,0-0.9,0-1.3,0c-13.6-1.3-50.7-53.1-47.6-84.7c2-20.2,13.8-37,30.1-45.6
				c1.2,0.5,2.5,0.9,3.7,1.1c4.8,1,9.2,0.2,12.8-1.2c0.2-0.1,0.4-0.2,0.6-0.2l-16.4,62.6L-225.8-343z"/>
			<path class="st7" d="M-237.1-412.8l-1.6,5.9l-1.5,5.7c-0.1,0.1-0.4,0.2-0.6,0.2c-3.6,1.4-7.9,2.3-12.8,1.2
				c-1.2-0.3-2.5-0.7-3.7-1.1c-1.2-0.5-2.4-1.1-3.5-1.7c-7.4-4.4-12.7-12.4-10.7-19.4c3.3-11.7,25.2-13.5,27.4-9.7
				c1.4,2.5-5.9,6.6-5.1,12.6C-248.5-414.9-242.7-415.2-237.1-412.8z"/>
		</g>
	</g>
	<g>
		<g>
			<g id="XMLID_5_">
				<g>
					<path class="st1" d="M207.1-250.4c4.7,3.8,7.5,9.9,6.8,16.6c-0.9,9.6-14.1,22.6-19.5,24l11.8-30.4l-9.4,1.3l4-14.2
						c0,0.1,0,0.4,0,0.4c0.8,1,2.1,1.5,3.6,2c0.8,0.2,1.7,0.3,2.5,0.3C207-250.4,207.1-250.4,207.1-250.4z"/>
					<path class="st8" d="M206.8-261.3c1.2-0.8,7.2,3.2,6.3,7.1c-0.5,2.3-3.2,3.7-6,3.9c0,0-0.1,0-0.1,0c-0.9,0-1.7-0.1-2.5-0.3
						c-1.5-0.5-2.8-1-3.6-2c0,0,0-0.3,0-0.4c0,0,0,0,0,0l0.1-0.5l0,0l0,0l0.1-0.2c0.8-0.4,1.4-1,1.9-1.8c1.4,0,2.6-0.4,3.3-1.2
						C207.4-258.5,206-260.9,206.8-261.3z"/>
					<path class="st8" d="M204-261.9c0.6,1.9,0.2,4.3-1,6.1c-0.4,0-0.9,0-1.3-0.1l-0.6,1.8c0,0,0,0,0,0l2.2-7.7L204-261.9z"/>
					<path class="st8" d="M204-261.9l-0.7,0.2l-7.9,1.1l-1.1,4.4c-0.3-0.1-0.7-0.3-1-0.4c-0.1-0.8-0.2-1.5-0.2-2
						c-0.2-3.1,6.4-13.6,10.8-3.9C203.8-262.3,203.9-262.1,204-261.9z"/>
					<path class="st8" d="M201.7-255.8c0.5,0,0.9,0.1,1.3,0.1c-0.5,0.7-1.1,1.3-1.9,1.8L201.7-255.8z"/>
					<path class="st3" d="M197.9-233.3l-4.1,23.7c-0.2,0-0.3,0-0.4,0c-4.4-0.4-16.5-17.3-15.5-27.7c0.6-6.6,4.5-12.1,9.8-14.9
						c0.4,0.2,0.8,0.3,1.2,0.4c1.6,0.3,3,0.1,4.2-0.4c0.1,0,0.1-0.1,0.2-0.1l-5.4,20.5L197.9-233.3z"/>
					<path class="st8" d="M194.2-256.1l-0.4,1.4c-0.3-0.6-0.5-1.2-0.6-1.8C193.5-256.4,193.9-256.3,194.2-256.1z"/>
					<path class="st8" d="M193.8-254.7l-0.1,0.5l-0.5,1.8c0,0-0.1,0.1-0.2,0.1c-1.2,0.5-2.6,0.7-4.2,0.4c-0.4-0.1-0.8-0.2-1.2-0.4
						c-0.4-0.2-0.8-0.3-1.1-0.6c-2.4-1.4-4.1-4.1-3.5-6.3c1.1-3.8,8.2-4.4,8.9-3.2c0.5,0.8-1.9,2.2-1.7,4.1c0.2,1.1,1.5,1.3,2.9,1.7
						C193.3-255.9,193.5-255.3,193.8-254.7z"/>
				</g>
				<g>
				</g>
			</g>
		</g>
	</g>
	<g>
		<circle class="st2" cx="196" cy="46.6" r="35.6"/>
		<g>
			<g id="XMLID_7_">
				<g>
					<path class="st3" d="M208.3,33c5.2,4.2,8.2,11,7.5,18.3c-1,10.6-15.6,25-21.5,26.5l13.1-33.5L197,45.7l4.4-15.7
						c0,0.2,0,0.4,0,0.5c0.9,1.1,2.3,1.7,4,2.2c0.9,0.3,1.8,0.4,2.8,0.3C208.2,33,208.3,33,208.3,33z"/>
					<path class="st8" d="M207.9,20.9c1.3-0.8,8,3.5,7,7.8c-0.6,2.5-3.5,4.1-6.6,4.3c0,0-0.1,0-0.1,0c-0.9,0-1.9-0.1-2.8-0.3
						c-1.7-0.5-3.1-1.1-4-2.2c0-0.1,0-0.3,0-0.5c0,0,0,0,0,0l0.2-0.5l0,0l0,0l0.1-0.3c0.9-0.5,1.6-1.1,2.1-1.9
						c1.6,0,2.9-0.4,3.6-1.3C208.6,24,207.1,21.5,207.9,20.9z"/>
					<path class="st8" d="M204.9,20.4c0.6,2.1,0.3,4.8-1.1,6.8c-0.5,0-1,0-1.5-0.1l-0.6,2c0,0,0,0,0,0l2.4-8.5L204.9,20.4z"/>
					<path class="st8" d="M204.9,20.4l-0.8,0.2l-8.7,1.2l-1.3,4.8c-0.4-0.2-0.7-0.3-1.1-0.4c-0.2-0.9-0.2-1.7-0.2-2.2
						c-0.2-3.4,7-15,11.9-4.3C204.7,19.9,204.8,20.1,204.9,20.4z"/>
					<path class="st8" d="M202.3,27.1c0.5,0,1,0.1,1.5,0.1c-0.5,0.8-1.2,1.5-2.1,1.9L202.3,27.1z"/>
					<path class="st1" d="M198.2,51.8l-4.5,26.1c-0.2,0-0.3,0-0.5,0c-4.9-0.5-18.3-19.1-17.1-30.5c0.7-7.3,5-13.3,10.8-16.4
						c0.4,0.2,0.9,0.3,1.3,0.4c1.7,0.4,3.3,0.1,4.6-0.4c0.1,0,0.2-0.1,0.2-0.1l-5.9,22.6L198.2,51.8z"/>
					<path class="st8" d="M194.1,26.7l-0.4,1.6c-0.3-0.6-0.6-1.3-0.7-2C193.3,26.4,193.7,26.5,194.1,26.7z"/>
					<path class="st8" d="M193.7,28.3l-0.1,0.5l-0.5,2c0,0-0.1,0.1-0.2,0.1c-1.3,0.5-2.9,0.8-4.6,0.4c-0.5-0.1-0.9-0.2-1.3-0.4
						c-0.4-0.2-0.9-0.4-1.3-0.6c-2.7-1.6-4.6-4.5-3.9-7c1.2-4.2,9.1-4.9,9.9-3.5c0.5,0.9-2.1,2.4-1.8,4.5c0.2,1.2,1.6,1.4,3.2,1.9
						C193.1,26.9,193.3,27.6,193.7,28.3z"/>
				</g>
				<g>
				</g>
			</g>
		</g>
	</g>
	<g>
		<circle class="st2" cx="195.8" cy="-100.6" r="51.8"/>
		<g>
			<g id="XMLID_8_">
				<g>
					<path class="st3" d="M213.8-120.4c7.5,6.1,12,15.9,11,26.6c-1.5,15.4-22.6,36.3-31.3,38.6l19-48.8l-15.1,2.1l6.4-22.8
						c0,0.2,0,0.6,0,0.7c1.3,1.5,3.3,2.5,5.8,3.2c1.3,0.4,2.7,0.5,4,0.5C213.6-120.4,213.7-120.4,213.8-120.4z"/>
					<path class="st8" d="M213.2-137.9c1.9-1.2,11.6,5.1,10.2,11.3c-0.8,3.6-5.2,6-9.6,6.2c-0.1,0-0.1,0-0.2,0
						c-1.4,0.1-2.8-0.1-4-0.5c-2.5-0.7-4.5-1.6-5.8-3.2c-0.1-0.1,0-0.5,0-0.7c0,0,0,0,0,0l0.2-0.8l0-0.1l0-0.1l0.1-0.4
						c1.2-0.7,2.3-1.7,3-2.8c2.3,0,4.2-0.6,5.2-2C214.2-133.4,211.9-137.1,213.2-137.9z"/>
					<path class="st8" d="M208.7-138.7c0.9,3,0.4,7-1.6,9.8c-0.7,0-1.4,0-2.1-0.1l-0.9,2.9c0,0,0,0,0,0l3.5-12.3L208.7-138.7z"/>
					<path class="st8" d="M208.7-138.7l-1.2,0.3l-12.6,1.8l-1.8,7c-0.5-0.2-1.1-0.4-1.6-0.6c-0.2-1.3-0.3-2.5-0.3-3.3
						c-0.3-5,10.2-21.8,17.2-6.3C208.5-139.4,208.6-139.1,208.7-138.7z"/>
					<path class="st8" d="M205-129c0.7,0.1,1.5,0.1,2.1,0.1c-0.8,1.2-1.8,2.2-3,2.8L205-129z"/>
					<path class="st1" d="M199-93L192.4-55c-0.2,0-0.5,0-0.7,0c-7.1-0.7-26.5-27.8-24.9-44.4c1-10.6,7.2-19.4,15.8-23.9
						c0.6,0.3,1.3,0.5,1.9,0.6c2.5,0.5,4.8,0.1,6.7-0.6c0.1,0,0.2-0.1,0.3-0.1l-8.6,32.8L199-93z"/>
					<path class="st8" d="M193.1-129.6l-0.6,2.3c-0.5-0.9-0.8-1.9-1-2.9C192-130,192.5-129.8,193.1-129.6z"/>
					<path class="st8" d="M192.5-127.2l-0.2,0.8l-0.8,3c-0.1,0-0.2,0.1-0.3,0.1c-1.9,0.7-4.2,1.2-6.7,0.6c-0.7-0.1-1.3-0.3-1.9-0.6
						c-0.6-0.3-1.2-0.6-1.8-0.9c-3.9-2.3-6.6-6.5-5.6-10.2c1.7-6.1,13.2-7.1,14.3-5.1c0.7,1.3-3.1,3.5-2.7,6.6
						c0.3,1.8,2.3,2,4.7,2.8C191.6-129.2,191.9-128.1,192.5-127.2z"/>
				</g>
				<g>
				</g>
			</g>
		</g>
	</g>
	<g>
		<path class="st1" d="M128.4-137.3c-0.5-0.8-0.3-1.7,0.2-2.5c0.7-0.9,1.9-1.3,3.1-0.3c1.3,1,1.1,2.4,0.4,3.2
			c-1.1,1.4-3,1.5-4.6,0.2c-4-3.2-2.5-8.9,0.8-13.1c2.6-3.3,6.4-5.8,9.2-3.5c2.1,1.7,1.7,4.1,0.3,6.6c2.2-2.4,4.6-3.8,7-1.9
			c2.6,2.1,1.8,5.5-1.5,9.6l-3.5,4.3l-6.9-5.6c-3.6-2.9-3.7-5.7-2.2-8.7l0.5,0.1c0,1.2,0.8,1.8,1.5,2.4l2.9,2.3c1.5-2,1-3.8-1-5.3
			c-2.1-1.7-4.2-1.2-6.3,1.4c-2.8,3.5-3.1,8.2-0.2,10.5C128.2-137.4,128.3-137.3,128.4-137.3z M142.7-139.4c1.7-2.1,0.8-3.7-1.1-5.2
			c-2-1.6-3.7-1.3-5.1,0.5l-0.3,0.4l6.1,4.9L142.7-139.4z"/>
		<path class="st1" d="M149.5-152.5c2.1,2.1,3.6,2.2,5.1,1c1.8-1.5,2-4.2,0.6-7.5l0.6-0.3c2,4.4,1.3,7.4-1.8,10
			c-2.7,2.1-6.5,2.5-9.3-1.1c-2.8-3.6-1.5-7.1,0.9-9.1c2.4-1.9,4.8-2.2,6.5-0.1c1.8,2.3,0.4,4.8-1.8,6.6
			C149.9-152.9,149.7-152.7,149.5-152.5z M149.1-153c1.4-1.2,0.8-3-0.4-4.5c-1.1-1.4-1.9-1.8-2.4-1.4c-0.7,0.5-0.3,2,2.1,4.9
			C148.5-153.6,148.8-153.3,149.1-153z"/>
		<path class="st1" d="M153.4-164.8c1.5-0.8,2.5-0.8,3.3-0.2c0-1.3,0.6-2.4,1.8-3c1.7-0.9,3.4-0.3,4.4,1.5c0.9,1.7,0.3,3.1-0.8,3.7
			c-1.1,0.6-2.4,0.2-3-0.9c-0.6-1.1-0.2-2.3,0.9-2.9c0.8-0.4,1.5-0.3,2,0.1c-0.9-1.2-2-1.4-3.1-0.8c-1.2,0.7-2,2-0.7,4.4l4.1,7.4
			l-4,2.2l-6-10.9L153.4-164.8z"/>
		<path class="st1" d="M164.9-170.8c1.6-0.6,2.6-0.4,3.3,0.3c0.2-1.3,1-2.3,2.3-2.7c1.8-0.6,3.4,0.2,4.1,2.2
			c0.6,1.8-0.2,3.1-1.4,3.5c-1.2,0.4-2.4-0.1-2.8-1.4c-0.4-1.2,0.1-2.3,1.3-2.7c0.8-0.3,1.5-0.1,2,0.4c-0.7-1.3-1.8-1.7-3-1.3
			c-1.3,0.5-2.3,1.6-1.4,4.2l2.8,8l-4.4,1.5l-4.1-11.7L164.9-170.8z"/>
		<path class="st1" d="M182.9-163.5l-0.6,0.1c-2.4,0.4-4.5-0.3-5.1-4l-1.2-7.3l1.3-0.2c2.4-0.4,3.5,0.6,3.8,2.6l1,6.1
			c0.2,1.2,0.6,2.1,1.5,1.9c0.9-0.1,1.1-1,0.8-2.6l-1.4-8.8l4.6-0.7l2.1,12.9c0.6,3.6-2.2,5.7-5.3,6.2c-2.5,0.4-4.9,0.2-5.3-1.9
			c-0.3-2.1,2.5-3.5,3.9-3.9L182.9-163.5z M184.9-164.1l-0.3,0.2c-1.4,1-2,1.8-1.7,4c0.2,1.2,0.7,2,1.6,1.8c0.9-0.1,1.2-0.9,0.9-2.4
			L184.9-164.1z"/>
		<path class="st1" d="M197-168.8c0.4-3.1,3.1-3.8,5.7-3.9c-2.5-0.7-4.4-2.2-4.1-5c0.3-2.6,2.6-4.7,6.8-4.2c3.7,0.4,5.1,2.5,4.9,4.9
			c-0.2,1.6-1.3,2.4-2.7,2.3c-1.4-0.2-2.1-1.1-2-2.4c0.2-1.3,1.2-2,2.4-1.8c0.6,0.1,1.1,0.3,1.3,0.7c-0.1-1.4-1.4-2.3-2.7-2.4
			c-1.8-0.2-3.2,1-3.5,3.1c-0.3,2.6,1.2,4.5,4.4,4.8c0,0-0.1,0.9-0.1,0.9c-3-0.3-4.4,1.2-4.7,3.6c-0.2,2,0.6,3.3,2.4,3.5
			c2,0.2,4.1-1.3,5.5-4.9l0.6,0.2c-1.4,3.7-3.7,6.3-8.2,5.8C199.6-164,196.7-165.7,197-168.8z"/>
		<path class="st1" d="M219.2-167c-1.7,3.2-3.5,5.9-6.6,5.2c-2.7-0.7-3.4-2.2-2.7-4.9l3.6-13.9l1.5,0.4c2.1,0.6,2.8,1.6,2.3,3.6
			l-3.2,12.3c-0.2,0.8-0.1,1.3,0.5,1.5c0.7,0.2,2-0.7,4-4.4L219.2-167z"/>
		<path class="st1" d="M222-164.4c-0.8,2.8-0.2,4.2,1.6,5c2.2,0.9,4.6-0.2,6.9-3.2l0.5,0.4c-2.9,3.9-5.9,4.8-9.6,3.2
			c-3.2-1.3-5.3-4.4-3.6-8.7c1.8-4.2,5.5-4.8,8.4-3.6c2.8,1.2,4.3,3.1,3.2,5.6c-1.1,2.7-3.9,2.7-6.6,1.6
			C222.4-164.1,222.2-164.3,222-164.4z M222.1-165c1.8,0.7,3-0.8,3.7-2.6c0.7-1.6,0.6-2.6,0-2.8c-0.8-0.3-1.9,0.7-3.3,4.2
			C222.4-165.8,222.3-165.3,222.1-165z"/>
		<path class="st1" d="M229.7-162.9c2.4-3.8,6.4-3.6,9.1-1.9c2.7,1.7,3.1,4.1,1.9,6.1c-0.9,1.4-2.3,1.8-3.5,1.1
			c-1.1-0.7-1.4-1.9-0.7-3c0.7-1.2,2-1.4,3-0.7c0.6,0.4,0.9,0.9,0.9,1.4c0.5-1.4,0.1-2.6-1-3.3c-1.5-1-3.5-0.1-5.5,3.2
			c-1.8,2.8-2,5.1,0,6.4c1.5,1,3.8,0.9,7.3-2l0.4,0.5c-4.4,3.6-7.1,3.3-10,1.5C228.7-155.6,227.3-159.1,229.7-162.9z"/>
		<path class="st1" d="M249.3-155l-1.4-1.2l-5.9,6.8c-0.6,0.7-0.6,1.1-0.2,1.5c0.7,0.6,2.8,0.3,5.8-1.9l0.3,0.5
			c-2.8,2.1-5.9,3.6-8.4,1.4c-1.8-1.6-2.1-3.4-0.2-5.6l5-5.8l-1.1-1l0.6-0.8l1.1,1l2.7-3.2l1,0.9c1.9,1.6,1.9,2.8,0.6,4.4l-0.8,1
			l1.4,1.2L249.3-155z"/>
		<path class="st1" d="M253.2-152.8c1.1,1.3,1.4,2.3,0.9,3.2c1.3-0.3,2.5,0.1,3.3,1.1c1.3,1.5,1,3.3-0.5,4.6c-1.4,1.3-3,1-3.8,0
			c-0.8-1-0.7-2.2,0.2-3.1c0.9-0.8,2.2-0.7,3,0.2c0.6,0.7,0.6,1.4,0.4,2c0.9-1.1,0.9-2.3,0.1-3.2c-0.9-1-2.4-1.5-4.5,0.2l-6.4,5.6
			l-3-3.5l9.3-8.2L253.2-152.8z"/>
		<path class="st1" d="M259.9-133.1c-3.1,1.1-6.2,2-8-0.7c-1.6-2.4-0.8-4.1,1.4-5.5l7.1-4.7l1,1.5c1.1,1.6,1,2.7-0.7,3.8l-6.1,4
			c-0.7,0.4-1,0.9-0.6,1.4c0.4,0.6,1.9,0.9,5.6-0.5L259.9-133.1z M262.9-143c-0.8-1.2-0.7-2.8,0.6-3.6c1.3-0.8,2.8-0.3,3.6,0.9
			c0.8,1.2,0.7,2.8-0.6,3.6C265.2-141.3,263.7-141.8,262.9-143z"/>
		<path class="st1" d="M268.2-129.7c-0.8-1.7-2.9-2-6.4-0.3c-3,1.4-4.4,3.3-3.5,5.3c0.6,1.3,2.3,2.1,4.4,2.1l0,0.7
			c-3.3,0.1-5.1-1.2-6.3-3.8c-1.5-3.2-0.7-6.9,3.3-8.8c4.1-1.9,7.3,0.4,8.7,3.3c1.4,2.9,0.4,5.1-1.8,6.2c-1.3,0.6-2.7,0.3-3.3-1
			c-0.6-1.2-0.2-2.3,1-2.9c1.1-0.5,2.3-0.1,2.8,1c0.3,0.6,0.3,1.1,0.1,1.6C268.4-127.5,268.6-128.8,268.2-129.7z"/>
	</g>
	<circle class="st2" cx="51.8" cy="51.8" r="51.8"/>
	<g>
		<g id="XMLID_9_">
			<g>
				<path class="st3" d="M66.4,35.7c6.1,5,9.8,13,8.9,21.6c-1.2,12.5-18.4,29.6-25.5,31.4L65.3,49L53,50.7l5.2-18.6
					c0,0.2,0,0.5,0,0.6c1,1.3,2.7,2,4.7,2.6c1,0.3,2.2,0.4,3.3,0.4C66.3,35.7,66.4,35.7,66.4,35.7z"/>
				<path class="st8" d="M66,21.4c1.6-1,9.4,4.2,8.3,9.2c-0.7,2.9-4.2,4.9-7.8,5.1c-0.1,0-0.1,0-0.2,0c-1.1,0-2.2-0.1-3.3-0.4
					c-2-0.6-3.7-1.3-4.7-2.6c0-0.1,0-0.4,0-0.6c0,0,0,0,0,0l0.2-0.6l0-0.1l0,0l0.1-0.3c1-0.6,1.8-1.4,2.5-2.3c1.9,0,3.4-0.5,4.3-1.6
					C66.8,25.1,64.9,22,66,21.4z"/>
				<path class="st8" d="M62.3,20.7c0.8,2.4,0.3,5.7-1.3,8c-0.6,0-1.1,0-1.7-0.1l-0.7,2.4c0,0,0,0,0,0l2.8-10L62.3,20.7z"/>
				<path class="st8" d="M62.3,20.7l-1,0.3l-10.3,1.5l-1.5,5.7c-0.4-0.2-0.9-0.3-1.3-0.5c-0.2-1-0.2-2-0.3-2.6
					C47.8,21,56.3,7.3,62,20C62.1,20.2,62.2,20.5,62.3,20.7z"/>
				<path class="st8" d="M59.3,28.7c0.6,0.1,1.2,0.1,1.7,0.1c-0.6,1-1.5,1.8-2.5,2.3L59.3,28.7z"/>
				<path class="st1" d="M54.4,58l-5.3,30.9c-0.2,0-0.4,0-0.6,0c-5.8-0.6-21.6-22.6-20.3-36.1C29,44.1,34.1,37,41,33.3
					c0.5,0.2,1,0.4,1.6,0.5c2.1,0.4,3.9,0.1,5.4-0.5c0.1,0,0.2-0.1,0.2-0.1l-7,26.7L54.4,58z"/>
				<path class="st8" d="M49.6,28.2l-0.5,1.9c-0.4-0.7-0.7-1.6-0.8-2.4C48.7,27.9,49.1,28,49.6,28.2z"/>
				<path class="st8" d="M49.1,30.1l-0.2,0.6l-0.6,2.4c-0.1,0-0.2,0.1-0.2,0.1c-1.5,0.6-3.4,1-5.4,0.5c-0.5-0.1-1.1-0.3-1.6-0.5
					c-0.5-0.2-1-0.5-1.5-0.7c-3.2-1.9-5.4-5.3-4.6-8.3c1.4-5,10.7-5.8,11.7-4.1c0.6,1.1-2.5,2.8-2.2,5.4c0.2,1.5,1.9,1.7,3.8,2.2
					C48.4,28.5,48.7,29.4,49.1,30.1z"/>
			</g>
			<g>
			</g>
		</g>
	</g>
	<g>
		<circle class="st2" cx="558.7" cy="-70.6" r="98.8"/>
		<g>
			<g id="XMLID_6_">
				<g>
					<path class="st3" d="M593-108.3c14.4,11.6,22.9,30.4,20.9,50.7c-2.8,29.4-43.2,69.3-59.7,73.6l36.2-93.1L561.6-73l12.2-43.6
						c0,0.4-0.1,1.2,0,1.3c2.5,2.9,6.3,4.7,11.1,6.1c2.5,0.7,5.1,1,7.7,0.9C592.8-108.3,592.9-108.3,593-108.3z"/>
					<path class="st8" d="M591.9-141.8c3.7-2.3,22.1,9.8,19.4,21.6c-1.6,6.9-9.8,11.4-18.3,11.9c-0.1,0-0.3,0-0.4,0
						c-2.6,0.1-5.3-0.2-7.7-0.9c-4.7-1.4-8.6-3.1-11.1-6.1c-0.1-0.1-0.1-0.9,0-1.3c0,0,0,0,0-0.1l0.4-1.5l0-0.1l0-0.1l0.2-0.8
						c2.4-1.3,4.3-3.2,5.8-5.4c4.4-0.1,8-1.1,10-3.7C593.9-133.2,589.5-140.3,591.9-141.8z"/>
					<path class="st8" d="M582.7-145.2c2.7,5.9,1.8,14.5-2.3,20.6c-1.3,0-2.7,0-4.1-0.2l-1.7,5.6c0,0,0,0,0,0l6.6-23.5l-24.1,3.4
						l-3.5,13.4c-1-0.4-2.1-0.8-3.1-1.1c-0.5-2.4-0.5-4.7-0.6-6.2C549.3-142.7,569.2-174.9,582.7-145.2z"/>
					<path class="st8" d="M576.3-124.8c1.4,0.1,2.8,0.2,4.1,0.2c-1.5,2.2-3.4,4.1-5.8,5.4L576.3-124.8z"/>
					<path class="st1" d="M564.8-56.1l-12.5,72.4c-0.5,0-0.9,0-1.3,0c-13.6-1.3-50.7-53.1-47.6-84.7c1.9-20.2,13.8-37,30.1-45.7
						c1.2,0.5,2.5,0.9,3.7,1.2c4.8,1,9.2,0.2,12.8-1.2c0.2-0.1,0.4-0.2,0.6-0.2L534-51.7L564.8-56.1z"/>
					<path class="st8" d="M553.5-125.9l-1.2,4.4c-1-1.7-1.5-3.7-1.9-5.5C551.4-126.7,552.5-126.3,553.5-125.9z"/>
					<path class="st8" d="M552.3-121.5l-0.4,1.5l-1.5,5.7c-0.1,0.1-0.4,0.2-0.6,0.2c-3.6,1.4-7.9,2.3-12.8,1.2
						c-1.2-0.3-2.5-0.7-3.7-1.2c-1.2-0.5-2.4-1.1-3.5-1.7c-7.4-4.4-12.7-12.4-10.7-19.4c3.3-11.7,25.2-13.5,27.4-9.7
						c1.4,2.5-5.9,6.7-5.1,12.6c0.5,3.4,4.4,3.9,9,5.3C550.8-125.1,551.4-123.2,552.3-121.5z"/>
				</g>
				<g>
				</g>
			</g>
		</g>
	</g>
	<path id="SVGID_x5F_1_x5F_" style="fill:none;" d="M687.9-63.2C687.9,8.2,630,66,558.7,66S429.5,8.2,429.5-63.2
		s57.8-129.2,129.2-129.2S687.9-134.5,687.9-63.2z"/>
	<text>	<textPath  xlink:href="#SVGID_x5F_1_x5F_" startOffset="211.3607%">
<tspan  class="st1" style="font-family:'Escafina-Medium'; font-size:47.3408px;">Berry Electric </tspan>	</textPath>
</text>
	<circle class="st8" cx="246.1" cy="-292.1" r="11.8"/>
	<g>
		<path class="st1" d="M243.6,45.6c0.3-0.9,1.1-1.4,2.1-1.4c1.2,0,2.2,0.7,2.2,2.2c0,1.7-1.2,2.3-2.3,2.3c-1.8,0-3.1-1.4-3.1-3.5
			c0-5.2,5.4-7.6,10.8-7.6c4.2,0,8.6,1.3,8.6,5c0,2.7-2.1,3.9-5,4.4c3.3,0.2,5.9,1.2,5.9,4.3c0,3.3-3.1,4.9-8.4,4.9h-5.6v-8.9
			c0-4.6,2.1-6.5,5.4-7.3l0.2,0.4c-0.9,0.7-0.9,1.7-0.9,2.7V47c2.5-0.1,3.5-1.6,3.5-4.1c0-2.7-1.7-4.1-5.1-4.1
			c-4.5,0-8.4,2.8-8.4,6.4C243.5,45.4,243.5,45.5,243.6,45.6z M254.3,55.5c2.7,0,3.4-1.7,3.4-4.2c0-2.5-1.3-3.7-3.6-3.7h-0.5v7.9
			H254.3z"/>
		<path class="st1" d="M268.9,51.1c0.3,2.9,1.5,4,3.4,4c2.4,0,4.2-2,5.2-5.6l0.6,0.1c-1.2,4.7-3.6,6.7-7.7,6.7c-3.4,0-6.7-2-6.7-6.7
			s3.3-6.6,6.4-6.6c3.1,0,5.2,1.2,5.2,4c0,3-2.6,4-5.5,4C269.4,51.1,269.1,51.1,268.9,51.1z M268.8,50.5c1.9,0,2.5-1.8,2.5-3.8
			c0-1.8-0.4-2.6-1-2.6c-0.8,0-1.4,1.4-1.4,5.2C268.8,49.6,268.8,50.1,268.8,50.5z"/>
		<path class="st1" d="M278.3,43.5c1.7,0,2.6,0.5,3,1.4c0.6-1.2,1.7-1.8,3-1.8c2,0,3.1,1.4,3.1,3.4c0,1.9-1.2,2.9-2.5,2.9
			c-1.3,0-2.2-0.9-2.2-2.2c0-1.2,0.9-2.1,2.2-2.1c0.9,0,1.5,0.4,1.8,1c-0.2-1.5-1.1-2.2-2.4-2.2c-1.4,0-2.7,0.8-2.8,3.5V56H277V43.5
			H278.3z"/>
		<path class="st1" d="M290,43.5c1.7,0,2.6,0.5,3,1.4c0.6-1.2,1.7-1.8,3-1.8c2,0,3.1,1.4,3.1,3.4c0,1.9-1.2,2.9-2.5,2.9
			c-1.3,0-2.2-0.9-2.2-2.2c0-1.2,0.9-2.1,2.2-2.1c0.9,0,1.5,0.4,1.8,1c-0.2-1.5-1.1-2.2-2.4-2.2c-1.4,0-2.7,0.8-2.8,3.5V56h-4.6
			V43.5H290z"/>
		<path class="st1" d="M305.4,55.7h-0.6c-2.4,0-4.5-1-4.5-4.8v-7.5h1.3c2.5,0,3.3,1.1,3.3,3.1v6.2c0,1.3,0.2,2.1,1.2,2.1
			s1.2-0.9,1.2-2.5v-9h4.7v13.1c0,3.6-3,5.3-6.3,5.3c-2.6,0-4.9-0.6-4.9-2.8c0-2.1,3-3.1,4.5-3.3L305.4,55.7z M307.5,55.4l-0.3,0.2
			c-1.5,0.8-2.3,1.5-2.3,3.7c0,1.2,0.4,2.1,1.3,2.1s1.3-0.7,1.3-2.2V55.4z"/>
		<path class="st1" d="M320.3,51.8c0-3.1,2.6-4.2,5.3-4.5c-2.5-0.4-4.7-1.7-4.7-4.6c0-2.6,2.1-5,6.3-5c3.7,0,5.4,1.9,5.4,4.3
			c0,1.6-1,2.6-2.4,2.6c-1.4,0-2.2-0.9-2.2-2.2c0-1.3,1-2.1,2.2-2.1c0.6,0,1.1,0.2,1.4,0.6c-0.3-1.4-1.6-2.1-3-2.1
			c-1.9,0-3.1,1.4-3.1,3.5c0,2.6,1.8,4.3,4.9,4.3c0,0,0,0.9,0,0.9c-3,0-4.3,1.7-4.3,4.1c0,2,1,3.2,2.8,3.2c2,0,3.9-1.7,4.9-5.5
			l0.7,0.2c-1,3.8-3,6.7-7.5,6.7C323.5,56.3,320.3,55,320.3,51.8z"/>
		<path class="st1" d="M342.6,49.7c-0.8,3.5-1.9,6.7-5.1,6.7c-2.8,0-3.8-1.3-3.8-4.1V37.7h1.6c2.2,0,3.1,0.9,3.1,2.9v12.8
			c0,0.8,0.2,1.3,0.8,1.3c0.7,0,1.8-1.1,2.8-5.3L342.6,49.7z"/>
		<path class="st1" d="M345.9,51.1c0.3,2.9,1.5,4,3.4,4c2.4,0,4.2-2,5.2-5.6l0.6,0.1c-1.2,4.7-3.6,6.7-7.7,6.7c-3.4,0-6.7-2-6.7-6.7
			s3.3-6.6,6.4-6.6c3.1,0,5.2,1.2,5.2,4c0,3-2.6,4-5.5,4C346.4,51.1,346.1,51.1,345.9,51.1z M345.8,50.5c1.9,0,2.5-1.8,2.5-3.8
			c0-1.8-0.4-2.6-1-2.6c-0.8,0-1.4,1.4-1.4,5.2C345.8,49.6,345.8,50.1,345.8,50.5z"/>
		<path class="st1" d="M353.3,49.6c0-4.6,3.5-6.5,6.7-6.5c3.2,0,4.9,1.8,4.9,4.2c0,1.6-0.9,2.8-2.4,2.8c-1.3,0-2.2-0.8-2.2-2.2
			c0-1.4,1-2.2,2.2-2.2c0.7,0,1.2,0.3,1.5,0.7c-0.3-1.5-1.4-2.3-2.6-2.3c-1.8,0-3,1.8-3,5.7c0,3.4,1.1,5.4,3.4,5.4
			c1.8,0,3.7-1.4,5.2-5.6l0.6,0.2c-1.8,5.4-4.2,6.7-7.6,6.7C356.3,56.3,353.3,54,353.3,49.6z"/>
		<path class="st1" d="M373.3,44.5h-1.8v9.1c0,0.9,0.3,1.3,0.9,1.3c1,0,2.3-1.6,3.1-5.3l0.6,0.2c-0.7,3.4-2.1,6.6-5.4,6.6
			c-2.4,0-3.8-1.2-3.8-4.1v-7.7h-1.5v-1h1.5v-4.2h1.3c2.5,0,3.3,0.9,3.3,2.9v1.3h1.8V44.5z"/>
		<path class="st1" d="M376.5,43.5c1.7,0,2.6,0.5,3,1.4c0.6-1.2,1.7-1.8,3-1.8c2,0,3.1,1.4,3.1,3.4c0,1.9-1.2,2.9-2.5,2.9
			c-1.3,0-2.2-0.9-2.2-2.2c0-1.2,0.9-2.1,2.2-2.1c0.9,0,1.5,0.4,1.8,1c-0.2-1.5-1.1-2.2-2.4-2.2c-1.4,0-2.7,0.8-2.8,3.5V56h-4.6
			V43.5H376.5z"/>
		<path class="st1" d="M389.1,42c-1.4,0-2.7-1-2.7-2.5c0-1.5,1.3-2.5,2.7-2.5s2.7,1,2.7,2.5C391.8,41.1,390.5,42,389.1,42z
			 M395.7,50c-0.8,3.2-1.8,6.3-5,6.3c-2.9,0-3.8-1.6-3.8-4.3v-8.6h1.8c2,0,2.8,0.6,2.8,2.7v7.3c0,0.8,0.2,1.3,0.8,1.3
			c0.8,0,1.8-1.1,2.7-4.9L395.7,50z"/>
		<path class="st1" d="M402.1,44c-1.9,0-3,1.8-3,5.7c0,3.4,1.1,5.4,3.3,5.4c1.5,0,2.9-1.2,3.8-3.1l0.6,0.2c-1.3,3-3.3,4.1-6.1,4.1
			c-3.5,0-6.6-2.3-6.6-6.8c0-4.6,3.5-6.5,6.7-6.5c3.2,0,4.9,1.8,4.9,4.3c0,1.5-0.9,2.6-2.3,2.6c-1.3,0-2.2-0.8-2.2-2.2
			c0-1.3,0.9-2.1,2.1-2.1c0.6,0,1.1,0.2,1.5,0.6C404.3,44.8,403.2,44,402.1,44z"/>
	</g>
	<circle class="st1" cx="137.1" cy="221.5" r="44.4"/>
	<polyline class="st0" points="135.5,223.9 145.5,180.8 134.2,184.1 138,155.1 128.6,157.8 124.3,194.2 136.4,190.7 135.5,223.9 	
		"/>
</g>
<g id="Layer_3">
</g>
</svg>
