<?xml version="1.0" encoding="utf-8"?>
<!-- Generator: Adobe Illustrator 21.1.0, SVG Export Plug-In . SVG Version: 6.00 Build 0)  -->
<svg version="1.1" xmlns="http://www.w3.org/2000/svg" xmlns:xlink="http://www.w3.org/1999/xlink" x="0px" y="0px"
	 viewBox="0 0 260.4 480.8" style="enable-background:new 0 0 260.4 480.8;" xml:space="preserve">
<style type="text/css">
	.st0{fill:#FFFFFF;stroke:#231F20;stroke-miterlimit:10;}
	.st1{fill:#662D91;}
	.st2{fill:#FFF200;}
	.st3{fill:#92278F;}
	.st4{fill:#1B75BC;}
	.st5{fill:#FFFFFF;}
	.st6{fill:#262262;}
	.st7{fill:#006838;}
	.st8{fill:#2BB673;}
	.st9{fill:#E8DD5B;}
	.st10{filter:url(#Adobe_OpacityMaskFilter);}
	.st11{opacity:0.75;mask:url(#SVGID_1_);}
	.st12{fill:#F2E32C;}
	.st13{fill:none;}
	.st14{font-family:'ArialMT';}
	.st15{font-size:30.1635px;}
	.st16{enable-background:new    ;}
	.st17{display:none;}
	.st18{display:inline;}
</style>
<g id="Layer_1">
	<path class="st0" d="M-529.3-89.4c0,33.8-46.2,85-61.3,85s-61.3-51.2-61.3-85s27.4-61.3,61.3-61.3
		C-556.7-150.7-529.3-123.3-529.3-89.4z"/>
	<polyline class="st0" points="-589.3,-4.4 -564.4,-110.7 -592.4,-102.6 -582.9,-174.3 -606.3,-167.5 -616.7,-77.6 -586.9,-86.2 
		-589.3,-4.4 	"/>
	<g id="XMLID_1_">
		<g>
			<path class="st1" d="M-400.3-139.3c14.9,11.6,23.8,30.7,21.8,51.4c-2.8,29.4-43.2,69.3-59.7,73.6l36.2-93.1l-28.9,4.1l12.5-44.8
				c2.3,3,5.7,6,10.3,7.6C-405.5-139.7-402.9-139.3-400.3-139.3z"/>
			<path class="st2" d="M-399.7-172.8c3.8-2.2,21.7,10.6,18.6,22.3c-1.9,7-10.5,11.2-19.1,11.2c-2.6,0-5.2-0.4-7.7-1.2
				c-4.6-1.6-8-4.5-10.3-7.6l-12.5,44.8l28.9-4.1L-438-14.3l-3.3,8.6l1.4-8.3l12.5-72.4l-30.8,4.4l16.4-62.5c-1.9,1.7-4.2,3.1-7,4
				c-5,1.7-10.9,1.5-15.9-0.1c-5.3-1.8-9.6-5.2-10.9-9.9c-3.2-11.7,14.8-24.5,18.6-22.3c2.5,1.4-1.7,8.7,2.1,13.4
				c3,3.7,9.4,3.9,16.4,2.7l3.4-12.9l24.1-3.4l-4.7,16.6c6.1,0.8,11.5,0.3,14.2-3C-398-164.1-402.1-171.4-399.7-172.8z"/>
			<path class="st3" d="M-427.6-86.4L-440.1-14c-0.5,0-0.9,0-1.3,0c-13.6-1.3-50.7-53.1-47.6-84.7c1.7-17.7,11-32.7,24.2-42
				c5,1.7,10.9,1.8,15.9,0.1c2.8-0.9,5.1-2.3,7-4l-16.4,62.5L-427.6-86.4z"/>
		</g>
	</g>
	<path class="st0" d="M-429.2,100.2l-12.5,72.4c-0.5,0-0.9,0-1.3,0c-13.6-1.3-50.7-53.1-47.6-84.7c1.7-17.7,11-32.7,24.2-42
		c5,1.7,10.9,1.8,15.9,0.1c2.8-0.9,5.1-2.4,7-4l-16.4,62.5L-429.2,100.2z"/>
	<path class="st0" d="M-380.1,98.7c-2.8,29.4-43.2,69.3-59.7,73.6l36.2-93.1l-28.9,4.1l12.6-44.8c2.3,3,5.7,6,10.3,7.6
		c2.4,0.8,5.1,1.2,7.7,1.2C-387,58.8-378.1,78-380.1,98.7z"/>
	<path class="st0" d="M-382.7,36.1c-1.9,7-10.5,11.2-19.1,11.2c-2.6,0-5.2-0.4-7.7-1.2c-4.6-1.6-8-4.5-10.3-7.6l-12.6,44.8l28.9-4.1
		l-36.2,93.1l-3.3,8.6l1.4-8.3l12.5-72.4l-30.8,4.4l16.4-62.5c-1.9,1.6-4.2,3.1-7,4c-5,1.7-10.9,1.5-15.9-0.1
		c-5.3-1.8-9.6-5.2-10.9-9.9c-3.1-11.7,14.8-24.5,18.6-22.3c2.5,1.4-1.7,8.7,2.1,13.4c3,3.7,9.4,3.9,16.4,2.7l3.4-12.9l24.1-3.4
		l-4.7,16.6c6.1,0.8,11.5,0.3,14.2-3c3.7-4.7-0.4-12,2.1-13.4C-397.5,11.6-379.6,24.4-382.7,36.1z"/>
	<g id="XMLID_4_">
		<g>
			<path class="st4" d="M-564,236.4c14.9,11.6,23.8,30.7,21.8,51.4c-2.8,29.4-43.2,69.3-59.7,73.6l36.2-93.1l-28.9,4.1l12.6-44.8
				c2.3,3,5.7,6,10.3,7.6C-569.2,236-566.6,236.4-564,236.4z"/>
			<path class="st5" d="M-563.4,202.9c3.8-2.2,21.7,10.6,18.6,22.3c-1.9,7-10.5,11.2-19.1,11.2c-2.6,0-5.2-0.4-7.7-1.2
				c-4.7-1.6-8-4.5-10.3-7.6l-12.6,44.8l28.9-4.1l-36.2,93.1l-3.3,8.6l1.4-8.3l12.5-72.4l-30.8,4.4l16.4-62.5c-1.9,1.6-4.2,3.1-7,4
				c-5,1.7-10.9,1.5-15.9-0.1c-5.3-1.8-9.6-5.2-10.9-9.9c-3.2-11.7,14.7-24.5,18.5-22.3c2.5,1.4-1.7,8.7,2.1,13.4
				c3,3.7,9.4,3.9,16.4,2.7l3.4-12.9l24.1-3.4l-4.7,16.6c6.1,0.8,11.5,0.3,14.2-3C-561.7,211.6-565.8,204.3-563.4,202.9z"/>
			<path class="st6" d="M-591.3,289.3l-12.5,72.4c-0.5,0-0.9,0-1.3,0c-13.6-1.3-50.7-53.1-47.6-84.7c1.7-17.7,11-32.7,24.2-42
				c5,1.7,10.9,1.8,15.9,0.1c2.8-0.9,5.1-2.4,7-4l-16.5,62.6L-591.3,289.3z"/>
		</g>
	</g>
	<g id="XMLID_3_">
		<g>
			<path class="st2" d="M-599.7,171.9c-0.2,0.5-0.9,0.3-0.8-0.2l9.2-68.2c0.4-2.4-2.3-4-4.3-2.7l-42.9,29.6c-1.5,1-3.4-0.4-2.8-2.1
				l27.4-79c-5.3,1-11.1,0.2-15.6-2.1c-4-1.9-7-4.9-8.1-8.7c-3.2-11.7,14.8-24.5,18.6-22.3c2.5,1.4-1.7,8.7,2.1,13.4
				c1.8,2.3,5,3.2,8.7,3.4l6.7-19.3c0.6-1.8,2.2-3.1,4.1-3.4l15.2-2c3.8-0.5,6.7,3.2,5.4,6.7l-6.4,17.8c3.8,0,7.1-0.8,9-3.1
				c3.9-4.5,0-12,2.5-13.3c3.9-2,21.3,11.4,17.8,22.9c-1.7,5.5-7.6,9.1-14.3,10.2c-4.3,0.7-8.8,0.4-12.8-1.1
				c-2.5-0.9-4.7-2.3-6.4-3.8l-11.8,32.9c-0.5,1.5,1,3,2.5,2.3l36.4-15.8c1.6-0.7,3.2,0.9,2.6,2.5L-599.7,171.9z"/>
			<path class="st3" d="M-580.9,48.5c4,1.5,8.6,1.8,12.8,1.1c14.1,10.5,23.2,27.6,23.1,46.9c-0.2,31.7-42.3,79.5-55.9,79.4
				c-13.7-0.1-55.3-48.2-55.1-80c0.1-20.6,10.7-38.6,26.5-48.7c4.6,2.2,10.3,3,15.6,2.1l-27.4,79c-0.6,1.7,1.3,3.2,2.8,2.1
				l42.9-29.6c2-1.4,4.6,0.3,4.3,2.7l-9.2,68.2c-0.1,0.5,0.6,0.7,0.8,0.2l42.1-105.2c0.7-1.6-1-3.2-2.6-2.5L-596.6,80
				c-1.5,0.6-3-0.8-2.5-2.3l11.8-32.9C-585.5,46.2-583.4,47.5-580.9,48.5z"/>
		</g>
	</g>
	<path class="st0" d="M-693.6,96.5c-0.2,31.7-42.3,79.5-55.9,79.4c-13.7-0.1-55.3-48.3-55.1-80s25.2-57.3,55.8-57.2
		S-693.4,64.8-693.6,96.5z"/>
	<path class="st0" d="M-749.1,171.7c-0.1,0.5,0.6,0.7,0.8,0.2l42.1-105.2c0.7-1.6-1-3.2-2.6-2.5L-745.2,80c-1.5,0.6-3-0.8-2.5-2.3
		l22.3-62.5c1.3-3.6-1.7-7.2-5.4-6.7l-15.2,2c-1.9,0.2-3.5,1.6-4.1,3.4l-39.8,114.4c-0.6,1.7,1.3,3.2,2.8,2.2l42.9-29.6
		c2-1.4,4.6,0.3,4.3,2.7L-749.1,171.7z"/>
	<path class="st0" d="M-744.2,31.3c-8.7,2.1-17.7,2.9-21.4-1.7c-3.7-4.7,0.4-12-2.1-13.4c-3.8-2.2-21.7,10.6-18.6,22.3
		c2.4,9.1,16.4,13.5,26.8,10C-748,44.7-744.5,32.5-744.2,31.3z"/>
	<path class="st0" d="M-744.2,30.8c8.6,2.4,17.6,3.5,21.5-1s0-12,2.5-13.3c3.9-2,21.3,11.4,17.8,23c-2.7,9-16.9,12.9-27.1,9.1
		C-740.8,44.3-743.9,32-744.2,30.8z"/>
	<path class="st0" d="M-233.2,94.6c-0.2,31.7-42.3,79.5-55.9,79.4c-13.7-0.1-55.3-48.3-55.1-80s25.2-57.3,55.8-57.2
		S-233.1,62.9-233.2,94.6z"/>
	<path class="st7" d="M-162.8-169.7c-0.6-10.6,21.6-46.4,36.6-13.4c4.3,9.5,0.3,25.5-11,29.8C-162.1-143.6-162.4-163.1-162.8-169.7z
		"/>
	<path class="st0" d="M-289.2,173.2L-243,61.9c0.7-1.6-1-3.2-2.6-2.5l-43.2,20.3l26.6-74.4l-26.6,3.4l-42.6,123l0,0l47.5-32.9
		c2-1.4,4.6,0.3,4.3,2.7L-289.2,173.2z"/>
	<path class="st0" d="M-283.8,29.4c-8.7,2.1-17.7,2.9-21.4-1.7c-3.7-4.7,0.4-12-2.1-13.4c-3.8-2.2-21.7,10.6-18.6,22.3
		c2.4,9.1,16.4,13.5,26.8,10C-287.6,42.8-284.1,30.6-283.8,29.4z"/>
	<path class="st0" d="M-283.8,28.9c8.6,2.4,17.6,3.5,21.5-1s0-12,2.5-13.3c3.9-2,21.3,11.4,17.8,23c-2.7,9-16.9,12.9-27.1,9.1
		C-280.4,42.4-283.5,30.1-283.8,28.9z"/>
	<g id="XMLID_2_">
		<g>
			<path class="st4" d="M-265-138.6c14.4,11.6,22.9,30.4,20.9,50.7c-2.8,29.4-43.2,69.3-59.7,73.6l36.2-93.1l-28.9,4.1l12.2-43.6
				c0,0.4-0.1,1.2,0,1.3c2.5,2.9,6.4,4.7,11.1,6.1c2.5,0.7,5.1,1,7.7,0.9C-265.2-138.6-265.1-138.6-265-138.6z"/>
			<path class="st7" d="M-266.1-172.1c3.7-2.3,22.1,9.8,19.4,21.6c-1.6,6.9-9.8,11.4-18.3,11.9c-0.1,0-0.3,0-0.4,0
				c-2.6,0.1-5.3-0.2-7.7-0.9c-4.7-1.4-8.6-3.1-11.1-6.1c-0.1-0.1-0.1-0.9,0-1.3c0,0,0,0,0-0.1l0.4-1.5v-0.1v-0.1l2-6.3
				c6.1,0.6,11.5-0.2,14.1-3.6C-264.1-163.5-268.5-170.6-266.1-172.1z"/>
			<path class="st5" d="M-267.6-107.4l-36.2,93.1c-0.7,0.2-1.3,0.3-1.9,0.4l12.5-72.4l-30.8,4.4l16.4-62.7h0.1l1.4-5.6l1.5-5.9
				l3.5-13.4l24.1-3.4l-6.8,24.3v0.1v0.1l-0.4,1.3c0,0,0,0.1,0,0.2c0,0,0,0,0,0.1l-12.2,43.6L-267.6-107.4z"/>
			<path class="st6" d="M-293.2-86.4L-305.7-14c-0.5,0-0.9,0-1.3,0c-13.6-1.3-50.7-53.1-47.6-84.7c2-20.2,13.8-37,30.1-45.6
				c1.2,0.5,2.5,0.9,3.7,1.1c4.8,1,9.2,0.2,12.8-1.2c0.2-0.1,0.4-0.2,0.6-0.2L-323.9-82L-293.2-86.4z"/>
			<path class="st7" d="M-304.5-156.2l-1.6,5.9l-1.5,5.7c-0.1,0.1-0.4,0.2-0.6,0.2c-3.6,1.4-7.9,2.3-12.8,1.2
				c-1.2-0.3-2.5-0.7-3.7-1.1c-1.2-0.5-2.4-1.1-3.5-1.7c-7.4-4.4-12.7-12.4-10.7-19.4c3.3-11.7,25.2-13.5,27.4-9.7
				c1.4,2.5-5.9,6.6-5.1,12.6C-315.9-158.3-310.2-158.6-304.5-156.2z"/>
		</g>
	</g>
	<path class="st5" d="M138.8-186.4l-36.2,93.1c-0.7,0.2-1.3,0.3-1.9,0.4l12.4-72.4l-30.8,4.4l16.5-62.6h0.1l1.4-5.6l1.5-5.9
		l3.5-13.4l24.1-3.4l-6.8,24.3v0.1v0.1l-0.4,1.3c0,0,0,0.1,0,0.2c0,0,0,0,0,0.1L110-182.1L138.8-186.4z"/>
	<path class="st2" d="M59.1,265.2C23.5,241.9,0,201.7,0,156.1C0,84.2,58.3,25.9,130.2,25.9"/>
	<path class="st2" d="M130.2,25.9c71.9,0,130.2,58.3,130.2,130.2c0,60.2-40.9,110.9-96.5,125.8l-7,25.1v0.2l-0.5,1.7
		c0,0,0,0.1,0,0.3c0,0,0,0,0,0.1l-15.8,56.3l37.2-5.6l-46.7,120.2c-0.9,0.2-1.7,0.4-2.5,0.5l16-93.5l-39.8,5.7l21.3-80.8h0.1
		l1.8-7.2l1.9-7.6l2.9-11c-0.9,0-1.8,0-2.7,0c-26.2,0-50.7-7.8-71.1-21.1"/>
	<path class="st4" d="M-41.1-324c14.4,11.6,22.9,30.4,20.9,50.7c-2.8,29.4-43.2,69.3-59.7,73.6l36.2-93.1l-28.9,4.1l12.2-43.6
		c0,0.4-0.1,1.2,0,1.3c2.5,2.9,6.3,4.7,11.1,6.1c2.4,0.7,5.1,1,7.7,0.9C-41.4-324-41.3-324-41.1-324z"/>
	<path class="st7" d="M-42.2-357.5c3.7-2.3,22.1,9.8,19.4,21.6c-1.6,6.9-9.8,11.4-18.3,11.9c-0.1,0-0.3,0-0.4,0
		c-2.6,0.1-5.3-0.2-7.7-0.9c-4.7-1.4-8.6-3.1-11.1-6.1c-0.1-0.1-0.1-0.9,0-1.3c0,0,0,0,0-0.1l0.4-1.5v-0.1v-0.1l2-6.3
		c6.1,0.6,11.5-0.2,14.1-3.6C-40.2-348.9-44.7-356-42.2-357.5z"/>
	<path class="st6" d="M-69.4-271.8l-12.5,72.4c-0.5,0-0.9,0-1.3,0c-13.6-1.3-50.7-53.1-47.6-84.7c2-20.2,13.8-37,30.1-45.6
		c1.2,0.5,2.5,0.9,3.7,1.1c4.8,1,9.2,0.2,12.8-1.2c0.2-0.1,0.4-0.2,0.6-0.2l-16.4,62.6L-69.4-271.8z"/>
	<path class="st7" d="M-80.7-341.6l-1.6,5.9l-1.5,5.7c-0.1,0.1-0.4,0.2-0.6,0.2c-3.6,1.4-7.9,2.3-12.8,1.2c-1.2-0.3-2.5-0.7-3.7-1.1
		c-1.2-0.5-2.4-1.1-3.5-1.7c-7.4-4.4-12.7-12.4-10.7-19.4c3.3-11.7,25.2-13.5,27.4-9.7c1.4,2.5-5.9,6.6-5.1,12.6
		C-92.1-343.7-86.3-344-80.7-341.6z"/>
	<g>
		<g>
			<g id="XMLID_5_">
				<g>
					<path class="st1" d="M285.5-132c4.7,3.8,7.5,9.9,6.8,16.6c-0.9,9.6-14.1,22.6-19.5,24l11.8-30.4l-9.4,1.3l4-14.2
						c0,0.1,0,0.4,0,0.4c0.8,1,2.1,1.5,3.6,2c0.8,0.2,1.7,0.3,2.5,0.3C285.4-132,285.5-132,285.5-132z"/>
					<path class="st8" d="M285.2-142.9c1.2-0.8,7.2,3.2,6.3,7.1c-0.5,2.3-3.2,3.7-6,3.9h-0.1c-0.9,0-1.7-0.1-2.5-0.3
						c-1.5-0.5-2.8-1-3.6-2c0,0,0-0.3,0-0.4l0,0l0.1-0.5l0,0l0,0l0.1-0.2c0.8-0.4,1.4-1,1.9-1.8c1.4,0,2.6-0.4,3.3-1.2
						C285.8-140.1,284.4-142.5,285.2-142.9z"/>
					<path class="st8" d="M282.4-143.5c0.6,1.9,0.2,4.3-1,6.1c-0.4,0-0.9,0-1.3-0.1l-0.6,1.8l0,0l2.2-7.7L282.4-143.5z"/>
					<path class="st8" d="M282.4-143.5l-0.7,0.2l-7.9,1.1l-1.1,4.4c-0.3-0.1-0.7-0.3-1-0.4c-0.1-0.8-0.2-1.5-0.2-2
						c-0.2-3.1,6.4-13.6,10.8-3.9C282.2-143.9,282.3-143.7,282.4-143.5z"/>
					<path class="st8" d="M280.1-137.4c0.5,0,0.9,0.1,1.3,0.1c-0.5,0.7-1.1,1.3-1.9,1.8L280.1-137.4z"/>
					<path class="st3" d="M276.3-114.9l-4.1,23.7c-0.2,0-0.3,0-0.4,0c-4.4-0.4-16.5-17.3-15.5-27.7c0.6-6.6,4.5-12.1,9.8-14.9
						c0.4,0.2,0.8,0.3,1.2,0.4c1.6,0.3,3,0.1,4.2-0.4c0.1,0,0.1-0.1,0.2-0.1l-5.4,20.5L276.3-114.9z"/>
					<path class="st8" d="M272.6-137.7l-0.4,1.4c-0.3-0.6-0.5-1.2-0.6-1.8C271.9-138,272.3-137.9,272.6-137.7z"/>
					<path class="st8" d="M272.2-136.3l-0.1,0.5l-0.5,1.8c0,0-0.1,0.1-0.2,0.1c-1.2,0.5-2.6,0.7-4.2,0.4c-0.4-0.1-0.8-0.2-1.2-0.4
						s-0.8-0.3-1.1-0.6c-2.4-1.4-4.1-4.1-3.5-6.3c1.1-3.8,8.2-4.4,8.9-3.2c0.5,0.8-1.9,2.2-1.7,4.1c0.2,1.1,1.5,1.3,2.9,1.7
						C271.7-137.5,271.9-136.9,272.2-136.3z"/>
				</g>
			</g>
		</g>
	</g>
	<g>
		<circle class="st2" cx="429.3" cy="165.9" r="35.6"/>
		<g>
			<g id="XMLID_7_">
				<g>
					<path class="st3" d="M441.6,152.3c5.2,4.2,8.2,11,7.5,18.3c-1,10.6-15.6,25-21.5,26.5l13.1-33.5l-10.4,1.4l4.4-15.7
						c0,0.2,0,0.4,0,0.5c0.9,1.1,2.3,1.7,4,2.2c0.9,0.3,1.8,0.4,2.8,0.3H441.6z"/>
					<path class="st8" d="M441.2,140.2c1.3-0.8,8,3.5,7,7.8c-0.6,2.5-3.5,4.1-6.6,4.3h-0.1c-0.9,0-1.9-0.1-2.8-0.3
						c-1.7-0.5-3.1-1.1-4-2.2c0-0.1,0-0.3,0-0.5l0,0l0.2-0.5l0,0l0,0l0.1-0.3c0.9-0.5,1.6-1.1,2.1-1.9c1.6,0,2.9-0.4,3.6-1.3
						C441.9,143.3,440.4,140.8,441.2,140.2z"/>
					<path class="st8" d="M438.2,139.7c0.6,2.1,0.3,4.8-1.1,6.8c-0.5,0-1,0-1.5-0.1l-0.6,2l0,0l2.4-8.5L438.2,139.7z"/>
					<path class="st8" d="M438.2,139.7l-0.8,0.2l-8.7,1.2l-1.3,4.8c-0.4-0.2-0.7-0.3-1.1-0.4c-0.2-0.9-0.2-1.7-0.2-2.2
						c-0.2-3.4,7-15,11.9-4.3C438,139.2,438.1,139.4,438.2,139.7z"/>
					<path class="st8" d="M435.6,146.4c0.5,0,1,0.1,1.5,0.1c-0.5,0.8-1.2,1.5-2.1,1.9L435.6,146.4z"/>
					<path class="st1" d="M431.5,171.1l-4.5,26.1c-0.2,0-0.3,0-0.5,0c-4.9-0.5-18.3-19.1-17.1-30.5c0.7-7.3,5-13.3,10.8-16.4
						c0.4,0.2,0.9,0.3,1.3,0.4c1.7,0.4,3.3,0.1,4.6-0.4c0.1,0,0.2-0.1,0.2-0.1l-5.9,22.6L431.5,171.1z"/>
					<path class="st8" d="M427.4,146l-0.4,1.6c-0.3-0.6-0.6-1.3-0.7-2C426.6,145.7,427,145.8,427.4,146z"/>
					<path class="st8" d="M427,147.6l-0.1,0.5l-0.5,2c0,0-0.1,0.1-0.2,0.1c-1.3,0.5-2.9,0.8-4.6,0.4c-0.5-0.1-0.9-0.2-1.3-0.4
						s-0.9-0.4-1.3-0.6c-2.7-1.6-4.6-4.5-3.9-7c1.2-4.2,9.1-4.9,9.9-3.5c0.5,0.9-2.1,2.4-1.8,4.5c0.2,1.2,1.6,1.4,3.2,1.9
						C426.4,146.2,426.6,146.9,427,147.6z"/>
				</g>
			</g>
		</g>
	</g>
	<g>
		<circle class="st2" cx="440.2" cy="-48.8" r="51.8"/>
		<g>
			<g id="XMLID_8_">
				<g>
					<path class="st3" d="M458.2-68.6c7.5,6.1,12,15.9,11,26.6c-1.5,15.4-22.6,36.3-31.3,38.6l19-48.8l-15.1,2.1l6.4-22.8
						c0,0.2,0,0.6,0,0.7c1.3,1.5,3.3,2.5,5.8,3.2c1.3,0.4,2.7,0.5,4,0.5C458-68.6,458.1-68.6,458.2-68.6z"/>
					<path class="st8" d="M457.6-86.1c1.9-1.2,11.6,5.1,10.2,11.3c-0.8,3.6-5.2,6-9.6,6.2c-0.1,0-0.1,0-0.2,0
						c-1.4,0.1-2.8-0.1-4-0.5c-2.5-0.7-4.5-1.6-5.8-3.2c-0.1-0.1,0-0.5,0-0.7l0,0l0.2-0.8v-0.1V-74l0.1-0.4c1.2-0.7,2.3-1.7,3-2.8
						c2.3,0,4.2-0.6,5.2-2C458.6-81.6,456.3-85.3,457.6-86.1z"/>
					<path class="st8" d="M453.1-86.9c0.9,3,0.4,7-1.6,9.8c-0.7,0-1.4,0-2.1-0.1l-0.9,2.9l0,0l3.5-12.3L453.1-86.9z"/>
					<path class="st8" d="M453.1-86.9l-1.2,0.3l-12.6,1.8l-1.8,7c-0.5-0.2-1.1-0.4-1.6-0.6c-0.2-1.3-0.3-2.5-0.3-3.3
						c-0.3-5,10.2-21.8,17.2-6.3C452.9-87.6,453-87.3,453.1-86.9z"/>
					<path class="st8" d="M449.4-77.2c0.7,0.1,1.5,0.1,2.1,0.1c-0.8,1.2-1.8,2.2-3,2.8L449.4-77.2z"/>
					<path class="st1" d="M443.4-41.2l-6.6,38c-0.2,0-0.5,0-0.7,0C429-3.9,409.6-31,411.2-47.6c1-10.6,7.2-19.4,15.8-23.9
						c0.6,0.3,1.3,0.5,1.9,0.6c2.5,0.5,4.8,0.1,6.7-0.6c0.1,0,0.2-0.1,0.3-0.1l-8.6,32.8L443.4-41.2z"/>
					<path class="st8" d="M437.5-77.8l-0.6,2.3c-0.5-0.9-0.8-1.9-1-2.9C436.4-78.2,436.9-78,437.5-77.8z"/>
					<path class="st8" d="M436.9-75.4l-0.2,0.8l-0.8,3c-0.1,0-0.2,0.1-0.3,0.1c-1.9,0.7-4.2,1.2-6.7,0.6c-0.7-0.1-1.3-0.3-1.9-0.6
						c-0.6-0.3-1.2-0.6-1.8-0.9c-3.9-2.3-6.6-6.5-5.6-10.2c1.7-6.1,13.2-7.1,14.3-5.1c0.7,1.3-3.1,3.5-2.7,6.6
						c0.3,1.8,2.3,2,4.7,2.8C436-77.4,436.3-76.3,436.9-75.4z"/>
				</g>
			</g>
		</g>
	</g>
	<g>
		<path class="st1" d="M372.8-85.5c-0.5-0.8-0.3-1.7,0.2-2.5c0.7-0.9,1.9-1.3,3.1-0.3c1.3,1,1.1,2.4,0.4,3.2c-1.1,1.4-3,1.5-4.6,0.2
			c-4-3.2-2.5-8.9,0.8-13.1c2.6-3.3,6.4-5.8,9.2-3.5c2.1,1.7,1.7,4.1,0.3,6.6c2.2-2.4,4.6-3.8,7-1.9c2.6,2.1,1.8,5.5-1.5,9.6
			l-3.5,4.3l-6.9-5.6c-3.6-2.9-3.7-5.7-2.2-8.7l0.5,0.1c0,1.2,0.8,1.8,1.5,2.4l2.9,2.3c1.5-2,1-3.8-1-5.3c-2.1-1.7-4.2-1.2-6.3,1.4
			c-2.8,3.5-3.1,8.2-0.2,10.5C372.6-85.6,372.7-85.5,372.8-85.5z M387.1-87.6c1.7-2.1,0.8-3.7-1.1-5.2c-2-1.6-3.7-1.3-5.1,0.5
			l-0.3,0.4l6.1,4.9L387.1-87.6z"/>
		<path class="st1" d="M393.9-100.7c2.1,2.1,3.6,2.2,5.1,1c1.8-1.5,2-4.2,0.6-7.5l0.6-0.3c2,4.4,1.3,7.4-1.8,10
			c-2.7,2.1-6.5,2.5-9.3-1.1c-2.8-3.6-1.5-7.1,0.9-9.1c2.4-1.9,4.8-2.2,6.5-0.1c1.8,2.3,0.4,4.8-1.8,6.6
			C394.3-101.1,394.1-100.9,393.9-100.7z M393.5-101.2c1.4-1.2,0.8-3-0.4-4.5c-1.1-1.4-1.9-1.8-2.4-1.4c-0.7,0.5-0.3,2,2.1,4.9
			C392.9-101.8,393.2-101.5,393.5-101.2z"/>
		<path class="st1" d="M397.8-113c1.5-0.8,2.5-0.8,3.3-0.2c0-1.3,0.6-2.4,1.8-3c1.7-0.9,3.4-0.3,4.4,1.5c0.9,1.7,0.3,3.1-0.8,3.7
			c-1.1,0.6-2.4,0.2-3-0.9c-0.6-1.1-0.2-2.3,0.9-2.9c0.8-0.4,1.5-0.3,2,0.1c-0.9-1.2-2-1.4-3.1-0.8c-1.2,0.7-2,2-0.7,4.4l4.1,7.4
			l-4,2.2l-6-10.9L397.8-113z"/>
		<path class="st1" d="M409.3-119c1.6-0.6,2.6-0.4,3.3,0.3c0.2-1.3,1-2.3,2.3-2.7c1.8-0.6,3.4,0.2,4.1,2.2c0.6,1.8-0.2,3.1-1.4,3.5
			c-1.2,0.4-2.4-0.1-2.8-1.4c-0.4-1.2,0.1-2.3,1.3-2.7c0.8-0.3,1.5-0.1,2,0.4c-0.7-1.3-1.8-1.7-3-1.3c-1.3,0.5-2.3,1.6-1.4,4.2
			l2.8,8l-4.4,1.5l-4.1-11.7L409.3-119z"/>
		<path class="st1" d="M427.3-111.7l-0.6,0.1c-2.4,0.4-4.5-0.3-5.1-4l-1.2-7.3l1.3-0.2c2.4-0.4,3.5,0.6,3.8,2.6l1,6.1
			c0.2,1.2,0.6,2.1,1.5,1.9c0.9-0.1,1.1-1,0.8-2.6l-1.4-8.8l4.6-0.7l2.1,12.9c0.6,3.6-2.2,5.7-5.3,6.2c-2.5,0.4-4.9,0.2-5.3-1.9
			c-0.3-2.1,2.5-3.5,3.9-3.9L427.3-111.7z M429.3-112.3l-0.3,0.2c-1.4,1-2,1.8-1.7,4c0.2,1.2,0.7,2,1.6,1.8c0.9-0.1,1.2-0.9,0.9-2.4
			L429.3-112.3z"/>
		<path class="st1" d="M441.4-117c0.4-3.1,3.1-3.8,5.7-3.9c-2.5-0.7-4.4-2.2-4.1-5c0.3-2.6,2.6-4.7,6.8-4.2c3.7,0.4,5.1,2.5,4.9,4.9
			c-0.2,1.6-1.3,2.4-2.7,2.3c-1.4-0.2-2.1-1.1-2-2.4c0.2-1.3,1.2-2,2.4-1.8c0.6,0.1,1.1,0.3,1.3,0.7c-0.1-1.4-1.4-2.3-2.7-2.4
			c-1.8-0.2-3.2,1-3.5,3.1c-0.3,2.6,1.2,4.5,4.4,4.8l-0.1,0.9c-3-0.3-4.4,1.2-4.7,3.6c-0.2,2,0.6,3.3,2.4,3.5c2,0.2,4.1-1.3,5.5-4.9
			l0.6,0.2c-1.4,3.7-3.7,6.3-8.2,5.8C444-112.2,441.1-113.9,441.4-117z"/>
		<path class="st1" d="M463.6-115.2c-1.7,3.2-3.5,5.9-6.6,5.2c-2.7-0.7-3.4-2.2-2.7-4.9l3.6-13.9l1.5,0.4c2.1,0.6,2.8,1.6,2.3,3.6
			l-3.2,12.3c-0.2,0.8-0.1,1.3,0.5,1.5c0.7,0.2,2-0.7,4-4.4L463.6-115.2z"/>
		<path class="st1" d="M466.4-112.6c-0.8,2.8-0.2,4.2,1.6,5c2.2,0.9,4.6-0.2,6.9-3.2l0.5,0.4c-2.9,3.9-5.9,4.8-9.6,3.2
			c-3.2-1.3-5.3-4.4-3.6-8.7c1.8-4.2,5.5-4.8,8.4-3.6c2.8,1.2,4.3,3.1,3.2,5.6c-1.1,2.7-3.9,2.7-6.6,1.6
			C466.8-112.3,466.6-112.5,466.4-112.6z M466.5-113.2c1.8,0.7,3-0.8,3.7-2.6c0.7-1.6,0.6-2.6,0-2.8c-0.8-0.3-1.9,0.7-3.3,4.2
			C466.8-114,466.7-113.5,466.5-113.2z"/>
		<path class="st1" d="M474.1-111.1c2.4-3.8,6.4-3.6,9.1-1.9c2.7,1.7,3.1,4.1,1.9,6.1c-0.9,1.4-2.3,1.8-3.5,1.1
			c-1.1-0.7-1.4-1.9-0.7-3c0.7-1.2,2-1.4,3-0.7c0.6,0.4,0.9,0.9,0.9,1.4c0.5-1.4,0.1-2.6-1-3.3c-1.5-1-3.5-0.1-5.5,3.2
			c-1.8,2.8-2,5.1,0,6.4c1.5,1,3.8,0.9,7.3-2l0.4,0.5c-4.4,3.6-7.1,3.3-10,1.5C473.1-103.8,471.7-107.3,474.1-111.1z"/>
		<path class="st1" d="M493.7-103.2l-1.4-1.2l-5.9,6.8c-0.6,0.7-0.6,1.1-0.2,1.5c0.7,0.6,2.8,0.3,5.8-1.9l0.3,0.5
			c-2.8,2.1-5.9,3.6-8.4,1.4c-1.8-1.6-2.1-3.4-0.2-5.6l5-5.8l-1.1-1l0.6-0.8l1.1,1l2.7-3.2l1,0.9c1.9,1.6,1.9,2.8,0.6,4.4l-0.8,1
			l1.4,1.2L493.7-103.2z"/>
		<path class="st1" d="M497.6-101c1.1,1.3,1.4,2.3,0.9,3.2c1.3-0.3,2.5,0.1,3.3,1.1c1.3,1.5,1,3.3-0.5,4.6c-1.4,1.3-3,1-3.8,0
			c-0.8-1-0.7-2.2,0.2-3.1c0.9-0.8,2.2-0.7,3,0.2c0.6,0.7,0.6,1.4,0.4,2c0.9-1.1,0.9-2.3,0.1-3.2c-0.9-1-2.4-1.5-4.5,0.2l-6.4,5.6
			l-3-3.5l9.3-8.2L497.6-101z"/>
		<path class="st1" d="M504.3-81.3c-3.1,1.1-6.2,2-8-0.7c-1.6-2.4-0.8-4.1,1.4-5.5l7.1-4.7l1,1.5c1.1,1.6,1,2.7-0.7,3.8l-6.1,4
			c-0.7,0.4-1,0.9-0.6,1.4c0.4,0.6,1.9,0.9,5.6-0.5L504.3-81.3z M507.3-91.2c-0.8-1.2-0.7-2.8,0.6-3.6c1.3-0.8,2.8-0.3,3.6,0.9
			c0.8,1.2,0.7,2.8-0.6,3.6C509.6-89.5,508.1-90,507.3-91.2z"/>
		<path class="st1" d="M512.6-77.9c-0.8-1.7-2.9-2-6.4-0.3c-3,1.4-4.4,3.3-3.5,5.3c0.6,1.3,2.3,2.1,4.4,2.1v0.7
			c-3.3,0.1-5.1-1.2-6.3-3.8c-1.5-3.2-0.7-6.9,3.3-8.8c4.1-1.9,7.3,0.4,8.7,3.3c1.4,2.9,0.4,5.1-1.8,6.2c-1.3,0.6-2.7,0.3-3.3-1
			c-0.6-1.2-0.2-2.3,1-2.9c1.1-0.5,2.3-0.1,2.8,1c0.3,0.6,0.3,1.1,0.1,1.6C512.8-75.7,513-77,512.6-77.9z"/>
	</g>
	<g>
		<g>
			<path class="st9" d="M130.2,50.5c58.8,0,106.5,47.7,106.5,106.5S189,263.5,130.2,263.5S23.7,215.8,23.7,157S71.4,50.5,130.2,50.5
				"/>
		</g>
		<defs>
			<filter id="Adobe_OpacityMaskFilter" filterUnits="userSpaceOnUse" x="23.7" y="50.5" width="213" height="213">
				<feFlood  style="flood-color:white;flood-opacity:1" result="back"/>
				<feBlend  in="SourceGraphic" in2="back" mode="normal"/>
			</filter>
		</defs>
		<mask maskUnits="userSpaceOnUse" x="23.7" y="50.5" width="213" height="213" id="SVGID_1_">
			<g class="st10">
				
					<image style="overflow:visible;" width="218" height="218" xlink:href="4E1DE05179274923.jpg"  transform="matrix(1 0 0 1 21.41 48.3297)">
				</image>
			</g>
		</mask>
		<g class="st11">
			<path class="st12" d="M130.2,50.5c58.8,0,106.5,47.7,106.5,106.5S189,263.5,130.2,263.5S23.7,215.8,23.7,157
				S71.4,50.5,130.2,50.5"/>
		</g>
	</g>
	<g>
		<circle class="st2" cx="792" cy="48.7" r="98.8"/>
		<g>
			<g id="XMLID_6_">
				<g>
					<path class="st3" d="M826.3,11c14.4,11.6,22.9,30.4,20.9,50.7c-2.8,29.4-43.2,69.3-59.7,73.6l36.2-93.1l-28.8,4.1l12.2-43.6
						c0,0.4-0.1,1.2,0,1.3c2.5,2.9,6.3,4.7,11.1,6.1c2.5,0.7,5.1,1,7.7,0.9C826.1,11,826.2,11,826.3,11z"/>
					<path class="st8" d="M825.2-22.5c3.7-2.3,22.1,9.8,19.4,21.6C843,6,834.8,10.5,826.3,11c-0.1,0-0.3,0-0.4,0
						c-2.6,0.1-5.3-0.2-7.7-0.9c-4.7-1.4-8.6-3.1-11.1-6.1c-0.1-0.1-0.1-0.9,0-1.3c0,0,0,0,0-0.1l0.4-1.5V1V0.9l0.2-0.8
						c2.4-1.3,4.3-3.2,5.8-5.4c4.4-0.1,8-1.1,10-3.7C827.2-13.9,822.8-21,825.2-22.5z"/>
					<path class="st8" d="M816-25.9c2.7,5.9,1.8,14.5-2.3,20.6c-1.3,0-2.7,0-4.1-0.2l-1.7,5.6l0,0l6.6-23.5L790.4-20l-3.5,13.4
						c-1-0.4-2.1-0.8-3.1-1.1c-0.5-2.4-0.5-4.7-0.6-6.2C782.6-23.4,802.5-55.6,816-25.9z"/>
					<path class="st8" d="M809.6-5.5c1.4,0.1,2.8,0.2,4.1,0.2c-1.5,2.2-3.4,4.1-5.8,5.4L809.6-5.5z"/>
					<path class="st1" d="M798.1,63.2l-12.5,72.4c-0.5,0-0.9,0-1.3,0c-13.6-1.3-50.7-53.1-47.6-84.7c1.9-20.2,13.8-37,30.1-45.7
						c1.2,0.5,2.5,0.9,3.7,1.2c4.8,1,9.2,0.2,12.8-1.2c0.2-0.1,0.4-0.2,0.6-0.2l-16.6,62.6L798.1,63.2z"/>
					<path class="st8" d="M786.8-6.6l-1.2,4.4c-1-1.7-1.5-3.7-1.9-5.5C784.7-7.4,785.8-7,786.8-6.6z"/>
					<path class="st8" d="M785.6-2.2l-0.4,1.5L783.7,5c-0.1,0.1-0.4,0.2-0.6,0.2c-3.6,1.4-7.9,2.3-12.8,1.2
						c-1.2-0.3-2.5-0.7-3.7-1.2s-2.4-1.1-3.5-1.7c-7.4-4.4-12.7-12.4-10.7-19.4c3.3-11.7,25.2-13.5,27.4-9.7
						c1.4,2.5-5.9,6.7-5.1,12.6c0.5,3.4,4.4,3.9,9,5.3C784.1-5.8,784.7-3.9,785.6-2.2z"/>
				</g>
			</g>
		</g>
	</g>
	<path id="SVGID_x5F_1_x5F_" class="st13" d="M921.2,56.1c0,71.4-57.9,129.2-129.2,129.2S662.8,127.5,662.8,56.1
		S720.6-73.1,792-73.1S921.2-15.2,921.2,56.1z"/>
	<text transform="matrix(1 0 0 1 4.211426e-03 25.8848)" class="st14 st15"> </text>
	<text transform="matrix(1 0 0 1 4.211426e-03 25.8848)" class="st14 st15"> </text>
	<circle class="st8" cx="324.5" cy="-173.7" r="11.8"/>
	<g>
		<path class="st1" d="M476.9,164.9c0.3-0.9,1.1-1.4,2.1-1.4c1.2,0,2.2,0.7,2.2,2.2c0,1.7-1.2,2.3-2.3,2.3c-1.8,0-3.1-1.4-3.1-3.5
			c0-5.2,5.4-7.6,10.8-7.6c4.2,0,8.6,1.3,8.6,5c0,2.7-2.1,3.9-5,4.4c3.3,0.2,5.9,1.2,5.9,4.3c0,3.3-3.1,4.9-8.4,4.9h-5.6v-8.9
			c0-4.6,2.1-6.5,5.4-7.3l0.2,0.4c-0.9,0.7-0.9,1.7-0.9,2.7v3.9c2.5-0.1,3.5-1.6,3.5-4.1c0-2.7-1.7-4.1-5.1-4.1
			c-4.5,0-8.4,2.8-8.4,6.4C476.8,164.7,476.8,164.8,476.9,164.9z M487.6,174.8c2.7,0,3.4-1.7,3.4-4.2s-1.3-3.7-3.6-3.7h-0.5v7.9
			H487.6z"/>
		<path class="st1" d="M502.2,170.4c0.3,2.9,1.5,4,3.4,4c2.4,0,4.2-2,5.2-5.6l0.6,0.1c-1.2,4.7-3.6,6.7-7.7,6.7
			c-3.4,0-6.7-2-6.7-6.7s3.3-6.6,6.4-6.6s5.2,1.2,5.2,4c0,3-2.6,4-5.5,4C502.7,170.4,502.4,170.4,502.2,170.4z M502.1,169.8
			c1.9,0,2.5-1.8,2.5-3.8c0-1.8-0.4-2.6-1-2.6c-0.8,0-1.4,1.4-1.4,5.2C502.1,168.9,502.1,169.4,502.1,169.8z"/>
		<path class="st1" d="M511.6,162.8c1.7,0,2.6,0.5,3,1.4c0.6-1.2,1.7-1.8,3-1.8c2,0,3.1,1.4,3.1,3.4c0,1.9-1.2,2.9-2.5,2.9
			s-2.2-0.9-2.2-2.2c0-1.2,0.9-2.1,2.2-2.1c0.9,0,1.5,0.4,1.8,1c-0.2-1.5-1.1-2.2-2.4-2.2c-1.4,0-2.7,0.8-2.8,3.5v8.6h-4.5v-12.5
			H511.6z"/>
		<path class="st1" d="M523.3,162.8c1.7,0,2.6,0.5,3,1.4c0.6-1.2,1.7-1.8,3-1.8c2,0,3.1,1.4,3.1,3.4c0,1.9-1.2,2.9-2.5,2.9
			s-2.2-0.9-2.2-2.2c0-1.2,0.9-2.1,2.2-2.1c0.9,0,1.5,0.4,1.8,1c-0.2-1.5-1.1-2.2-2.4-2.2c-1.4,0-2.7,0.8-2.8,3.5v8.6h-4.6v-12.5
			H523.3z"/>
		<path class="st1" d="M538.7,175h-0.6c-2.4,0-4.5-1-4.5-4.8v-7.5h1.3c2.5,0,3.3,1.1,3.3,3.1v6.2c0,1.3,0.2,2.1,1.2,2.1
			s1.2-0.9,1.2-2.5v-9h4.7v13.1c0,3.6-3,5.3-6.3,5.3c-2.6,0-4.9-0.6-4.9-2.8c0-2.1,3-3.1,4.5-3.3L538.7,175z M540.8,174.7l-0.3,0.2
			c-1.5,0.8-2.3,1.5-2.3,3.7c0,1.2,0.4,2.1,1.3,2.1c0.9,0,1.3-0.7,1.3-2.2V174.7z"/>
		<path class="st1" d="M553.6,171.1c0-3.1,2.6-4.2,5.3-4.5c-2.5-0.4-4.7-1.7-4.7-4.6c0-2.6,2.1-5,6.3-5c3.7,0,5.4,1.9,5.4,4.3
			c0,1.6-1,2.6-2.4,2.6c-1.4,0-2.2-0.9-2.2-2.2c0-1.3,1-2.1,2.2-2.1c0.6,0,1.1,0.2,1.4,0.6c-0.3-1.4-1.6-2.1-3-2.1
			c-1.9,0-3.1,1.4-3.1,3.5c0,2.6,1.8,4.3,4.9,4.3v0.9c-3,0-4.3,1.7-4.3,4.1c0,2,1,3.2,2.8,3.2c2,0,3.9-1.7,4.9-5.5l0.7,0.2
			c-1,3.8-3,6.7-7.5,6.7C556.8,175.6,553.6,174.3,553.6,171.1z"/>
		<path class="st1" d="M575.9,169c-0.8,3.5-1.9,6.7-5.1,6.7c-2.8,0-3.8-1.3-3.8-4.1V157h1.6c2.2,0,3.1,0.9,3.1,2.9v12.8
			c0,0.8,0.2,1.3,0.8,1.3c0.7,0,1.8-1.1,2.8-5.3L575.9,169z"/>
		<path class="st1" d="M579.2,170.4c0.3,2.9,1.5,4,3.4,4c2.4,0,4.2-2,5.2-5.6l0.6,0.1c-1.2,4.7-3.6,6.7-7.7,6.7
			c-3.4,0-6.7-2-6.7-6.7s3.3-6.6,6.4-6.6c3.1,0,5.2,1.2,5.2,4c0,3-2.6,4-5.5,4C579.7,170.4,579.4,170.4,579.2,170.4z M579.1,169.8
			c1.9,0,2.5-1.8,2.5-3.8c0-1.8-0.4-2.6-1-2.6c-0.8,0-1.4,1.4-1.4,5.2C579.1,168.9,579.1,169.4,579.1,169.8z"/>
		<path class="st1" d="M586.6,168.9c0-4.6,3.5-6.5,6.7-6.5s4.9,1.8,4.9,4.2c0,1.6-0.9,2.8-2.4,2.8c-1.3,0-2.2-0.8-2.2-2.2
			c0-1.4,1-2.2,2.2-2.2c0.7,0,1.2,0.3,1.5,0.7c-0.3-1.5-1.4-2.3-2.6-2.3c-1.8,0-3,1.8-3,5.7c0,3.4,1.1,5.4,3.4,5.4
			c1.8,0,3.7-1.4,5.2-5.6l0.6,0.2c-1.8,5.4-4.2,6.7-7.6,6.7C589.6,175.6,586.6,173.3,586.6,168.9z"/>
		<path class="st1" d="M606.6,163.8h-1.8v9.1c0,0.9,0.3,1.3,0.9,1.3c1,0,2.3-1.6,3.1-5.3l0.6,0.2c-0.7,3.4-2.1,6.6-5.4,6.6
			c-2.4,0-3.8-1.2-3.8-4.1v-7.7h-1.5v-1h1.5v-4.2h1.3c2.5,0,3.3,0.9,3.3,2.9v1.3h1.8V163.8z"/>
		<path class="st1" d="M609.8,162.8c1.7,0,2.6,0.5,3,1.4c0.6-1.2,1.7-1.8,3-1.8c2,0,3.1,1.4,3.1,3.4c0,1.9-1.2,2.9-2.5,2.9
			s-2.2-0.9-2.2-2.2c0-1.2,0.9-2.1,2.2-2.1c0.9,0,1.5,0.4,1.8,1c-0.2-1.5-1.1-2.2-2.4-2.2c-1.4,0-2.7,0.8-2.8,3.5v8.6h-4.6v-12.5
			H609.8z"/>
		<path class="st1" d="M622.4,161.3c-1.4,0-2.7-1-2.7-2.5s1.3-2.5,2.7-2.5s2.7,1,2.7,2.5C625.1,160.4,623.8,161.3,622.4,161.3z
			 M629,169.3c-0.8,3.2-1.8,6.3-5,6.3c-2.9,0-3.8-1.6-3.8-4.3v-8.6h1.8c2,0,2.8,0.6,2.8,2.7v7.3c0,0.8,0.2,1.3,0.8,1.3
			c0.8,0,1.8-1.1,2.7-4.9L629,169.3z"/>
		<path class="st1" d="M635.4,163.3c-1.9,0-3,1.8-3,5.7c0,3.4,1.1,5.4,3.3,5.4c1.5,0,2.9-1.2,3.8-3.1l0.6,0.2
			c-1.3,3-3.3,4.1-6.1,4.1c-3.5,0-6.6-2.3-6.6-6.8c0-4.6,3.5-6.5,6.7-6.5s4.9,1.8,4.9,4.3c0,1.5-0.9,2.6-2.3,2.6
			c-1.3,0-2.2-0.8-2.2-2.2c0-1.3,0.9-2.1,2.1-2.1c0.6,0,1.1,0.2,1.5,0.6C637.6,164.1,636.5,163.3,635.4,163.3z"/>
	</g>
	<circle class="st1" cx="370.4" cy="340.8" r="44.4"/>
	<polyline class="st0" points="554.2,350.3 564.2,307.2 552.9,310.5 556.7,281.5 547.3,284.2 543,320.6 555.1,317.1 554.2,350.3 	
		"/>
	<g>
		<path class="st1" d="M51.5,49.6l0.9,1.1c0.2,0.2,0.2,0.4,0.2,0.6c0,0.2-0.1,0.3-0.2,0.5c-0.1,0.1-0.3,0.2-0.4,0.1
			s-0.3-0.1-0.4-0.2c-0.1-0.1-0.2-0.3-0.3-0.5c-0.1-0.3-0.6-0.8-1.3-1.7l-6.5-7.8l-5.4,4.5l8.6,10.3l-5.5,4.5L28.6,45.7l5.5-4.5
			l3.3,4c1.5-1.3,2.8-2.3,3.7-3.1c0.9-0.8,1.5-1.2,1.7-1.4l-1.5-1.9c-0.5-0.6-0.9-1-1-1.2l-0.3-0.3c-0.1-0.1-0.2-0.2-0.2-0.2
			c-0.3-0.3-0.3-0.6,0-0.9c0.1-0.1,0.3-0.1,0.4-0.1c0.2,0,0.4,0.1,0.5,0.3l1.1,1.4l1.8,2.2l0.6-0.7c0.1-0.1,0.3-0.2,0.4-0.2
			s0.3,0.1,0.4,0.2c0.2,0.3,0.1,0.6-0.3,1c-0.1,0.1-0.1,0.2-0.2,0.2c-0.1,0.1-0.1,0.1-0.2,0.2L51.5,49.6z"/>
		<path class="st1" d="M56.8,45.3c-1.2-0.3-2.4-0.9-3.5-1.7c-1.1-0.8-2-1.9-2.8-3.2c-0.8-1.3-1.2-2.6-1.4-3.9
			C49,35.2,49,34,49.4,32.8c0.7-2.6,2.4-4.6,4.9-6.1c2.5-1.5,5-1.9,7.6-1.3c2.6,0.7,4.6,2.3,6.1,4.8c1.5,2.6,1.9,5.2,1.2,7.8
			c-0.4,1.6-1.3,3.1-2.6,4.4c-0.6,0.6-1.5,1.3-2.5,1.8c-1,0.6-2.1,1-3.4,1.2C59.4,45.6,58.1,45.6,56.8,45.3z M54.7,27.5
			c-0.4,0.3-0.8,0.5-1.2,0.8l9.1,15.4c0.4-0.2,0.8-0.4,1.3-0.6c2.1-1.3,3.5-3,4.1-5.3c0.7-2.4,0.3-4.7-1.1-7.1
			c-1.3-2.2-3.1-3.7-5.4-4.3C59.3,25.8,57,26.2,54.7,27.5z"/>
		<path class="st1" d="M82,14.3c0.2,0.4-0.2,0.8-1,1.1l-3,1.2L85,33.9l-6.6,2.6l-6.9-17.3L69.5,20c-0.7,0.3-1.1,0.5-1.3,0.6
			c-0.3,0.2-0.5,0.3-0.7,0.4c-0.4,0.2-0.7,0.1-0.9-0.3c-0.2-0.4,0.2-0.8,1-1.1l11.5-4.6c0.6-0.2,1-0.4,1.3-0.6
			c0.3-0.2,0.6-0.3,0.7-0.4C81.6,13.9,81.9,14,82,14.3z"/>
		<path class="st1" d="M107.3,8.1c0.1,0.4-0.3,0.7-1.2,0.9L103,9.7l3.8,18.2l-7,1.5L96,11.2l-2,0.4c-0.7,0.1-1.2,0.3-1.4,0.4
			c-0.3,0.1-0.6,0.2-0.7,0.3c-0.5,0.1-0.7,0-0.8-0.4c-0.1-0.4,0.3-0.7,1.2-0.9l12.1-2.5c0.6-0.1,1.1-0.3,1.4-0.4
			c0.3-0.1,0.6-0.2,0.8-0.3C107,7.7,107.3,7.8,107.3,8.1z"/>
		<path class="st1" d="M128.5,23.7l0.1,1.4c0,0.2,0,0.4-0.2,0.6c-0.1,0.1-0.3,0.2-0.5,0.2c-0.2,0-0.3,0-0.4-0.2
			c-0.1-0.1-0.2-0.3-0.2-0.4s0-0.4,0-0.6c0-0.3,0-1,0-2.2l-0.7-10.1l-7,0.5l0.9,13.4l-7.1,0.5l-1.3-19.6l7.1-0.5l0.4,5.2
			c2-0.1,3.6-0.2,4.8-0.3c1.2-0.1,1.9-0.1,2.2-0.2L126.5,9c-0.1-0.8-0.1-1.3-0.1-1.6L126.2,7c0-0.1,0-0.2,0-0.3
			c0-0.4,0.2-0.6,0.5-0.7c0.1,0,0.3,0,0.4,0.1c0.2,0.1,0.2,0.3,0.3,0.5l0.1,1.8l0.2,2.8l0.9-0.2c0.2,0,0.3,0,0.4,0.1
			c0.1,0.1,0.2,0.2,0.2,0.4c0,0.4-0.2,0.6-0.8,0.7c-0.1,0-0.2,0-0.3,0.1s-0.2,0-0.3,0L128.5,23.7z"/>
		<path class="st1" d="M134,6.3l7.1,0.3l-0.9,19.6l-7.1-0.3L134,6.3z"/>
		<path class="st1" d="M144.4,25.5c-0.3-0.2-0.5-0.5-0.7-0.7c-0.2-0.2-0.3-0.5-0.3-0.7c0.1-0.4,0.3-0.6,0.7-0.6
			c0.2,0,0.5,0.2,0.8,0.5c0.3,0.3,0.6,0.6,0.9,0.9c0.3,0.3,0.7,0.5,1.1,0.7c0.9,0.4,1.7,0.7,2.4,0.8c0.8,0.1,1.4,0.2,1.8,0.1
			c0.4,0,0.8-0.1,1.1-0.3c0.7-0.3,1-0.7,1.1-1.3c0.1-0.5-0.1-1.1-0.5-1.8c-0.4-0.5-0.9-1.2-1.6-2l-2.1-2.2c-2.1-2.2-3.2-4-3.4-5.6
			c-0.1-0.5-0.1-1.1,0-1.8c0.1-0.6,0.3-1.2,0.7-1.8c0.4-0.6,0.9-1.1,1.5-1.4c1.4-0.8,3.1-1.1,5.2-0.8c1.1,0.2,2,0.5,2.8,0.9
			c0.8,0.4,1.3,0.8,1.6,1.1c0.3,0.3,0.4,0.5,0.4,0.7c-0.1,0.4-0.3,0.6-0.6,0.6c-0.2,0-0.4-0.2-0.6-0.4c-0.2-0.2-0.4-0.5-0.7-0.6
			s-0.6-0.4-0.9-0.5c-0.7-0.4-1.5-0.6-2.2-0.7c-1.4-0.2-2.1,0.1-2.2,1c-0.1,0.4,0,0.7,0.2,1.1c0.4,0.6,1.1,1.6,2.2,2.8
			c1.1,1.2,2,2.3,2.7,3.2s1.1,1.7,1.4,2.4c0.5,1.1,0.7,2.1,0.5,3.2s-0.5,1.9-1,2.6c-0.5,0.7-1.1,1.2-1.8,1.7
			c-1.6,0.9-3.4,1.2-5.5,0.9C147.4,27.3,145.7,26.6,144.4,25.5z"/>
		<path class="st1" d="M195.3,21c0,0.1-0.1,0.3-0.3,0.4c-0.4,0.5-0.8,0.9-1.1,1.3l-13.2,14.1L180,24l-9.2,9l-0.5-22l7.1,2.7l0,11.1
			l8.9-8.7l0.6,12.3l6.1-6.4c0.2-0.2,0.4-0.5,0.6-0.7l0.5-0.7c0.2-0.4,0.5-0.5,0.8-0.3S195.5,20.6,195.3,21z"/>
		<path class="st1" d="M201.4,45.4c0.4,0.2,0.5,0.5,0.3,0.8c-0.1,0.1-0.2,0.2-0.5,0.2c-0.2,0-0.6-0.1-1-0.4L190,40.3l9.8-17
			c3.2,1.8,6.3,3.6,9.5,5.5l1,0.5c0.6,0.3,0.8,0.7,0.6,1c-0.1,0.1-0.2,0.2-0.4,0.3c-0.2,0.1-0.3,0.1-0.4,0c-0.2-0.1-0.4-0.3-0.6-0.5
			c-0.3-0.3-0.8-0.6-1.4-0.9l-2.7-1.5l-2.1,3.7l2.2,1.3l1.5,0.8c0.2,0.1,0.3,0.2,0.4,0.4s0.1,0.3,0,0.5c-0.2,0.3-0.5,0.4-1,0.1
			l-0.5-0.3c-0.2-0.2-0.5-0.3-0.6-0.4l-2.4-1.4l-6.2,10.7l2.7,1.5c0.6,0.3,1,0.6,1.3,0.7C200.9,45.2,201.2,45.3,201.4,45.4z"/>
		<path class="st1" d="M214.4,55c0.4,0.3,0.5,0.6,0.2,0.9c-0.1,0.1-0.3,0.2-0.5,0.2s-0.6-0.2-1-0.5l-9.4-7.1l11.8-15.7
			c2.9,2.2,5.8,4.4,8.7,6.6l0.9,0.7c0.6,0.4,0.7,0.8,0.5,1.1c-0.1,0.1-0.2,0.2-0.4,0.2c-0.2,0-0.3,0-0.4-0.1
			c-0.2-0.1-0.4-0.3-0.6-0.5c-0.3-0.3-0.7-0.7-1.2-1.1l-2.4-1.8l-2.5,3.4l2,1.5l1.4,1c0.2,0.1,0.3,0.3,0.3,0.4
			c0.1,0.2,0,0.3-0.1,0.5c-0.2,0.3-0.6,0.3-1,0l-0.5-0.4c-0.2-0.2-0.4-0.4-0.6-0.5l-2.3-1.7l-7.5,9.9l2.4,1.8c0.5,0.4,1,0.7,1.2,0.8
			C214,54.7,214.2,54.9,214.4,55z"/>
		<path class="st1" d="M230.4,44.4l5,5l-4,4.1l6.1,0.8c0.9,0.1,1.5,0.2,2,0.2c0.5,0,0.7,0,0.8,0c0.1,0,0.2,0,0.3,0
			c0.1,0,0.3,0.1,0.4,0.2s0.2,0.3,0.2,0.4s0,0.3-0.1,0.3c-0.1,0.1-0.2,0.1-0.2,0.2s-0.2,0.1-0.3,0.1c-0.3,0-0.8,0-1.4-0.1l-3.9-0.5
			L230,67.8c-0.1,0.2-0.2,0.5-0.2,0.7l-0.2,0.5l-0.2,0.5c0,0.1-0.1,0.3-0.1,0.4s-0.1,0.2-0.2,0.3s-0.2,0.1-0.3,0.1
			c-0.2,0.1-0.4,0-0.5-0.1c-0.2-0.2-0.3-0.4-0.3-0.6c0-0.3,0.1-0.5,0.2-0.7l0.4-0.7c0.1-0.2,0.3-0.5,0.4-0.9l5.1-12.3l-3.6-0.5
			l-8.8,8.9l-5-5L230.4,44.4z"/>
	</g>
	<path class="st2" d="M-148.4,565.3l-46.7,120.2c-0.9,0.3-1.7,0.4-2.5,0.5l16-93.5l-39.8,5.7l21.3-80.8h0.1l1.8-7.2l1.9-7.6
		l4.5-17.3l31.1-4.4l-8.8,31.4v0.1v0.1l-0.5,1.7c0,0,0,0.1,0,0.3c0,0,0,0,0,0.1l-15.8,56.3L-148.4,565.3z"/>
	<circle class="st2" cx="-196" cy="361.3" r="130.2"/>
	<g>
		<g id="XMLID_10_">
			<g>
				<path class="st3" d="M-160.9,322.6c14.7,12,23.6,31.3,21.4,51.9c-2.9,30.1-44.2,71.2-61.3,75.5l37.3-95.5l-29.6,4.1l12.5-44.7
					c0,0.5,0,1.2,0,1.4c2.4,3.1,6.5,4.8,11.3,6.3c2.4,0.7,5.3,1,7.9,1C-161.2,322.6-160.9,322.6-160.9,322.6z"/>
				<path class="st8" d="M-161.9,288.2c3.8-2.4,22.6,10.1,20,22.1c-1.7,7-10.1,11.8-18.8,12.3c-0.2,0-0.2,0-0.5,0
					c-2.6,0-5.3-0.2-7.9-1c-4.8-1.4-8.9-3.1-11.3-6.3c0-0.2,0-1,0-1.4l0,0l0.5-1.4v-0.2l0,0l0.2-0.7c2.4-1.4,4.3-3.4,6-5.5
					c4.6,0,8.2-1.2,10.3-3.8C-160,297.1-164.5,289.6-161.9,288.2z"/>
				<path class="st8" d="M-170.8,286.5c1.9,5.8,0.7,13.7-3.1,19.2c-1.4,0-2.6,0-4.1-0.2l-1.7,5.8l0,0l6.7-24L-170.8,286.5z"/>
				<path class="st8" d="M-170.8,286.5l-2.4,0.7l-24.8,3.6l-3.6,13.7c-1-0.5-2.2-0.7-3.1-1.2c-0.5-2.4-0.5-4.8-0.7-6.3
					c-0.2-9.9,20.2-42.8,33.9-12.3C-171.3,285.3-171,286-170.8,286.5z"/>
				<path class="st8" d="M-178,305.7c1.4,0.2,2.9,0.2,4.1,0.2c-1.4,2.4-3.6,4.3-6,5.5L-178,305.7z"/>
				<path class="st1" d="M-189.8,376.2l-12.7,74.3c-0.5,0-1,0-1.4,0c-13.9-1.4-51.9-54.3-48.8-86.8c1.9-20.9,14.2-38,30.8-46.9
					c1.2,0.5,2.4,1,3.8,1.2c5,1,9.4,0.2,13-1.2c0.2,0,0.5-0.2,0.5-0.2l-16.8,64.2L-189.8,376.2z"/>
				<path class="st8" d="M-201.3,304.5l-1.2,4.6c-1-1.7-1.7-3.8-1.9-5.8C-203.5,303.8-202.5,304.1-201.3,304.5z"/>
				<path class="st8" d="M-202.5,309.1l-0.5,1.4l-1.4,5.8c-0.2,0-0.5,0.2-0.5,0.2c-3.6,1.4-8.2,2.4-13,1.2c-1.2-0.2-2.6-0.7-3.8-1.2
					c-1.2-0.5-2.4-1.2-3.6-1.7c-7.7-4.6-13-12.7-11.1-20c3.4-12,25.7-13.9,28.1-9.9c1.4,2.6-6,6.7-5.3,13c0.5,3.6,4.6,4.1,9.1,5.3
					C-204.2,305.3-203.5,307.4-202.5,309.1z"/>
			</g>
		</g>
	</g>
	<text transform="matrix(1 0 0 1 -326.2487 231.0712)" class="st14 st15"> </text>
	<text transform="matrix(1 0 0 1 -326.2487 231.0712)" class="st14 st15"> </text>
	<path id="SVGID_x5F_2_x5F_" class="st13" d="M-196,231.1c71.9,0,130.2,58.3,130.2,130.2S-124.1,491.5-196,491.5
		s-130.2-58.3-130.2-130.2S-268,231.1-196,231.1z"/>
	<text>	<textPath  xlink:href="#SVGID_x5F_2_x5F_" startOffset="117.0573%">
<tspan  class="st1" style="font-family:'Limelight-Regular'; font-size:28.4065px;">HOT THIS WEEK</tspan>	</textPath>
</text>
	<g id="XMLID_9_">
		<g>
			<path class="st8" d="M124.7,101.8L124.7,101.8c-0.9-0.4-2-0.6-2.9-1c0,0,0-0.1,0-0.1C122.7,101.2,123.6,101.4,124.7,101.8z"/>
			<path class="st8" d="M152.6,103.3c4.6,0,8.2-1.2,10.3-3.8c3.4-5.1-1.2-12.5,1.4-13.9c3.8-2.4,22.6,10.1,20,22.1
				c-1.7,7-10.1,11.8-18.8,12.3c-0.1,0-0.2,0-0.2,0s-0.1,0-0.2,0c-0.3,0-0.7,0-1,0c-2.3-0.1-4.6-0.3-6.9-0.9
				c-4.8-1.5-8.9-3.1-11.3-6.2c0-0.2,0-1,0-1.5l0.5-1.4v-0.2l0.2-0.7c0.7-0.4,1.3-0.8,1.9-1.3c0.9-0.7,1.8-1.4,2.5-2.3
				c0.1-0.1,0.1-0.1,0.2-0.2C151.7,104.5,152.2,103.9,152.6,103.3z"/>
			<path class="st8" d="M155.5,83.9l-2.4,0.7l-24.8,3.6l-3.6,13.6c-1.1-0.4-2-0.7-2.9-1.1c-0.1,0-0.2,0-0.2-0.1
				c-0.5-2.4-0.5-4.7-0.7-6.2c-0.2-9.8,20.2-42.8,33.9-12.3C155,82.7,155.3,83.4,155.5,83.9L155.5,83.9z"/>
			<path class="st8" d="M148.5,107.6c0.9-0.7,1.7-1.5,2.5-2.3C150.3,106.1,149.4,106.9,148.5,107.6z"/>
			<path class="st8" d="M123.8,106.5l-0.5,1.4l-1.4,5.8c-0.2,0-0.5,0.2-0.5,0.2c-0.3,0.1-0.6,0.2-0.9,0.4c-3.4,1.2-7.6,1.9-12,0.8
				c-1.2-0.2-2.6-0.7-3.8-1.2c-1.2-0.5-2.4-1.2-3.6-1.7c-7.7-4.6-13-12.8-11.1-20c3.4-12,25.7-13.9,28.1-9.9c1.4,2.7-6,6.7-5.3,13
				c0.5,3.5,4.4,4.1,8.9,5.2c0,0,0,0.1,0,0.1c0.1,0,0.2,0.1,0.3,0.1C122.1,102.7,122.8,104.8,123.8,106.5z"/>
			<polygon class="st8" points="147.7,104.8 146.6,108.6 147.5,105.6 			"/>
			<path class="st8" d="M125,101.9l-1.2,4.6c-0.9-1.7-1.7-3.8-1.9-5.7c0.9,0.4,2,0.7,2.9,1.1l0-0.1
				C124.8,101.8,124.9,101.9,125,101.9z"/>
			<path class="st3" d="M186.8,171.9c-2.9,30.1-44.2,71.2-61.3,75.5l37.3-95.4l-29.6,4.1l12.5-44.7c0,0.5,0,1.2,0,1.5
				c2.4,3.1,6.5,4.8,11.3,6.2c2.2,0.6,4.8,0.9,7.2,0.9c0.3,0,0.7,0,1,0c0.1,0,0.2,0,0.2,0C180,132,188.9,151.2,186.8,171.9z"/>
			<path class="st2" d="M121.4,113.9c0,0,0.2-0.2,0.5-0.2l1.4-5.8l0.5-1.4l1.2-4.6c-0.1,0-0.1-0.1-0.2-0.1l3.6-13.6l24.8-3.6
				l2.4-0.7l-2.1,0.7l-5.9,21l-1.1,3.3c0.7-0.4,1.5-0.8,2.1-1.3c-0.6,0.5-1.2,0.9-1.9,1.3l-0.2,0.7v0.2l-0.5,1.4c0,0.5,0,1.2,0,1.5
				c2.4,3.1,6.5,4.8,11.3,6.2c2.3,0.6,4.6,0.9,6.9,0.9c-2.4,0-5-0.3-7.2-0.9c-4.8-1.5-8.9-3.1-11.3-6.2c0-0.2,0-1,0-1.5L133.1,156
				l29.6-4.1l-37.3,95.4l-1.6-0.3l12.6-73.5l-31.7,4.6l16.8-64.2c0,0-0.2,0.2-0.5,0.2c-0.2,0.1-0.4,0.2-0.7,0.2l0-0.1
				C120.7,114.2,121,114,121.4,113.9z"/>
			<path class="st8" d="M151,105.2c-0.8,0.8-1.6,1.6-2.5,2.3c-0.7,0.5-1.4,1-2.1,1.3l1.1-3.3l-0.9,3l1.1-3.8l0.6-1.7
				c1.4,0.2,2.9,0.2,4.1,0.2c-0.4,0.6-0.8,1.2-1.2,1.7C151.1,105.1,151.1,105.2,151,105.2z"/>
			<path class="st8" d="M155.5,83.9c1.9,5.8,0.7,13.7-3.1,19.2c-1.4,0-2.6,0-4.1-0.2l-0.6,1.9l-0.3,0.8l5.9-21L155.5,83.9
				L155.5,83.9z"/>
			<path class="st1" d="M104.8,178.1l31.7-4.6l-12.6,73.5l-0.1,0.8c-0.5,0-1,0-1.4,0c-13.9-1.4-51.9-54.3-48.8-86.8
				c1.9-20.9,14.2-38,30.8-46.9c1.2,0.5,2.4,1,3.9,1.2c4.8,0.9,8.9,0.3,12.3-1c0.2-0.1,0.4-0.2,0.7-0.2c0.2,0,0.5-0.2,0.5-0.2
				L104.8,178.1z"/>
			<path class="st8" d="M121.8,100.7c0,0,0,0.1,0,0.1c-0.1,0-0.2-0.1-0.3-0.1c0,0,0,0,0-0.1C121.7,100.7,121.8,100.7,121.8,100.7z"
				/>
		</g>
		<g>
		</g>
	</g>
	<circle class="st3" cx="-196" cy="13.6" r="47.6"/>
	<circle class="st8" cx="-72.1" cy="13.6" r="47.6"/>
	<circle class="st9" cx="-132.1" cy="130.3" r="47.6"/>
	<circle class="st2" cx="327.1" cy="201.5" r="47.6"/>
</g>
<g id="Layer_2" class="st17">
	<g class="st18">
		<g id="XMLID_11_">
			<g>
				<path class="st3" d="M165.3,117.4c14.7,12,23.6,31.3,21.4,51.9c-2.9,30.1-44.2,71.2-61.3,75.5l37.3-95.5l-29.6,4.1l12.5-44.7
					c0,0.5,0,1.2,0,1.4c2.4,3.1,6.5,4.8,11.3,6.3c2.4,0.7,5.3,1,7.9,1C165.1,117.4,165.3,117.4,165.3,117.4z"/>
				<path class="st8" d="M164.3,83c3.8-2.4,22.6,10.1,20,22.1c-1.7,7-10.1,11.8-18.8,12.3c-0.2,0-0.2,0-0.5,0c-2.6,0-5.3-0.2-7.9-1
					c-4.8-1.4-8.9-3.1-11.3-6.3c0-0.2,0-1,0-1.4l0,0l0.5-1.4V107l0,0l0.2-0.7c2.4-1.4,4.3-3.4,6-5.5c4.6,0,8.2-1.2,10.3-3.8
					C166.3,91.9,161.7,84.4,164.3,83z"/>
				<path class="st8" d="M155.5,81.3c1.9,5.8,0.7,13.7-3.1,19.2c-1.4,0-2.6,0-4.1-0.2l-1.7,5.8l0,0l6.7-24L155.5,81.3z"/>
				<path class="st8" d="M155.5,81.3L153,82l-24.8,3.6l-3.6,13.7c-1-0.5-2.2-0.7-3.1-1.2c-0.5-2.4-0.5-4.8-0.7-6.3
					c-0.2-9.9,20.2-42.8,33.9-12.3C155,80.1,155.2,80.8,155.5,81.3z"/>
				<path class="st8" d="M148.2,100.6c1.4,0.2,2.9,0.2,4.1,0.2c-1.4,2.4-3.6,4.3-6,5.5L148.2,100.6z"/>
				<path class="st1" d="M136.5,171l-12.7,74.3c-0.5,0-1,0-1.4,0c-13.9-1.4-51.9-54.3-48.8-86.8c1.9-20.9,14.2-38,30.8-46.9
					c1.2,0.5,2.4,1,3.8,1.2c5,1,9.4,0.2,13-1.2c0.2,0,0.5-0.2,0.5-0.2l-16.8,64.2L136.5,171z"/>
				<path class="st8" d="M124.9,99.3l-1.2,4.6c-1-1.7-1.7-3.8-1.9-5.8C122.8,98.6,123.7,98.9,124.9,99.3z"/>
				<path class="st8" d="M123.7,103.9l-0.5,1.4l-1.4,5.8c-0.2,0-0.5,0.2-0.5,0.2c-3.6,1.4-8.2,2.4-13,1.2c-1.2-0.2-2.6-0.7-3.8-1.2
					s-2.4-1.2-3.6-1.7c-7.7-4.6-13-12.7-11.1-20c3.4-12,25.7-13.9,28.1-9.9c1.4,2.6-6,6.7-5.3,13c0.5,3.6,4.6,4.1,9.1,5.3
					C122,100.1,122.8,102.2,123.7,103.9z"/>
			</g>
		</g>
	</g>
</g>
</svg>
