<?xml version="1.0" encoding="utf-8"?>
<!-- Generator: Adobe Illustrator 21.1.0, SVG Export Plug-In . SVG Version: 6.00 Build 0)  -->
<svg version="1.1" id="Layer_1" xmlns="http://www.w3.org/2000/svg" xmlns:xlink="http://www.w3.org/1999/xlink" x="0px" y="0px"
	 viewBox="0 0 65.4 22.1" style="enable-background:new 0 0 65.4 22.1;" xml:space="preserve">
<style type="text/css">
	.st0{display:none;}
	.st1{display:inline;opacity:0.4;}
	.st2{fill:#B74FB7;stroke:#231F20;stroke-miterlimit:10;}
	.st3{fill:#92278F;}
	.st4{fill:#B74FB7;}
	.st5{fill:#ED1C24;}
	.st6{fill:#BE1E2D;}
	.st7{fill:#006838;}
	.st8{fill:none;stroke:#006838;stroke-miterlimit:10;}
	.st9{fill:none;stroke:#231F20;stroke-miterlimit:10;}
	.st10{fill:#2E3192;}
	.st11{fill:#1B75BC;}
	.st12{fill:#CC3333;}
	.st13{fill:#FFFFFF;}
	.st14{fill:#E589E5;}
	.st15{fill:#39B54A;}
	.st16{fill:#FFF200;}
	.st17{fill:#007D38;}
	.st18{fill:#231F20;}
	.st19{fill:#662D91;}
	.st20{fill:#2BB673;}
	.st21{fill:#FFEC03;}
	.st22{opacity:0.4;fill:#FFFFFF;}
	.st23{fill:#FFFFFF;stroke:#231F20;stroke-miterlimit:10;}
	.st24{fill:#48BC7A;}
	.st25{fill:#959A8F;}
</style>
<g id="Layer_2" class="st0">
	<g id="li7vNT.tif" class="st1">
	</g>
</g>
<g id="Layer_1_1_" class="st0">
	<g id="xZq5gi.tif_1_" class="st1">
	</g>
</g>
<g id="Layer_3" class="st0">
	<g id="V5HVoM.tif" class="st1">
	</g>
</g>
<rect x="-589" y="-170.4" class="st2" width="76.5" height="76.5"/>
<g id="XMLID_6_">
	<g>
		<path class="st3" d="M-127.2-493.5c12.7,12.7-0.8,22.8-0.8,22.8c3.8,11.5-6.9,19.5-6.9,19.5c0,17.1-11,19.8-11,19.8
			c0,18.7-17,14.3-17,14.3c0,8.5-11.3,7.4-11.3,7.4c-10.7,7.4-18.2-3-18.2-3c-14.6,6.1-20.6-8.8-20.6-8.8
			c-16.2,2.5-18.2-12.6-18.2-12.6c-28.6-12.4-27.8-30.5-27.8-30.5c-14.3-6.9-9.4-17-9.4-17c-7.7-11-2.4-21-2.4-21
			c-4-18.1,30-35.7,30-35.7c55.5-28.7,92.2-8.2,100.4,0c8.2,8.2,5.8,16.3,5.8,16.3C-121.7-509.5-127.2-493.5-127.2-493.5z
			 M-203-518.2c19.5-4.5,34.5-11.7,33.5-16.1c-1-4.4-17.7-4.4-37.2,0.1s-34.5,11.7-33.5,16.1C-239.2-513.6-222.5-513.7-203-518.2z"
			/>
		<path class="st4" d="M-169.5-534.3c1,4.4-14,11.7-33.5,16.1c-19.5,4.5-36.2,4.5-37.2,0.1s14-11.7,33.5-16.1
			S-170.5-538.8-169.5-534.3z"/>
	</g>
</g>
<g id="XMLID_5_">
	<g>
		<path class="st5" d="M49.7-661.5c22.9,13.8,103.3,86.3-50,216.1c-3.8,3.2-8.4,4.8-13.1,4.8v-222.9c4,0,7.9-0.5,11.8-1.3
			C12-667.9,34.3-670.7,49.7-661.5z"/>
		<path class="st6" d="M-13.4-663.5v222.9c-4.7,0-9.3-1.6-13.1-4.8c-153.3-129.8-72.9-202.4-50-216.1c15.4-9.3,37.7-6.4,51.3-3.3
			C-21.3-663.9-17.4-663.5-13.4-663.5z"/>
	</g>
</g>
<g id="XMLID_4_">
	<g>
		<path class="st7" d="M34.4-672.2c3.4-3.7,20.2-20.9,37.2-13.4c19.1,8.4-40.8,53.3-83.6,22.1c-42.8,31.2-102.7-13.7-83.6-22.1
			c17.1-7.5,33.9,9.7,37.2,13.4c-9.3-10.9-5.4-23.3-5.4-23.3c14.1,1.2,20.8,23.6,20.8,23.6c11.7,7.7,22.7,0,22.7,0
			c5.6-13.6-5.4-46.5-6.7-50.3c0.9,0.8,7.2,1.4,14.8,1.4c8,0,14.5-0.7,14.9-1.5h0.2C1.7-719-9.4-685.6-3.8-672c0,0,11,7.7,22.7,0
			c0,0,6.7-22.4,20.8-23.6C39.8-695.4,43.6-683.1,34.4-672.2z"/>
		<path class="st7" d="M2.9-722.3C2.9-722.3,2.8-722.3,2.9-722.3c-0.4,0.9-6.9,1.6-14.9,1.6c-7.6,0-13.9-0.6-14.8-1.4
			c0-0.1-0.1-0.2-0.1-0.3l0,0c0.4-0.8,7-1.5,14.9-1.5C-3.8-723.9,2.9-723.2,2.9-722.3z"/>
		<path class="st7" d="M-27-722.4c0,0.1,0.1,0.2,0.1,0.3C-27-722.2-27-722.2-27-722.4C-27-722.3-27-722.4-27-722.4z"/>
	</g>
	<g>
		<path class="st8" d="M-58.3-672.2c-9.3-10.9-5.4-23.3-5.4-23.3c14.1,1.2,20.8,23.6,20.8,23.6c11.7,7.7,22.7,0,22.7,0
			c5.6-13.6-5.4-46.5-6.7-50.3c0-0.1-0.1-0.2-0.1-0.3l0,0v-0.1"/>
		<path class="st8" d="M33.8-671.5L33.8-671.5C33.8-671.5,33.8-671.6,33.8-671.5C33.8-671.6,33.8-671.6,33.8-671.5
			c0.2-0.3,0.4-0.4,0.5-0.6c0,0,0,0,0.1-0.1c3.4-3.7,20.2-20.9,37.2-13.4c19.1,8.4-40.8,53.3-83.6,22.1
			c-42.8,31.2-102.7-13.7-83.6-22.1c17.1-7.5,33.9,9.7,37.2,13.4c0.2,0.2,0.3,0.4,0.5,0.5l0.1,0.1l0,0l0,0"/>
		<path class="st8" d="M3.1-722.5c0,0,0,0.1-0.1,0.3c-1.2,3.3-12.3,36.7-6.7,50.3c0,0,11,7.7,22.7,0c0,0,6.7-22.4,20.8-23.6
			c0,0,3.9,12.4-5.4,23.3"/>
	</g>
</g>
<circle class="st9" cx="197.2" cy="-496.8" r="21.9"/>
<path class="st9" d="M198.9-468.2c33.2,14.9,29.9-21.4,29.9-21.4c23-20.9-6.1-26.6-6.1-26.6c0-28.1-23-11.4-23-11.4
	s-24.4-17.5-24.4,11.4c0,0-29.1,5.7-6.1,26.6C169.1-489.6,160.3-454.3,198.9-468.2z"/>
<ellipse class="st9" cx="188.8" cy="-477.3" rx="61.7" ry="63.7"/>
<g id="XMLID_7_">
	<g>
		<path class="st10" d="M1.8,51c3,0,5.5,2.5,5.5,5.6s-2.4,5.6-5.5,5.6c-3,0-5.5-2.5-5.5-5.6C-3.6,53.5-1.2,51,1.8,51z M5.4,55.5
			c2-1.9-0.5-2.4-0.5-2.4c0-2.5-2-1-2-1s-2.2-1.6-2.2,1c0,0-2.6,0.5-0.5,2.4c0,0-0.8,3.1,2.6,1.9C5.7,58.7,5.4,55.5,5.4,55.5z"/>
		<path class="st11" d="M4.8,53.2c0,0,2.6,0.5,0.5,2.4c0,0,0.3,3.2-2.6,1.9c-3.4,1.2-2.6-1.9-2.6-1.9c-2-1.9,0.5-2.4,0.5-2.4
			c0-2.6,2.2-1,2.2-1S4.8,50.7,4.8,53.2z M4.5,54.9c0-1.1-0.9-1.9-1.9-1.9c-1.1,0-1.9,0.9-1.9,1.9c0,1.1,0.9,1.9,1.9,1.9
			C3.7,56.8,4.5,56,4.5,54.9z"/>
		<circle class="st10" cx="2.6" cy="54.9" r="1.9"/>
	</g>
</g>
<g id="XMLID_14_">
	<g>
		<path class="st10" d="M-22.5,51.7c-3,0-5.5,2.5-5.5,5.6s2.4,5.6,5.5,5.6c3,0,5.5-2.5,5.5-5.6C-17.1,54.2-19.5,51.7-22.5,51.7z
			 M-26.1,56.2c-2-1.9,0.5-2.4,0.5-2.4c0-2.5,2-1,2-1s2.2-1.6,2.2,1c0,0,2.6,0.5,0.5,2.4c0,0,0.8,3.1-2.6,1.9
			C-26.4,59.4-26.1,56.2-26.1,56.2z"/>
		<path class="st11" d="M-25.5,53.9c0,0-2.6,0.5-0.5,2.4c0,0-0.3,3.2,2.6,1.9c3.4,1.2,2.6-1.9,2.6-1.9c2-1.9-0.5-2.4-0.5-2.4
			c0-2.6-2.2-1-2.2-1S-25.5,51.4-25.5,53.9z M-25.2,55.6c0-1.1,0.9-1.9,1.9-1.9c1.1,0,1.9,0.9,1.9,1.9c0,1.1-0.9,1.9-1.9,1.9
			C-24.4,57.5-25.2,56.7-25.2,55.6z"/>
		<circle class="st10" cx="-23.3" cy="55.6" r="1.9"/>
	</g>
</g>
<g id="XMLID_1_">
	<g>
		<path class="st12" d="M-68,54.8c1.1,1.1-0.1,2-0.1,2c0.3,1-0.6,1.7-0.6,1.7c0,1.5-0.9,1.7-0.9,1.7c0,1.6-1.5,1.2-1.5,1.2
			c0,0.7-1,0.6-1,0.6c-0.9,0.6-1.6-0.3-1.6-0.3c-1.2,0.5-1.8-0.8-1.8-0.8c-1.4,0.2-1.6-1.1-1.6-1.1c-2.4-1.1-2.4-2.6-2.4-2.6
			c-1.2-0.6-0.8-1.5-0.8-1.5c-0.7-0.9-0.2-1.8-0.2-1.8c-0.3-1.6,2.6-3.1,2.6-3.1c4.7-2.5,7.9-0.7,8.6,0s0.5,1.4,0.5,1.4
			C-67.6,53.4-68,54.8-68,54.8z M-74.5,52.7c1.7-0.4,3-1,2.9-1.4c-0.1-0.4-1.5-0.4-3.2,0s-3,1-2.9,1.4S-76.2,53-74.5,52.7z"/>
		
			<ellipse transform="matrix(0.9746 -0.2241 0.2241 0.9746 -13.5561 -15.4045)" class="st13" cx="-74.6" cy="52" rx="3.1" ry="0.7"/>
	</g>
</g>
<g>
	<g id="XMLID_2_">
		<g>
			<path class="st3" d="M1.6-47c2,1.2,9.2,7.6-4.4,19.2c-0.3,0.3-0.7,0.4-1.2,0.4v-19.8c0.4,0,0.7,0,1-0.1
				C-1.7-47.6,0.2-47.8,1.6-47z"/>
			<path class="st14" d="M-4-47.2v19.8c-0.4,0-0.8-0.1-1.2-0.4c-13.5-11.6-6.4-18-4.4-19.2c1.4-0.8,3.3-0.6,4.5-0.3
				C-4.7-47.2-4.3-47.2-4-47.2z"/>
		</g>
	</g>
	<g id="XMLID_3_">
		<g>
			<path class="st15" d="M-8.1-47.9c-0.8-1-0.5-2.1-0.5-2.1c1.2,0.1,1.8,2.1,1.8,2.1c1,0.7,2,0,2,0c0.5-1.2-0.5-4.1-0.6-4.5
				c0.1,0.1,0.6,0.1,1.3,0.1c0.7,0,1.3-0.1,1.3-0.1l0,0c-0.1,0.3-1.1,3.3-0.6,4.5c0,0,1,0.7,2,0c0,0,0.6-2,1.8-2.1
				c0,0,0.3,1.1-0.5,2.1c0.3-0.3,1.8-1.9,3.3-1.2c1.7,0.7-3.6,4.7-7.4,2c-3.8,2.8-9.1-1.2-7.4-2C-9.8-49.7-8.4-48.2-8.1-47.9z"/>
			<path class="st15" d="M-2.6-52.3L-2.6-52.3c0,0.1-0.6,0.1-1.3,0.1c-0.7,0-1.2-0.1-1.3-0.1l0,0l0,0c0-0.1,0.6-0.1,1.3-0.1
				S-2.6-52.4-2.6-52.3z"/>
			<path class="st15" d="M-5.3-52.3L-5.3-52.3L-5.3-52.3L-5.3-52.3z"/>
		</g>
	</g>
	<g>
		<g id="XMLID_8_">
			<g>
				<polygon class="st16" points="-1.2,-39.5 -5.5,-30.4 -4.6,-37.8 -6.7,-36.8 -4.4,-43.9 -2.2,-44.2 -4.1,-38.9 				"/>
			</g>
		</g>
	</g>
</g>
<g>
	<g id="XMLID_17_">
		<g>
			<path class="st3" d="M-41.5-26.9c2,1.2,9.2,7.6-4.4,19.2c-0.3,0.3-0.7,0.4-1.2,0.4v-19.8c0.4,0,0.7,0,1-0.1
				C-44.8-27.5-42.9-27.7-41.5-26.9z"/>
			<path class="st14" d="M-47.1-27.1v19.8c-0.4,0-0.8-0.1-1.2-0.4c-13.5-11.6-6.4-18-4.4-19.2c1.4-0.8,3.3-0.6,4.5-0.3
				C-47.8-27.1-47.4-27.1-47.1-27.1z"/>
		</g>
	</g>
	<g id="XMLID_16_">
		<g>
			<path class="st15" d="M-51.2-27.8c-0.8-1-0.5-2.1-0.5-2.1c1.2,0.1,1.8,2.1,1.8,2.1c1,0.7,2,0,2,0c0.5-1.2-0.5-4.1-0.6-4.5
				c0.1,0.1,0.6,0.1,1.3,0.1c0.7,0,1.3-0.1,1.3-0.1l0,0C-46-32-47-29-46.5-27.8c0,0,1,0.7,2,0c0,0,0.6-2,1.8-2.1
				c0,0,0.3,1.1-0.5,2.1c0.3-0.3,1.8-1.9,3.3-1.2c1.7,0.7-3.6,4.7-7.4,2c-3.8,2.8-9.1-1.2-7.4-2C-52.9-29.6-51.5-28.1-51.2-27.8z"/>
			<path class="st15" d="M-45.7-32.2L-45.7-32.2c0,0.1-0.6,0.1-1.3,0.1c-0.7,0-1.2-0.1-1.3-0.1l0,0l0,0c0-0.1,0.6-0.1,1.3-0.1
				S-45.7-32.3-45.7-32.2z"/>
			<path class="st15" d="M-48.4-32.2L-48.4-32.2L-48.4-32.2L-48.4-32.2z"/>
		</g>
	</g>
	<g>
		<g id="XMLID_15_">
			<g>
				<polygon class="st16" points="-44.3,-19.4 -48.6,-10.3 -47.7,-17.7 -49.8,-16.7 -47.5,-23.8 -45.3,-24.1 -47.2,-18.8 				"/>
			</g>
		</g>
	</g>
</g>
<g id="XMLID_20_">
	<g>
		<path class="st3" d="M-1.9-24.5c2,1.2,9.2,7.6-4.4,19.2C-6.6-5-7-4.9-7.5-4.9v-19.8c0.4,0,0.7,0,1-0.1
			C-5.2-25.1-3.3-25.3-1.9-24.5z"/>
		<path class="st14" d="M-7.5-24.7v19.8c-0.4,0-0.8-0.1-1.2-0.4c-13.5-11.6-6.4-18-4.4-19.2c1.4-0.8,3.3-0.6,4.5-0.3
			C-8.2-24.7-7.8-24.7-7.5-24.7z"/>
	</g>
</g>
<g id="XMLID_19_">
	<g>
		<path class="st15" d="M-11.6-25.4c-0.8-1-0.5-2.1-0.5-2.1c1.2,0.1,1.8,2.1,1.8,2.1c1,0.7,2,0,2,0c0.5-1.2-0.5-4.1-0.6-4.5
			c0.1,0.1,0.6,0.1,1.3,0.1c0.7,0,1.3-0.1,1.3-0.1l0,0c-0.1,0.3-1.1,3.3-0.6,4.5c0,0,1,0.7,2,0c0,0,0.6-2,1.8-2.1
			c0,0,0.3,1.1-0.5,2.1c0.3-0.3,1.8-1.9,3.3-1.2c1.7,0.7-3.6,4.7-7.4,2c-3.8,2.8-9.1-1.2-7.4-2C-13.3-27.2-11.9-25.7-11.6-25.4z"/>
		<path class="st15" d="M-6.1-29.8L-6.1-29.8c0,0.1-0.6,0.1-1.3,0.1c-0.7,0-1.2-0.1-1.3-0.1l0,0l0,0c0-0.1,0.6-0.1,1.3-0.1
			S-6.1-29.9-6.1-29.8z"/>
		<path class="st15" d="M-8.8-29.8L-8.8-29.8L-8.8-29.8L-8.8-29.8z"/>
	</g>
</g>
<g>
	<path class="st3" d="M18.7-35.5c1.4-0.1,2-0.8,2-2.1c0-1.4-1-2.1-2.7-2.1c-2.4,0-4.1,1.3-4.4,3.1c0.2-0.2,0.5-0.3,0.8-0.3
		c0.6,0,1.2,0.4,1.2,1.2c0,0.9-0.7,1.3-1.3,1.3c-1,0-1.7-0.8-1.7-1.8c0-2.9,3-4.2,5.9-4.2c2.3,0,4.7,0.8,4.7,2.9
		c0,1.3-0.9,2-2.5,2.3c1.5,0.1,3,0.6,3,2.4c0,2.1-1.9,2.7-4.6,2.7h-3V-35c0-2.5,1.1-3.5,2.9-3.9l0.2,0.3c-0.5,0.3-0.5,0.9-0.5,1.5
		V-35.5z M19.2-31c1.2,0,1.8-0.9,1.8-2.1c0-1.2-0.7-1.9-1.9-1.9h-0.4v4H19.2z"/>
	<path class="st3" d="M27.2-33.1c0.2,1.4,0.8,1.9,1.8,1.9c1.2,0,2.3-1,2.8-2.8l0.6,0.1c-0.7,2.5-2.1,3.7-4.3,3.7
		c-1.9,0-3.7-1.1-3.7-3.7s1.8-3.6,3.5-3.6s2.8,0.6,2.8,2.2c0,1.5-1.4,2.3-3,2.3C27.4-33.1,27.3-33.1,27.2-33.1z M27.1-33.7
		c0.9,0,1.4-0.8,1.4-1.8s-0.2-1.3-0.6-1.3c-0.5,0-0.8,0.9-0.8,2.7C27.1-33.9,27.1-33.8,27.1-33.7z"/>
	<path class="st3" d="M32.3-37.3c0.8,0,1.3,0.2,1.6,0.7c0.4-0.5,0.9-0.9,1.6-0.9c1.2,0,1.8,0.9,1.8,2c0,1.1-0.7,1.6-1.4,1.6
		c-0.7,0-1.2-0.5-1.2-1.2s0.6-1.1,1.1-1.1c0.3,0,0.6,0.2,0.8,0.4c-0.1-0.6-0.5-0.9-1.1-0.9c-0.7,0-1.4,0.4-1.5,1.9v4.4h-2.5v-6.8
		L32.3-37.3L32.3-37.3z"/>
	<path class="st3" d="M38.7-37.3c0.8,0,1.3,0.2,1.6,0.7c0.4-0.5,0.9-0.9,1.6-0.9c1.2,0,1.8,0.9,1.8,2c0,1.1-0.7,1.6-1.4,1.6
		s-1.2-0.5-1.2-1.2s0.6-1.1,1.1-1.1c0.3,0,0.6,0.2,0.8,0.4c-0.1-0.6-0.5-0.9-1.1-0.9c-0.7,0-1.4,0.4-1.5,1.9v4.4h-2.5v-6.8
		L38.7-37.3L38.7-37.3z"/>
	<path class="st3" d="M46.9-30.7L46.9-30.7c-1.5,0-2.5-0.6-2.5-2.7v-4h0.7c1.4,0,1.8,0.6,1.8,1.7v3.1c0,0.7,0.1,1.2,0.6,1.2
		s0.7-0.4,0.7-1.2v-4.9h2.6v7.2c0,2-1.7,2.9-3.4,2.9c-1.4,0-2.7-0.3-2.7-1.5s1.5-1.6,2.3-1.7L46.9-30.7z M48.3-30.8l-0.2,0.1
		c-0.8,0.4-1.3,0.8-1.3,1.9c0,0.6,0.2,1,0.7,1s0.7-0.4,0.7-1.1L48.3-30.8L48.3-30.8z"/>
	<path class="st3" d="M55.3-32.8c0-1.7,1.5-2.3,2.7-2.5c-1.3-0.2-2.4-0.9-2.4-2.5c0-1.5,1.1-2.7,3.4-2.7c2,0,3,1,3,2.4
		c0,0.8-0.6,1.4-1.4,1.4c-0.7,0-1.2-0.5-1.2-1.2s0.5-1.1,1.2-1.1c0.2,0,0.4,0,0.5,0.1c-0.2-0.6-0.8-0.8-1.5-0.8
		c-1,0-1.6,0.7-1.6,1.8c0,1.2,1,2.2,2.7,2.2v0.7c-1.6,0-2.3,0.9-2.3,2c0,1.1,0.5,1.7,1.5,1.7c1.2,0,2-1,2.7-2.9l0.6,0.1
		c-0.6,2.2-1.8,3.7-4.3,3.7C57-30.3,55.3-31,55.3-32.8z"/>
	<path class="st3" d="M67.7-34.1c-0.3,1.9-1.3,3.8-3,3.8c-1.3,0-2.1-0.6-2.1-2.2v-8h0.7c1.4,0,1.8,0.5,1.8,1.6v6.7
		c0,0.4,0.2,0.8,0.5,0.8c0.4,0,1-0.6,1.5-2.8L67.7-34.1z"/>
	<path class="st3" d="M69.3-33.1c0.2,1.4,0.8,1.9,1.8,1.9c1.2,0,2.3-1,2.8-2.8l0.6,0.1c-0.7,2.5-2.1,3.7-4.3,3.7
		c-1.9,0-3.7-1.1-3.7-3.7s1.8-3.6,3.5-3.6c1.7,0,2.8,0.7,2.8,2.2s-1.4,2.3-3,2.3C69.6-33.1,69.4-33.1,69.3-33.1z M69.3-33.7
		c0.9,0,1.4-0.8,1.4-1.8s-0.2-1.3-0.6-1.3c-0.5,0-0.8,0.9-0.8,2.7C69.3-33.9,69.3-33.8,69.3-33.7z"/>
	<path class="st3" d="M73.4-34c0-2.5,1.9-3.6,3.6-3.6s2.7,1,2.7,2.4c0,0.8-0.5,1.4-1.3,1.4c-0.7,0-1.2-0.5-1.2-1.2s0.5-1.2,1.1-1.2
		c0.2,0,0.5,0.1,0.6,0.2c-0.2-0.6-0.6-0.9-1.2-0.9c-1,0-1.5,1-1.5,2.8s0.6,2.8,1.9,2.8c1,0,2-0.7,2.8-2.8l0.5,0.1
		c-0.9,2.8-2.5,3.7-4.4,3.7C75-30.3,73.4-31.5,73.4-34z"/>
	<path class="st3" d="M84.3-36.5h-1v4.3c0,0.6,0.2,0.8,0.6,0.8s1.1-0.4,1.6-2.5l0.5,0.1c-0.4,2.2-1.4,3.4-3.1,3.4
		c-1.5,0-2.1-0.9-2.1-2.4v-3.8H80v-0.8h0.7v-2.2h0.7c1.4,0,1.8,0.5,1.8,1.6v0.7h1L84.3-36.5L84.3-36.5z"/>
	<path class="st3" d="M86.1-37.3c0.8,0,1.3,0.2,1.6,0.7c0.4-0.5,0.9-0.9,1.6-0.9c1.2,0,1.8,0.9,1.8,2c0,1.1-0.7,1.6-1.4,1.6
		c-0.7,0-1.2-0.5-1.2-1.2s0.6-1.1,1.1-1.1c0.3,0,0.6,0.2,0.8,0.4c-0.1-0.6-0.5-0.9-1.1-0.9c-0.7,0-1.4,0.4-1.5,1.9v4.4h-2.5v-6.8
		L86.1-37.3L86.1-37.3z"/>
	<path class="st3" d="M93-38.1c-0.8,0-1.5-0.5-1.5-1.4c0-0.8,0.7-1.4,1.5-1.4s1.5,0.5,1.5,1.4C94.5-38.6,93.7-38.1,93-38.1z
		 M96.8-33.7c-0.3,1.6-1.1,3.4-2.9,3.4c-1.5,0-2.1-0.9-2.1-2.4v-4.6h1c1.1,0,1.6,0.3,1.6,1.5v3.7c0,0.4,0.2,0.8,0.5,0.8
		c0.4,0,1-0.6,1.4-2.4L96.8-33.7z"/>
	<path class="st3" d="M95.7-34c0-2.5,1.9-3.6,3.6-3.6s2.7,1,2.7,2.4c0,0.8-0.5,1.4-1.3,1.4c-0.7,0-1.2-0.5-1.2-1.2s0.5-1.2,1.1-1.2
		c0.2,0,0.4,0.1,0.6,0.2c-0.2-0.6-0.8-0.9-1.2-0.9c-1,0-1.5,1-1.5,2.8c0,1.8,0.6,2.8,1.8,2.8c0.8,0,1.5-0.5,2.1-1.7l0.5,0.2
		c-0.9,1.8-2,2.4-3.6,2.4C97.3-30.3,95.7-31.5,95.7-34z"/>
</g>
<g id="XMLID_13_">
	<g>
		<path class="st3" d="M-184.1,26c3,3-0.2,5.4-0.2,5.4c0.9,2.7-1.6,4.6-1.6,4.6c0,4-2.6,4.7-2.6,4.7c0,4.4-4,3.4-4,3.4
			c0,2-2.7,1.7-2.7,1.7c-2.5,1.7-4.3-0.7-4.3-0.7c-3.4,1.4-4.9-2.1-4.9-2.1c-3.8,0.6-4.3-3-4.3-3c-6.7-2.9-6.5-7.2-6.5-7.2
			c-3.4-1.6-2.2-4-2.2-4c-1.8-2.6-0.6-5-0.6-5c-0.9-4.3,7.1-8.4,7.1-8.4c13.1-6.8,21.7-1.9,23.7,0c1.9,1.9,1.4,3.8,1.4,3.8
			C-182.9,22.3-184.1,26-184.1,26z M-202,20.2c4.6-1.1,8.1-2.8,7.9-3.8c-0.2-1-4.2-1-8.8,0s-8.1,2.8-7.9,3.8
			C-210.5,21.3-206.6,21.3-202,20.2z"/>
		
			<ellipse transform="matrix(0.9746 -0.2241 0.2241 0.9746 -9.2707 -44.8763)" class="st4" cx="-202.3" cy="18.4" rx="8.5" ry="1.9"/>
	</g>
</g>
<g id="XMLID_12_">
	<g>
		<path class="st5" d="M-142.7-17.4c5.6,3.4,25.2,21-12.2,52.7c-0.9,0.8-2.1,1.2-3.2,1.2v-54.3c1,0,1.9-0.1,2.9-0.3
			C-151.9-18.9-146.4-19.6-142.7-17.4z"/>
		<path class="st6" d="M-158-17.9v54.3c-1.1,0-2.3-0.4-3.2-1.2C-198.6,3.6-179-14-173.4-17.4c3.8-2.3,9.2-1.6,12.5-0.8
			C-160-18-159-17.9-158-17.9z"/>
	</g>
</g>
<g id="XMLID_11_">
	<g>
		<path class="st7" d="M-169.3-19.7c-2.3-2.7-1.3-5.7-1.3-5.7c3.4,0.3,5.1,5.8,5.1,5.8c2.9,1.9,5.5,0,5.5,0
			c1.4-3.3-1.3-11.3-1.6-12.3c0.2,0.2,1.8,0.3,3.6,0.3c1.9,0,3.5-0.2,3.6-0.4l0,0c-0.3,0.8-3,8.9-1.6,12.3c0,0,2.7,1.9,5.5,0
			c0,0,1.6-5.5,5.1-5.8c0,0,0.9,3-1.3,5.7c0.8-0.9,4.9-5.1,9.1-3.3c4.7,2-10,13-20.4,5.4c-10.4,7.6-25-3.3-20.4-5.4
			C-174.2-24.8-170.1-20.6-169.3-19.7z"/>
		<path class="st7" d="M-154.4-31.9L-154.4-31.9c-0.1,0.2-1.7,0.4-3.6,0.4c-1.9,0-3.4-0.1-3.6-0.3v-0.1l0,0c0.1-0.2,1.7-0.4,3.6-0.4
			C-156-32.3-154.4-32.1-154.4-31.9z"/>
		<path class="st7" d="M-161.6-31.9L-161.6-31.9L-161.6-31.9L-161.6-31.9z"/>
	</g>
	<g>
		<path class="st8" d="M-169.3-19.7c-2.3-2.7-1.3-5.7-1.3-5.7c3.4,0.3,5.1,5.8,5.1,5.8c2.9,1.9,5.5,0,5.5,0
			c1.4-3.3-1.3-11.3-1.6-12.3V-32l0,0l0,0"/>
		<path class="st8" d="M-146.8-19.5L-146.8-19.5C-146.8-19.6-146.8-19.6-146.8-19.5C-146.8-19.6-146.8-19.6-146.8-19.5
			c0.1-0.1,0.1-0.1,0.1-0.2l0,0c0.8-0.9,4.9-5.1,9.1-3.3c4.7,2-10,13-20.4,5.4c-10.4,7.6-25-3.3-20.4-5.4c4.2-1.8,8.3,2.4,9.1,3.3
			c0,0.1,0.1,0.1,0.1,0.1l0,0l0,0l0,0"/>
		<path class="st8" d="M-154.3-32C-154.3-32-154.3-31.9-154.3-32c-0.3,0.9-3,9-1.7,12.3c0,0,2.7,1.9,5.5,0c0,0,1.6-5.5,5.1-5.8
			c0,0,0.9,3-1.3,5.7"/>
	</g>
</g>
<g id="XMLID_10_">
	<g>
		<path class="st10" d="M-143.3,56.4c8.3,0,15,6.9,15,15.5s-6.7,15.5-15,15.5c-8.3,0-15-7-15-15.5
			C-158.4,63.3-151.7,56.4-143.3,56.4z M-133.6,68.9c5.6-5.1-1.5-6.5-1.5-6.5c0-6.9-5.6-2.8-5.6-2.8s-5.9-4.3-5.9,2.8
			c0,0-7.1,1.4-1.5,6.5c0,0-2.2,8.6,7.3,5.2C-132.8,77.7-133.6,68.9-133.6,68.9z"/>
		<path class="st11" d="M-135.1,62.4c0,0,7.1,1.4,1.5,6.5c0,0,0.8,8.8-7.3,5.2c-9.4,3.4-7.3-5.2-7.3-5.2c-5.6-5.1,1.5-6.5,1.5-6.5
			c0-7.1,5.9-2.8,5.9-2.8S-135.1,55.6-135.1,62.4z M-135.9,67.2c0-3-2.4-5.3-5.3-5.3c-3,0-5.3,2.4-5.3,5.3s2.4,5.3,5.3,5.3
			S-135.9,70.1-135.9,67.2z"/>
		<circle class="st10" cx="-141.3" cy="67.2" r="5.3"/>
	</g>
</g>
<g>
	<g id="XMLID_9_">
		<g>
			<polygon class="st16" points="-149.7,2.6 -162.8,30.4 -160,7.7 -166.4,10.8 -159.2,-10.7 -152.6,-11.8 -158.5,4.4 			"/>
		</g>
	</g>
</g>
<circle class="st3" cx="-87.1" cy="-13.2" r="6.2"/>
<g id="Layer_2_1_">
	<path class="st6" d="M162.4-33.8c45.9-51.6,4.1-58-4.5-58c-7,0-49.1,6.4-3.2,58C156.8-31.5,160.4-31.5,162.4-33.8z"/>
	<path class="st17" d="M158.5-105.8c1.9,0,3.5,0.2,3.8,0.4c-0.3,0.2-1.9,0.4-3.8,0.4c-1.9,0-3.6-0.1-3.8-0.3
		c0.1-0.1,0.5-0.2,1.2-0.3C156.6-105.7,157.5-105.8,158.5-105.8z"/>
	<path class="st7" d="M164.3-91.8l0,0.3c-1,0.2-2,0.3-2.8,0.5c-1,0.2-1.9,0.3-3,0.3v-0.1c-1,0-2.1-0.1-3.1-0.3
		c-0.8-0.2-1.8-0.4-2.8-0.5v-0.1c2.1,0.4,3.8-0.8,3.8-0.8c0.4-0.9,0.5-2.1,0.4-3.5c0-0.2,0-0.4,0-0.6c0-3.3-1.6-7.4-2-8.6
		c0,0,0,0,0-0.1c0.3,0.2,1.8,0.3,3.8,0.3c1.8,0,3.4-0.2,3.7-0.4c-0.4,1-2,5.3-2,8.7c0,0.1,0,0.1,0,0.2c0,0.2,0,0.4,0.1,0.5
		c-0.1,1.3,0,2.4,0.3,3.3C160.7-92.6,162.3-91.5,164.3-91.8z"/>
	<path class="st18" d="M151.7-73.6c0.7,0,1.2,1.3,1.2,2.9s-0.5,2.9-1.2,2.9c-0.7,0-1.2-1.3-1.2-2.9C150.5-72.3,151-73.6,151.7-73.6z
		"/>
	<path class="st18" d="M145.9-79.4c0.7,0,1.2,1.3,1.2,2.9s-0.5,2.9-1.2,2.9c-0.7,0-1.2-1.3-1.2-2.9
		C144.7-78.1,145.3-79.4,145.9-79.4z"/>
	<path class="st18" d="M145.9-67.8c0.7,0,1.2,1.3,1.2,2.9c0,1.6-0.5,2.9-1.2,2.9c-0.7,0-1.2-1.3-1.2-2.9
		C144.7-66.5,145.3-67.8,145.9-67.8z"/>
	<path class="st18" d="M140.2-73.6c0.7,0,1.2,1.3,1.2,2.9s-0.5,2.9-1.2,2.9c-0.7,0-1.2-1.3-1.2-2.9C139-72.3,139.5-73.6,140.2-73.6z
		"/>
	<path class="st18" d="M176.8-73.6c0.7,0,1.2,1.3,1.2,2.9s-0.5,2.9-1.2,2.9c-0.7,0-1.2-1.3-1.2-2.9
		C175.7-72.3,176.2-73.6,176.8-73.6z"/>
	<path class="st18" d="M171.1-79.4c0.7,0,1.2,1.3,1.2,2.9s-0.5,2.9-1.2,2.9c-0.7,0-1.2-1.3-1.2-2.9
		C169.9-78.1,170.4-79.4,171.1-79.4z"/>
	<path class="st18" d="M171.1-67.8c0.7,0,1.2,1.3,1.2,2.9c0,1.6-0.5,2.9-1.2,2.9c-0.7,0-1.2-1.3-1.2-2.9
		C169.9-66.5,170.4-67.8,171.1-67.8z"/>
	<path class="st18" d="M165.3-73.6c0.7,0,1.2,1.3,1.2,2.9s-0.5,2.9-1.2,2.9s-1.2-1.3-1.2-2.9C164.1-72.3,164.7-73.6,165.3-73.6z"/>
	<path class="st18" d="M165.4-52.7c0.7,0,1.2,1.3,1.2,2.9c0,1.6-0.5,2.9-1.2,2.9s-1.2-1.3-1.2-2.9C164.2-51.4,164.8-52.7,165.4-52.7
		z"/>
	<path class="st18" d="M159.6-58.5c0.7,0,1.2,1.3,1.2,2.9c0,1.6-0.5,2.9-1.2,2.9s-1.2-1.3-1.2-2.9C158.5-57.2,159-58.5,159.6-58.5z"
		/>
	<path class="st18" d="M159.6-70.3c0.7,0,1.2,1.3,1.2,2.9c0,1.6-0.5,2.9-1.2,2.9s-1.2-1.3-1.2-2.9C158.5-69,159-70.3,159.6-70.3z"/>
	<path class="st18" d="M165.3-63.2c0.7,0,1.2,1.3,1.2,2.9c0,1.6-0.5,2.9-1.2,2.9s-1.2-1.3-1.2-2.9C164.1-61.9,164.7-63.2,165.3-63.2
		z"/>
	<path class="st18" d="M152.9-63.2c0.7,0,1.2,1.3,1.2,2.9c0,1.6-0.5,2.9-1.2,2.9s-1.2-1.3-1.2-2.9C151.7-61.8,152.3-63.2,152.9-63.2
		z"/>
	<path class="st18" d="M145.9-57.4c0.7,0,1.2,1.3,1.2,2.9c0,1.6-0.5,2.9-1.2,2.9c-0.7,0-1.2-1.3-1.2-2.9
		C144.7-56.1,145.3-57.4,145.9-57.4z"/>
	<path class="st18" d="M171.1-57.4c0.7,0,1.2,1.3,1.2,2.9c0,1.6-0.5,2.9-1.2,2.9c-0.7,0-1.2-1.3-1.2-2.9
		C169.9-56.1,170.4-57.4,171.1-57.4z"/>
	<path class="st18" d="M159.6-46.9c0.7,0,1.2,1.3,1.2,2.9c0,1.6-0.5,2.9-1.2,2.9s-1.2-1.3-1.2-2.9C158.5-45.6,159-46.9,159.6-46.9z"
		/>
	<path class="st18" d="M153.9-52.7c0.7,0,1.2,1.3,1.2,2.9c0,1.6-0.5,2.9-1.2,2.9s-1.2-1.3-1.2-2.9C152.7-51.4,153.2-52.7,153.9-52.7
		z"/>
</g>
<g id="Layer_3_1_">
	<path class="st7" d="M153.1-92.5c-1.3-0.3-2.2,0.9-3.6,1.6c-1.6,0.8-4.2,1.3-8.8-0.6c0,0-3.2-1.4-4-2.8c0-0.1-0.1-0.1-0.1-0.1
		s2.9,6.2,7.5,8c4.5,1.8,10.8-0.6,11.2-3.1C155.5-90.7,154.3-92.2,153.1-92.5z"/>
	<path class="st7" d="M158.1-93.5c-1.2-0.6-2.4,0.3-3.9,0.7c-1.7,0.4-4.4,0.2-8.3-2.8c0,0-2.7-2.1-3.2-3.8c0-0.1,0-0.1,0-0.1
		c0,0,1.2,6.7,5.2,9.7c3.9,2.9,10.6,2.1,11.6-0.1C160-91.1,159.2-92.9,158.1-93.5z"/>
	<path class="st7" d="M159.9-93.5c1.2-0.6,2.4,0.3,3.9,0.7c1.7,0.4,4.4,0.2,8.3-2.8c0,0,2.7-2.1,3.2-3.8c0-0.1,0-0.1,0-0.1
		c0,0-1.2,6.7-5.2,9.7c-3.9,2.9-10.6,2.1-11.6-0.1C158-91.1,158.8-92.9,159.9-93.5z"/>
	<path class="st7" d="M163.9-92.5c1.3-0.3,2.2,0.9,3.6,1.6c1.6,0.8,4.2,1.3,8.8-0.6c0,0,3.2-1.4,4-2.8c0-0.1,0.1-0.1,0.1-0.1
		s-2.9,6.2-7.5,8c-4.5,1.8-10.7-0.6-11.2-3.1C161.5-90.7,162.7-92.2,163.9-92.5z"/>
	<path class="st7" d="M155-91.2c1.5-2,5.4-2.2,6.8-0.1c0.5,0.7,0.6,1.4,0.6,2.2c0.3,4.4-1.3,11-3.4,11.1
		C156.5-77.9,152.5-87.8,155-91.2z"/>
</g>
<g>
	<path class="st18" d="M105.6,39.6c0.3,0,0.5,0.6,0.5,1.3c0,0.7-0.2,1.3-0.5,1.3c-0.3,0-0.5-0.6-0.5-1.3
		C105.1,40.2,105.3,39.6,105.6,39.6z"/>
	<path class="st18" d="M103,37c0.3,0,0.5,0.6,0.5,1.3s-0.2,1.3-0.5,1.3c-0.3,0-0.5-0.6-0.5-1.3C102.5,37.6,102.7,37,103,37z"/>
	<path class="st18" d="M103,42.2c0.3,0,0.5,0.6,0.5,1.3c0,0.7-0.2,1.3-0.5,1.3c-0.3,0-0.5-0.6-0.5-1.3
		C102.5,42.8,102.7,42.2,103,42.2z"/>
	<path class="st18" d="M100.4,39.6c0.3,0,0.5,0.6,0.5,1.3c0,0.7-0.2,1.3-0.5,1.3c-0.3,0-0.5-0.6-0.5-1.3
		C99.9,40.2,100.1,39.6,100.4,39.6z"/>
	<path class="st18" d="M116.9,39.6c0.3,0,0.5,0.6,0.5,1.3c0,0.7-0.2,1.3-0.5,1.3c-0.3,0-0.5-0.6-0.5-1.3
		C116.4,40.2,116.6,39.6,116.9,39.6z"/>
	<path class="st18" d="M114.3,37c0.3,0,0.5,0.6,0.5,1.3s-0.2,1.3-0.5,1.3c-0.3,0-0.5-0.6-0.5-1.3C113.8,37.6,114,37,114.3,37z"/>
	<path class="st18" d="M114.3,42.2c0.3,0,0.5,0.6,0.5,1.3c0,0.7-0.2,1.3-0.5,1.3c-0.3,0-0.5-0.6-0.5-1.3
		C113.8,42.8,114,42.2,114.3,42.2z"/>
	<path class="st18" d="M111.7,39.6c0.3,0,0.5,0.6,0.5,1.3c0,0.7-0.2,1.3-0.5,1.3c-0.3,0-0.5-0.6-0.5-1.3
		C111.2,40.2,111.4,39.6,111.7,39.6z"/>
	<path class="st18" d="M111.8,49c0.3,0,0.5,0.6,0.5,1.3c0,0.7-0.2,1.3-0.5,1.3c-0.3,0-0.5-0.6-0.5-1.3C111.2,49.6,111.5,49,111.8,49
		z"/>
	<path class="st18" d="M109.2,46.4c0.3,0,0.5,0.6,0.5,1.3c0,0.7-0.2,1.3-0.5,1.3c-0.3,0-0.5-0.6-0.5-1.3
		C108.6,47,108.9,46.4,109.2,46.4z"/>
	<path class="st18" d="M109.2,41.1c0.3,0,0.5,0.6,0.5,1.3s-0.2,1.3-0.5,1.3c-0.3,0-0.5-0.6-0.5-1.3
		C108.6,41.7,108.9,41.1,109.2,41.1z"/>
	<path class="st18" d="M111.7,44.3c0.3,0,0.5,0.6,0.5,1.3s-0.2,1.3-0.5,1.3c-0.3,0-0.5-0.6-0.5-1.3
		C111.2,44.9,111.4,44.3,111.7,44.3z"/>
	<path class="st18" d="M106.1,44.3c0.3,0,0.5,0.6,0.5,1.3c0,0.7-0.2,1.3-0.5,1.3c-0.3,0-0.5-0.6-0.5-1.3
		C105.6,44.9,105.9,44.3,106.1,44.3z"/>
	<path class="st18" d="M103,46.9c0.3,0,0.5,0.6,0.5,1.3s-0.2,1.3-0.5,1.3c-0.3,0-0.5-0.6-0.5-1.3C102.5,47.5,102.7,46.9,103,46.9z"
		/>
	<path class="st18" d="M114.3,46.9c0.3,0,0.5,0.6,0.5,1.3s-0.2,1.3-0.5,1.3c-0.3,0-0.5-0.6-0.5-1.3C113.8,47.5,114,46.9,114.3,46.9z
		"/>
	<path class="st18" d="M109.2,51.6c0.3,0,0.5,0.6,0.5,1.3c0,0.7-0.2,1.3-0.5,1.3c-0.3,0-0.5-0.6-0.5-1.3
		C108.6,52.2,108.9,51.6,109.2,51.6z"/>
	<path class="st18" d="M106.6,49c0.3,0,0.5,0.6,0.5,1.3c0,0.7-0.2,1.3-0.5,1.3c-0.3,0-0.5-0.6-0.5-1.3C106.1,49.6,106.3,49,106.6,49
		z"/>
</g>
<g id="Layer_2_3_">
	<path class="st6" d="M83.5,33.2C83.5,33.2,83.5,33.2,83.5,33.2C83.5,33.2,83.5,33.2,83.5,33.2L83.5,33.2z"/>
	<path class="st6" d="M87.2,57.5c-0.9,1-2.5,1-3.5,0c-13.1-14.8-10.2-21.3-5.6-24.1c0.3,0.2,0.5,0.3,0.8,0.4
		c1.6,0.6,3.6,0.1,4.6-0.7c0,1.9,1.3,4.5,2.2,4.5c0.9,0,1.6-2.6,1.5-4.5c0,0,0,0,0-0.1c0,0,0,0,0.1,0.1c0.9,0.8,3,1.4,4.6,0.7
		c0.3-0.1,0.6-0.3,0.8-0.4C97.5,36.2,100.3,42.8,87.2,57.5z"/>
	<path class="st7" d="M95.3,30.2c0,0.1-1,2.1-2.6,3.2c-0.3,0.2-0.5,0.3-0.8,0.4c-1.6,0.7-3.7,0.1-4.6-0.7c0,0,0,0-0.1-0.1
		c0,0,0,0,0,0.1c0,2-0.7,4.5-1.5,4.5c-0.9,0-2.2-2.5-2.2-4.5c0,0,0,0,0,0h0c0,0,0,0,0,0c-0.9,0.8-3,1.3-4.6,0.7
		c-0.3-0.1-0.6-0.3-0.8-0.4c-1.6-1.1-2.5-3.1-2.5-3.2c0,0,0,0,0,0c0.4,0.7,1.8,1.3,1.8,1.3c1.3,0.6,2.3,0.7,3,0.6
		c-1.6-1.3-2.1-4-2.1-4.2c0,0,0,0,0,0c0.2,0.7,1.4,1.7,1.4,1.7c1.8,1.4,3,1.5,3.8,1.3c0.4-0.1,0.8-0.3,1.1-0.4
		c0.1-0.3,0.1-0.7,0-1.1c0-0.1,0-0.2,0-0.3c0-1.5-0.7-3.3-0.9-3.9c0,0,0,0,0,0c0,0,0,0,0,0c0,0,0.2-0.1,0.5-0.2
		c0.3,0,0.7-0.1,1.2-0.1c0.9,0,1.6,0.1,1.7,0.2c0,0,0,0,0,0c-0.2,0.5-0.9,2.4-0.9,3.9v0.1c0,0.1,0,0.2,0,0.2c0,0.4,0,0.7,0,1
		c0.5-0.1,1,0.2,1.5,0.4c0.8,0.2,2,0.1,3.8-1.3c0,0,1.2-1,1.4-1.7c0,0,0,0,0,0c0,0.2-0.6,2.9-2.2,4.2c0.7,0,1.5-0.1,2.6-0.6
		C93.4,31.6,94.9,31,95.3,30.2C95.3,30.3,95.3,30.3,95.3,30.2z"/>
	<path class="st18" d="M82.4,39.6c0.3,0,0.5,0.6,0.5,1.3c0,0.7-0.2,1.3-0.5,1.3c-0.3,0-0.5-0.6-0.5-1.3
		C81.8,40.2,82.1,39.6,82.4,39.6z"/>
	<path class="st18" d="M79.8,37c0.3,0,0.5,0.6,0.5,1.3s-0.2,1.3-0.5,1.3c-0.3,0-0.5-0.6-0.5-1.3C79.2,37.6,79.5,37,79.8,37z"/>
	<path class="st18" d="M79.8,42.2c0.3,0,0.5,0.6,0.5,1.3c0,0.7-0.2,1.3-0.5,1.3c-0.3,0-0.5-0.6-0.5-1.3
		C79.2,42.8,79.5,42.2,79.8,42.2z"/>
	<path class="st18" d="M77.2,39.6c0.3,0,0.5,0.6,0.5,1.3c0,0.7-0.2,1.3-0.5,1.3s-0.5-0.6-0.5-1.3C76.7,40.2,76.9,39.6,77.2,39.6z"/>
	<path class="st18" d="M93.7,39.6c0.3,0,0.5,0.6,0.5,1.3c0,0.7-0.2,1.3-0.5,1.3c-0.3,0-0.5-0.6-0.5-1.3
		C93.1,40.2,93.4,39.6,93.7,39.6z"/>
	<path class="st18" d="M91.1,37c0.3,0,0.5,0.6,0.5,1.3s-0.2,1.3-0.5,1.3c-0.3,0-0.5-0.6-0.5-1.3C90.6,37.6,90.8,37,91.1,37z"/>
	<path class="st18" d="M91.1,42.2c0.3,0,0.5,0.6,0.5,1.3c0,0.7-0.2,1.3-0.5,1.3c-0.3,0-0.5-0.6-0.5-1.3
		C90.6,42.8,90.8,42.2,91.1,42.2z"/>
	<path class="st18" d="M88.5,39.6c0.3,0,0.5,0.6,0.5,1.3c0,0.7-0.2,1.3-0.5,1.3c-0.3,0-0.5-0.6-0.5-1.3C88,40.2,88.2,39.6,88.5,39.6
		z"/>
	<path class="st18" d="M88.5,49c0.3,0,0.5,0.6,0.5,1.3c0,0.7-0.2,1.3-0.5,1.3c-0.3,0-0.5-0.6-0.5-1.3C88,49.6,88.2,49,88.5,49z"/>
	<path class="st18" d="M85.9,46.4c0.3,0,0.5,0.6,0.5,1.3c0,0.7-0.2,1.3-0.5,1.3c-0.3,0-0.5-0.6-0.5-1.3C85.4,47,85.7,46.4,85.9,46.4
		z"/>
	<path class="st18" d="M85.9,41.1c0.3,0,0.5,0.6,0.5,1.3s-0.2,1.3-0.5,1.3c-0.3,0-0.5-0.6-0.5-1.3C85.4,41.7,85.7,41.1,85.9,41.1z"
		/>
	<path class="st18" d="M88.5,44.3c0.3,0,0.5,0.6,0.5,1.3s-0.2,1.3-0.5,1.3c-0.3,0-0.5-0.6-0.5-1.3C88,44.9,88.2,44.3,88.5,44.3z"/>
	<path class="st18" d="M82.9,44.3c0.3,0,0.5,0.6,0.5,1.3c0,0.7-0.2,1.3-0.5,1.3c-0.3,0-0.5-0.6-0.5-1.3
		C82.4,44.9,82.6,44.3,82.9,44.3z"/>
	<path class="st18" d="M79.8,46.9c0.3,0,0.5,0.6,0.5,1.3s-0.2,1.3-0.5,1.3c-0.3,0-0.5-0.6-0.5-1.3C79.2,47.5,79.5,46.9,79.8,46.9z"
		/>
	<path class="st18" d="M91.1,46.9c0.3,0,0.5,0.6,0.5,1.3s-0.2,1.3-0.5,1.3c-0.3,0-0.5-0.6-0.5-1.3C90.6,47.5,90.8,46.9,91.1,46.9z"
		/>
	<path class="st18" d="M85.9,51.6c0.3,0,0.5,0.6,0.5,1.3c0,0.7-0.2,1.3-0.5,1.3c-0.3,0-0.5-0.6-0.5-1.3
		C85.4,52.2,85.7,51.6,85.9,51.6z"/>
	<path class="st18" d="M83.3,49c0.3,0,0.5,0.6,0.5,1.3c0,0.7-0.2,1.3-0.5,1.3c-0.3,0-0.5-0.6-0.5-1.3C82.8,49.6,83.1,49,83.3,49z"/>
</g>
<g id="Layer_3_2_">
	<path class="st7" d="M113,33.9C112.9,33.9,112.9,33.9,113,33.9C112.9,33.9,112.9,33.9,113,33.9L113,33.9z"/>
	<path class="st7" d="M132,33.8c-0.1,0-0.2,0-0.3,0c0-0.1,0-0.2,0-0.3C131.8,33.6,131.9,33.7,132,33.8z"/>
	<path class="st7" d="M113,33.9C112.9,33.9,112.9,33.9,113,33.9C112.9,33.9,112.9,33.9,113,33.9L113,33.9z"/>
</g>
<g>
	<path class="st6" d="M53.8,6.3C53.8,6.3,53.8,6.3,53.8,6.3C53.8,6.3,53.8,6.3,53.8,6.3L53.8,6.3z"/>
	<path class="st19" d="M56.6,8.5c0.5-0.3,0.2-2.1-0.4-3.4c0,0,0,0,0,0c0,0,0,0,0.1,0c0.8,0.2,2.4,0,3.2-1c0.1-0.2,0.3-0.3,0.4-0.5
		c4,0.3,7.8,3.7,3.9,17.3c-0.1,0.5-0.5,0.8-0.9,1"/>
	<path class="st3" d="M62.9,21.9c-0.4,0.2-0.9,0.2-1.4,0C48.4,16.5,48.3,11.4,50.4,8.1c0.2,0,0.4,0,0.7,0c1.2-0.1,2.4-1.1,2.7-1.9
		c0.6,1.2,2.2,2.5,2.8,2.2"/>
	<path class="st20" d="M52.5,0.5c0.6-0.3,1-0.4,1.2-0.4c0,0,0,0,0,0c0,0.4,0.2,1.8,0.6,2.8l0,0.1c0,0.1,0.1,0.1,0.1,0.1
		c0.1,0.2,0.2,0.5,0.3,0.7c0.3-0.2,0.7-0.1,1.1-0.2c0.6-0.1,1.3-0.6,2-2c0,0,0.5-1,0.4-1.5c0,0,0,0,0,0c0,0.1,0.5,2-0.1,3.4
		c0.4-0.2,0.9-0.6,1.5-1.2c0,0,0.7-0.8,0.8-1.4c0,0,0,0,0,0c0,0.1,0,1.7-0.7,2.8c-0.1,0.2-0.2,0.4-0.4,0.5c-0.8,0.9-2.4,1.2-3.2,1
		c0,0,0,0-0.1,0c0,0,0,0,0,0c0.6,1.3,1,3.1,0.4,3.4c-0.6,0.3-2.2-1-2.8-2.2c0,0,0,0,0,0l0,0c0,0,0,0,0,0c-0.4,0.8-1.5,1.8-2.7,1.9
		c-0.2,0-0.4,0-0.7,0c-1.3-0.2-2.6-1.2-2.6-1.3c0,0,0,0,0,0c0.4,0.3,1.6,0.3,1.6,0.3c1,0,1.7-0.3,2.1-0.6c-1.4-0.4-2.6-1.9-2.7-2
		c0,0,0,0,0,0c0.4,0.4,1.4,0.6,1.4,0.6c1.6,0.3,2.4,0,2.8-0.3c0.2-0.2,0.4-0.4,0.6-0.6c-0.1-0.2-0.2-0.5-0.3-0.7
		c0-0.1,0-0.1-0.1-0.2c-0.5-1-1.5-1.9-1.8-2.2c0,0,0,0,0,0c0,0,0,0,0,0c0,0,0.1-0.1,0.3-0.3C52,0.8,52.3,0.6,52.5,0.5"/>
	<g>
		<g id="XMLID_18_">
			<g>
				<polygon class="st21" points="60.9,11.6 61,20.8 58.8,14.4 57.5,16 56.5,9.3 58.2,8.2 58.8,13.3 				"/>
			</g>
		</g>
	</g>
	<path class="st22" d="M60.5,5.1c1.8,0.4,2.5,2.9,3,2.8c0.3-0.1,0.3-0.7,0.3-0.8c0-1.4-1.9-2.6-3.4-2.5c-0.5,0-1,0.2-1,0.4
		C59.4,5,59.9,4.9,60.5,5.1z"/>
</g>
<g>
	<path class="st6" d="M33.3,38.9C33.3,38.9,33.3,38.9,33.3,38.9C33.3,38.9,33.3,38.9,33.3,38.9L33.3,38.9z"/>
	<path class="st19" d="M36.1,41.1c0.5-0.3,0.2-2.1-0.4-3.4c0,0,0,0,0,0c0,0,0,0,0.1,0c0.8,0.2,2.4,0,3.2-1c0.1-0.2,0.3-0.3,0.4-0.5
		c4,0.3,7.8,3.7,3.9,17.3c-0.1,0.5-0.5,0.8-0.9,1"/>
	<path class="st3" d="M42.4,54.5c-0.4,0.2-0.9,0.2-1.4,0C28,49.1,27.8,44,29.9,40.7c0.2,0,0.4,0,0.7,0c1.2-0.1,2.4-1.1,2.7-1.9
		c0.6,1.2,2.2,2.5,2.8,2.2"/>
	<path class="st20" d="M32.1,33.1c0.6-0.3,1-0.4,1.2-0.4c0,0,0,0,0,0c0,0.4,0.2,1.8,0.6,2.8l0,0.1c0,0.1,0.1,0.1,0.1,0.1
		c0.1,0.2,0.2,0.5,0.3,0.7c0.3-0.2,0.7-0.1,1.1-0.2c0.6-0.1,1.3-0.6,2-2c0,0,0.5-1,0.4-1.5c0,0,0,0,0,0c0,0.1,0.5,2-0.1,3.4
		c0.4-0.2,0.9-0.6,1.5-1.2c0,0,0.7-0.8,0.8-1.4c0,0,0,0,0,0c0,0.1,0,1.7-0.7,2.8c-0.1,0.2-0.2,0.4-0.4,0.5c-0.8,0.9-2.4,1.2-3.2,1
		c0,0,0,0-0.1,0c0,0,0,0,0,0c0.6,1.3,1,3.1,0.4,3.4c-0.6,0.3-2.2-1-2.8-2.2c0,0,0,0,0,0l0,0c0,0,0,0,0,0c-0.4,0.8-1.5,1.8-2.7,1.9
		c-0.2,0-0.4,0-0.7,0c-1.3-0.2-2.6-1.2-2.6-1.3c0,0,0,0,0,0c0.4,0.3,1.6,0.3,1.6,0.3c1,0,1.7-0.3,2.1-0.6c-1.4-0.4-2.6-1.9-2.7-2
		c0,0,0,0,0,0c0.4,0.4,1.4,0.6,1.4,0.6c1.6,0.3,2.4,0,2.8-0.3c0.2-0.2,0.4-0.4,0.6-0.6c-0.1-0.2-0.2-0.5-0.3-0.7
		c0-0.1,0-0.1-0.1-0.2c-0.5-1-1.5-1.9-1.8-2.2c0,0,0,0,0,0c0,0,0,0,0,0c0,0,0.1-0.1,0.3-0.3C31.5,33.4,31.8,33.2,32.1,33.1"/>
	<g>
		<g id="XMLID_21_">
			<g>
				<polygon class="st21" points="40.4,44.2 40.5,53.4 38.3,47 37,48.6 36.1,41.9 37.7,40.8 38.3,45.9 				"/>
			</g>
		</g>
	</g>
	<path class="st22" d="M40,37.7c1.8,0.4,2.5,2.9,3,2.8c0.3-0.1,0.3-0.7,0.3-0.8c0-1.4-1.9-2.6-3.4-2.5c-0.5,0-1,0.2-1,0.4
		C38.9,37.6,39.5,37.5,40,37.7z"/>
</g>
<polyline class="st23" points="64.4,50.4 67.1,39 64.1,39.8 65.1,32.1 62.6,32.8 61.5,42.5 64.7,41.6 64.4,50.4 "/>
<g>
	<path class="st24" d="M0.3,11.7c0.1-0.3,0.4-0.4,0.7-0.4c0.4,0,0.7,0.2,0.7,0.7c0,0.5-0.4,0.8-0.7,0.8c-0.6,0-1-0.4-1-1.1
		C0,10,1.7,9.2,3.5,9.2c1.4,0,2.7,0.4,2.7,1.6c0,0.9-0.7,1.3-1.6,1.4c1.1,0.1,1.9,0.4,1.9,1.4c0,1.1-1,1.6-2.7,1.6H2v-2.9
		c0-1.5,0.7-2.1,1.7-2.3l0.1,0.1c-0.3,0.2-0.3,0.6-0.3,0.9v1.2c0.8,0,1.1-0.5,1.1-1.3C4.7,10,4.1,9.5,3,9.5c-1.4,0-2.7,0.9-2.7,2.1
		C0.3,11.6,0.3,11.7,0.3,11.7z M3.8,14.9c0.9,0,1.1-0.5,1.1-1.3c0-0.8-0.4-1.2-1.2-1.2H3.5v2.5H3.8z"/>
	<path class="st24" d="M8.4,13.5c0.1,0.9,0.5,1.3,1.1,1.3c0.8,0,1.4-0.6,1.7-1.8l0.2,0c-0.4,1.5-1.2,2.2-2.5,2.2
		c-1.1,0-2.1-0.7-2.1-2.1c0-1.5,1-2.1,2-2.1c1,0,1.7,0.4,1.7,1.3c0,1-0.8,1.3-1.8,1.3C8.6,13.5,8.5,13.5,8.4,13.5z M8.4,13.3
		c0.6,0,0.8-0.6,0.8-1.2c0-0.6-0.1-0.8-0.3-0.8c-0.3,0-0.5,0.4-0.5,1.7C8.4,13,8.4,13.1,8.4,13.3z"/>
	<path class="st24" d="M11.5,11c0.5,0,0.8,0.2,1,0.5c0.2-0.4,0.6-0.6,1-0.6c0.6,0,1,0.4,1,1.1c0,0.6-0.4,0.9-0.8,0.9
		c-0.4,0-0.7-0.3-0.7-0.7c0-0.4,0.3-0.7,0.7-0.7c0.3,0,0.5,0.1,0.6,0.3c-0.1-0.5-0.4-0.7-0.8-0.7c-0.4,0-0.9,0.2-0.9,1.1V15H11v-4
		H11.5z"/>
	<path class="st24" d="M15.2,11c0.5,0,0.8,0.2,1,0.5c0.2-0.4,0.6-0.6,1-0.6c0.6,0,1,0.4,1,1.1c0,0.6-0.4,0.9-0.8,0.9
		c-0.4,0-0.7-0.3-0.7-0.7c0-0.4,0.3-0.7,0.7-0.7c0.3,0,0.5,0.1,0.6,0.3c-0.1-0.5-0.4-0.7-0.8-0.7c-0.4,0-0.9,0.2-0.9,1.1V15h-1.5v-4
		H15.2z"/>
	<path class="st24" d="M20.1,14.9H20c-0.8,0-1.4-0.3-1.4-1.5V11h0.4c0.8,0,1.1,0.4,1.1,1v2c0,0.4,0.1,0.7,0.4,0.7s0.4-0.3,0.4-0.8
		V11h1.5v4.2c0,1.2-1,1.7-2,1.7c-0.8,0-1.6-0.2-1.6-0.9C18.7,15.3,19.7,15.1,20.1,14.9L20.1,14.9z M20.8,14.8L20.8,14.8
		c-0.6,0.3-0.8,0.5-0.8,1.2c0,0.4,0.1,0.7,0.4,0.7c0.3,0,0.4-0.2,0.4-0.7V14.8z"/>
	<path class="st24" d="M24.9,13.7c0-1,0.8-1.3,1.7-1.4c-0.8-0.1-1.5-0.6-1.5-1.5c0-0.8,0.7-1.6,2-1.6c1.2,0,1.7,0.6,1.7,1.4
		c0,0.5-0.3,0.8-0.8,0.8c-0.4,0-0.7-0.3-0.7-0.7c0-0.4,0.3-0.7,0.7-0.7c0.2,0,0.4,0.1,0.4,0.2c-0.1-0.5-0.5-0.7-1-0.7
		c-0.6,0-1,0.4-1,1.1c0,0.8,0.6,1.4,1.6,1.4c0,0,0,0.3,0,0.3c-1,0-1.4,0.5-1.4,1.3c0,0.6,0.3,1,0.9,1c0.7,0,1.3-0.6,1.6-1.8l0.2,0.1
		c-0.3,1.2-1,2.2-2.4,2.2C25.9,15.1,24.9,14.7,24.9,13.7z"/>
	<path class="st24" d="M32,13c-0.3,1.1-0.6,2.1-1.6,2.1c-0.9,0-1.2-0.4-1.2-1.3V9.2h0.5c0.7,0,1,0.3,1,0.9v4.1
		c0,0.3,0.1,0.4,0.3,0.4c0.2,0,0.6-0.4,0.9-1.7L32,13z"/>
	<path class="st24" d="M33.1,13.5c0.1,0.9,0.5,1.3,1.1,1.3c0.8,0,1.4-0.6,1.7-1.8l0.2,0c-0.4,1.5-1.2,2.2-2.5,2.2
		c-1.1,0-2.1-0.7-2.1-2.1c0-1.5,1-2.1,2-2.1c1,0,1.7,0.4,1.7,1.3c0,1-0.8,1.3-1.8,1.3C33.3,13.5,33.2,13.5,33.1,13.5z M33.1,13.3
		c0.6,0,0.8-0.6,0.8-1.2c0-0.6-0.1-0.8-0.3-0.8c-0.3,0-0.5,0.4-0.5,1.7C33.1,13,33.1,13.1,33.1,13.3z"/>
	<path class="st24" d="M35.5,13c0-1.5,1.1-2.1,2.2-2.1c1,0,1.6,0.6,1.6,1.3c0,0.5-0.3,0.9-0.8,0.9c-0.4,0-0.7-0.3-0.7-0.7
		c0-0.4,0.3-0.7,0.7-0.7c0.2,0,0.4,0.1,0.5,0.2c-0.1-0.5-0.4-0.7-0.8-0.7c-0.6,0-1,0.6-1,1.8c0,1.1,0.3,1.7,1.1,1.7
		c0.6,0,1.2-0.4,1.7-1.8L40,13c-0.6,1.7-1.4,2.1-2.4,2.1C36.4,15.1,35.5,14.4,35.5,13z"/>
	<path class="st24" d="M41.8,11.3h-0.6v2.9c0,0.3,0.1,0.4,0.3,0.4c0.3,0,0.7-0.5,1-1.7l0.2,0.1c-0.2,1.1-0.7,2.1-1.7,2.1
		c-0.8,0-1.2-0.4-1.2-1.3v-2.5h-0.5V11h0.5V9.7h0.4c0.8,0,1.1,0.3,1.1,0.9V11h0.6V11.3z"/>
	<path class="st24" d="M42.9,11c0.5,0,0.8,0.2,1,0.5c0.2-0.4,0.6-0.6,1-0.6c0.6,0,1,0.4,1,1.1c0,0.6-0.4,0.9-0.8,0.9
		c-0.4,0-0.7-0.3-0.7-0.7c0-0.4,0.3-0.7,0.7-0.7c0.3,0,0.5,0.1,0.6,0.3c-0.1-0.5-0.4-0.7-0.8-0.7c-0.4,0-0.9,0.2-0.9,1.1V15h-1.5v-4
		H42.9z"/>
	<path class="st24" d="M46.9,10.6c-0.5,0-0.9-0.3-0.9-0.8c0-0.5,0.4-0.8,0.9-0.8c0.5,0,0.9,0.3,0.9,0.8
		C47.8,10.3,47.4,10.6,46.9,10.6z M49,13.1c-0.2,1-0.6,2-1.6,2c-0.9,0-1.2-0.5-1.2-1.4V11h0.6c0.6,0,0.9,0.2,0.9,0.9v2.3
		c0,0.3,0.1,0.4,0.3,0.4c0.2,0,0.6-0.4,0.9-1.6L49,13.1z"/>
	<path class="st24" d="M48.5,13c0-1.5,1.1-2.1,2.2-2.1c1,0,1.6,0.6,1.6,1.3c0,0.5-0.3,0.9-0.8,0.9c-0.4,0-0.7-0.3-0.7-0.7
		c0-0.4,0.3-0.7,0.7-0.7c0.2,0,0.4,0.1,0.5,0.2c-0.1-0.5-0.4-0.7-0.8-0.7c-0.6,0-1,0.6-1,1.8c0,1.1,0.3,1.7,1.1,1.7
		c0.6,0,1.2-0.4,1.7-1.8L53,13c-0.6,1.7-1.4,2.1-2.4,2.1C49.5,15.1,48.5,14.4,48.5,13z"/>
</g>
<ellipse class="st25" cx="-57.6" cy="14.6" rx="14.7" ry="12.2"/>
</svg>
