<?xml version="1.0" encoding="utf-8"?>
<!-- Generator: Adobe Illustrator 21.1.0, SVG Export Plug-In . SVG Version: 6.00 Build 0)  -->
<svg version="1.1" id="Layer_1" xmlns="http://www.w3.org/2000/svg" xmlns:xlink="http://www.w3.org/1999/xlink" x="0px" y="0px"
	 viewBox="0 0 432 216" style="enable-background:new 0 0 432 216;" xml:space="preserve">
<style type="text/css">
	.st0{fill:#39B54A;}
	.st1{fill:#F7F2BA;}
	.st2{fill:#ED1C24;}
	.st3{fill:#231F20;}
</style>
<g>
	<path class="st0" d="M432,0c0,119.3-96.7,216-216,216S0,119.3,0,0"/>
	<path class="st1" d="M415.8,0c0,110.3-89.4,199.8-199.8,199.8S16.2,110.3,16.2,0"/>
	<path class="st2" d="M407.7,0c0,105.9-85.8,191.7-191.7,191.7S24.3,105.9,24.3,0"/>
	<g>
		<ellipse class="st3" cx="87.1" cy="95.8" rx="3.7" ry="8.9"/>
		<ellipse class="st3" cx="104.7" cy="113.6" rx="3.7" ry="8.9"/>
		<ellipse class="st3" cx="122.3" cy="95.8" rx="3.7" ry="8.9"/>
		<ellipse class="st3" cx="104.7" cy="78.1" rx="3.7" ry="8.9"/>
	</g>
	<g>
		<ellipse class="st3" cx="123.9" cy="46.9" rx="3.7" ry="8.9"/>
		<ellipse class="st3" cx="141.5" cy="64.6" rx="3.7" ry="8.9"/>
		<ellipse class="st3" cx="159.1" cy="46.9" rx="3.7" ry="8.9"/>
		<ellipse class="st3" cx="141.5" cy="29.1" rx="3.7" ry="8.9"/>
	</g>
	<g>
		<ellipse class="st3" cx="172" cy="87" rx="3.7" ry="8.9"/>
		<ellipse class="st3" cx="189.6" cy="104.7" rx="3.7" ry="8.9"/>
		<ellipse class="st3" cx="207.2" cy="87" rx="3.7" ry="8.9"/>
		<ellipse class="st3" cx="189.6" cy="69.2" rx="3.7" ry="8.9"/>
	</g>
	<g>
		<ellipse class="st3" cx="232" cy="91.3" rx="3.7" ry="8.9"/>
		<ellipse class="st3" cx="249.6" cy="109" rx="3.7" ry="8.9"/>
		<ellipse class="st3" cx="267.2" cy="91.3" rx="3.7" ry="8.9"/>
		<ellipse class="st3" cx="249.6" cy="73.5" rx="3.7" ry="8.9"/>
	</g>
	<g>
		<ellipse class="st3" cx="204.7" cy="38" rx="3.7" ry="8.9"/>
		<ellipse class="st3" cx="222.3" cy="55.8" rx="3.7" ry="8.9"/>
		<ellipse class="st3" cx="239.9" cy="38" rx="3.7" ry="8.9"/>
		<ellipse class="st3" cx="222.3" cy="20.2" rx="3.7" ry="8.9"/>
	</g>
	<g>
		<ellipse class="st3" cx="278.1" cy="42.5" rx="3.7" ry="8.9"/>
		<ellipse class="st3" cx="295.7" cy="60.3" rx="3.7" ry="8.9"/>
		<ellipse class="st3" cx="313.3" cy="42.5" rx="3.7" ry="8.9"/>
		<ellipse class="st3" cx="295.7" cy="24.8" rx="3.7" ry="8.9"/>
	</g>
	<g>
		<ellipse class="st3" cx="48.2" cy="38" rx="3.7" ry="8.9"/>
		<ellipse class="st3" cx="65.8" cy="55.8" rx="3.7" ry="8.9"/>
		<ellipse class="st3" cx="83.4" cy="38" rx="3.7" ry="8.9"/>
		<ellipse class="st3" cx="65.8" cy="20.2" rx="3.7" ry="8.9"/>
	</g>
	<g>
		<ellipse class="st3" cx="137.9" cy="132.1" rx="3.7" ry="8.9"/>
		<ellipse class="st3" cx="155.5" cy="149.9" rx="3.7" ry="8.9"/>
		<ellipse class="st3" cx="173.1" cy="132.1" rx="3.7" ry="8.9"/>
		<ellipse class="st3" cx="155.5" cy="114.4" rx="3.7" ry="8.9"/>
	</g>
	<g>
		<ellipse class="st3" cx="198.4" cy="149.9" rx="3.7" ry="8.9"/>
		<ellipse class="st3" cx="216" cy="167.7" rx="3.7" ry="8.9"/>
		<ellipse class="st3" cx="233.6" cy="149.9" rx="3.7" ry="8.9"/>
		<ellipse class="st3" cx="216" cy="132.1" rx="3.7" ry="8.9"/>
	</g>
	<g>
		<ellipse class="st3" cx="264.2" cy="134.6" rx="3.7" ry="8.9"/>
		<ellipse class="st3" cx="281.8" cy="152.4" rx="3.7" ry="8.9"/>
		<ellipse class="st3" cx="299.4" cy="134.6" rx="3.7" ry="8.9"/>
		<ellipse class="st3" cx="281.8" cy="116.9" rx="3.7" ry="8.9"/>
	</g>
	<g>
		<ellipse class="st3" cx="312.8" cy="95.8" rx="3.7" ry="8.9"/>
		<ellipse class="st3" cx="330.4" cy="113.6" rx="3.7" ry="8.9"/>
		<ellipse class="st3" cx="348" cy="95.8" rx="3.7" ry="8.9"/>
		<ellipse class="st3" cx="330.4" cy="78.1" rx="3.7" ry="8.9"/>
	</g>
	<g>
		<ellipse class="st3" cx="351.7" cy="38" rx="3.7" ry="8.9"/>
		<ellipse class="st3" cx="369.3" cy="55.8" rx="3.7" ry="8.9"/>
		<ellipse class="st3" cx="386.9" cy="38" rx="3.7" ry="8.9"/>
		<ellipse class="st3" cx="369.3" cy="20.2" rx="3.7" ry="8.9"/>
	</g>
</g>
</svg>
