<?xml version="1.0" encoding="utf-8"?>
<!-- Generator: Adobe Illustrator 21.1.0, SVG Export Plug-In . SVG Version: 6.00 Build 0)  -->
<svg version="1.1" id="Layer_1" xmlns="http://www.w3.org/2000/svg" xmlns:xlink="http://www.w3.org/1999/xlink" x="0px" y="0px"
	 viewBox="0 0 223.2 216.5" style="enable-background:new 0 0 223.2 216.5;" xml:space="preserve">
<style type="text/css">
	.st0{fill:#9E1F63;}
	.st1{fill:#B74FB7;}
	.st2{fill:#92278F;}
</style>
<g>
	<g id="XMLID_4_">
		<g>
			<path class="st0" d="M214.9,88.5c18.8,18.8-1.3,33.8-1.3,33.8c5.6,16.9-10,28.8-10,28.8c0,25-16.3,29.4-16.3,29.4
				c0,27.5-25,21.3-25,21.3c0,12.5-16.9,10.6-16.9,10.6c-15.7,10.6-26.9-4.4-26.9-4.4c-21.3,8.8-30.7-13.1-30.7-13.1
				c-23.8,3.8-26.9-18.8-26.9-18.8C19,158,20.2,131.1,20.2,131.1c-21.3-10-13.8-25-13.8-25C-4.8,89.7,2.7,74.7,2.7,74.7
				c-5.6-26.9,44.5-52.6,44.5-52.6c82-42.6,135.9-11.9,148.4,0c11.9,11.9,8.8,23.8,8.8,23.8C222.5,65.3,214.9,88.5,214.9,88.5z
				 M152.3,29.5c0.1-0.4,0.1-0.8,0-1.1c-1.3-6.3-26.3-6.3-55.1,0S46.5,45.9,47.8,52.2c0.3,1.1,1.1,1.9,2.3,2.6
				c0.1,0.1,0.3,0.1,0.4,0.3c0.4,0.3,0.9,0.5,1.6,0.7c7.9,3.1,28.1,1.9,51-3.3C130.8,46,152.3,36,152.3,29.5z"/>
			<path class="st1" d="M50.5,55.1c0.5,0.3,1,0.4,1.6,0.7C51.4,55.6,50.9,55.3,50.5,55.1z"/>
			<path class="st1" d="M103.1,52.4c-22.9,5.3-43.1,6.4-51,3.3c8.5,3,28.4,1.8,50.8-3.6c27.1-6.5,48.1-16.3,49.5-22.7
				C152.3,36,130.8,46,103.1,52.4z"/>
			<path class="st2" d="M48.5,52.7c-1.4-6.4,20.6-17,49.2-23.5c28.7-6.6,53.1-6.7,54.5-0.3c0.1,0.2,0.1,0.4,0.1,0.6
				c-1.3,6.3-22.4,16.2-49.5,22.7c-22.5,5.4-42.3,6.6-50.8,3.6c-0.6-0.3-1.1-0.4-1.6-0.7c-0.1-0.1-0.3-0.2-0.4-0.3
				C49.3,54.2,48.7,53.5,48.5,52.7z"/>
		</g>
		<g>
		</g>
	</g>
</g>
</svg>
