<?xml version="1.0" encoding="utf-8"?>
<!-- Generator: Adobe Illustrator 21.1.0, SVG Export Plug-In . SVG Version: 6.00 Build 0)  -->
<svg version="1.1" id="Layer_1" xmlns="http://www.w3.org/2000/svg" xmlns:xlink="http://www.w3.org/1999/xlink" x="0px" y="0px"
	 viewBox="0 0 209 216" style="enable-background:new 0 0 209 216;" xml:space="preserve">
<style type="text/css">
	.st0{fill:#2E3192;}
	.st1{fill:#1B75BC;}
</style>
<g id="XMLID_3_">
	<g>
		<path class="st0" d="M104.5,0C162.4,0,209,48.1,209,108s-46.7,108-104.5,108S0,167.2,0,108C-0.7,48.1,46,0,104.5,0z M172.1,87.1
			c39-35.5-10.5-45.3-10.5-45.3c0-48.1-39-19.5-39-19.5s-41.1-30-41.1,19.5c0,0-49.5,9.8-10.5,45.3c0,0-15.3,59.9,50.9,36.2
			C177.7,148.4,172.1,87.1,172.1,87.1z"/>
		<path class="st1" d="M161.7,41.8c0,0,49.5,9.8,10.5,45.3c0,0,5.6,61.3-50.9,36.2C55.7,147,70.4,87.1,70.4,87.1
			c-39-35.5,10.5-45.3,10.5-45.3c0-49.5,41.1-19.5,41.1-19.5S161.7-5.6,161.7,41.8z M156.1,75.3c0-20.9-16.7-36.9-36.9-36.9
			c-20.9,0-36.9,16.7-36.9,36.9s16.7,36.9,36.9,36.9S156.1,95.5,156.1,75.3z"/>
		<circle class="st0" cx="118.5" cy="75.3" r="36.9"/>
	</g>
</g>
</svg>
