<?xml version="1.0" encoding="utf-8"?>
<!-- Generator: Adobe Illustrator 21.1.0, SVG Export Plug-In . SVG Version: 6.00 Build 0)  -->
<svg version="1.1" id="Layer_1" xmlns="http://www.w3.org/2000/svg" xmlns:xlink="http://www.w3.org/1999/xlink" x="0px" y="0px"
	 viewBox="0 0 149.2 220.1" style="enable-background:new 0 0 149.2 220.1;" xml:space="preserve">
<style type="text/css">
	.st0{fill:#D81D34;}
	.st1{fill:#006838;}
	.st2{fill:#007D38;}
	.st3{fill:#231F20;}
</style>
<g id="Layer_1_1_">
</g>
<g id="Layer_2">
	<path class="st0" d="M86.1,215C223.1,61.1,98.2,42,72.6,42c-20.8,0-146.4,19.1-9.5,173C69.2,221.9,80,221.9,86.1,215z"/>
	<path class="st1" d="M113.6,21.4c-0.2,0-0.3,0-0.5,0.1C113.3,21.4,113.5,21.4,113.6,21.4z"/>
	<path class="st2" d="M74.4,0.2c5.7,0,10.3,0.6,11.2,1.3C84.7,2.2,80,2.8,74.4,2.8c-5.7,0-10.7-0.3-11.3-1c0.2-0.3,1.5-0.7,3.5-1
		C68.7,0.5,71.4,0.2,74.4,0.2z"/>
	<path class="st1" d="M36.8,37.2c-0.3-0.3-0.6-0.6-1-0.9C36.1,36.6,36.5,36.9,36.8,37.2z"/>
	<path class="st1" d="M36,21.8c-0.2,0-0.3-0.1-0.5-0.1C35.7,21.7,35.8,21.8,36,21.8z"/>
	<path class="st1" d="M91.7,42.1l0.1,0.9c-3.1,0.5-6,1-8.5,1.6c-3,0.6-5.8,0.9-8.8,0.9v-0.3c-3.1,0-6.3-0.3-9.1-0.9
		c-2.5-0.6-5.4-1.2-8.5-1.6v-0.3c6.4,1.1,11.2-2.4,11.2-2.4c1.1-2.7,1.4-6.4,1.2-10.5c0.1-0.6,0.1-1.1,0.1-1.7
		C69.3,17.9,64.5,5.6,63.3,2c0-0.1,0-0.1-0.1-0.2c1,0.6,5.5,0.8,11.2,0.8c5.5,0,10.1-0.5,11.1-1.1c-1.2,3.1-6.1,15.9-6.1,26.1
		c0,0.2,0,0.4,0,0.6c0,0.6,0.1,1.1,0.2,1.6c-0.2,3.8,0,7.3,1,9.8C80.9,39.6,85.6,42.9,91.7,42.1z"/>
	<path class="st3" d="M54,96.3c2,0,3.6,3.9,3.6,8.7c0,4.8-1.6,8.7-3.6,8.7s-3.6-3.9-3.6-8.7C50.5,100.2,52.1,96.3,54,96.3z"/>
	<path class="st3" d="M36.8,78.9c2,0,3.6,3.9,3.6,8.7c0,4.8-1.6,8.7-3.6,8.7s-3.6-3.9-3.6-8.7C33.3,82.8,34.9,78.9,36.8,78.9z"/>
	<path class="st3" d="M36.8,113.7c2,0,3.6,3.9,3.6,8.7c0,4.8-1.6,8.7-3.6,8.7s-3.6-3.9-3.6-8.7C33.3,117.5,34.9,113.7,36.8,113.7z"
		/>
	<path class="st3" d="M19.6,96.3c2,0,3.6,3.9,3.6,8.7c0,4.8-1.6,8.7-3.6,8.7S16,109.8,16,105C16.1,100.2,17.7,96.3,19.6,96.3z"/>
	<path class="st3" d="M129,96.3c2,0,3.6,3.9,3.6,8.7c0,4.8-1.6,8.7-3.6,8.7s-3.6-3.9-3.6-8.7C125.5,100.2,127.1,96.3,129,96.3z"/>
	<path class="st3" d="M111.8,78.9c2,0,3.6,3.9,3.6,8.7c0,4.8-1.6,8.7-3.6,8.7s-3.6-3.9-3.6-8.7C108.3,82.8,109.9,78.9,111.8,78.9z"
		/>
	<path class="st3" d="M111.8,113.7c2,0,3.6,3.9,3.6,8.7c0,4.8-1.6,8.7-3.6,8.7s-3.6-3.9-3.6-8.7
		C108.3,117.5,109.9,113.7,111.8,113.7z"/>
	<path class="st3" d="M94.6,96.3c2,0,3.6,3.9,3.6,8.7c0,4.8-1.6,8.7-3.6,8.7S91,109.8,91,105C91.1,100.2,92.7,96.3,94.6,96.3z"/>
	<path class="st3" d="M94.9,158.7c2,0,3.6,3.9,3.6,8.7s-1.6,8.7-3.6,8.7s-3.6-3.9-3.6-8.7C91.4,162.6,93,158.7,94.9,158.7z"/>
	<path class="st3" d="M77.7,141.3c2,0,3.6,3.9,3.6,8.7s-1.6,8.7-3.6,8.7s-3.6-3.9-3.6-8.7C74.2,145.2,75.8,141.3,77.7,141.3z"/>
	<path class="st3" d="M77.7,106.1c2,0,3.6,3.9,3.6,8.7c0,4.8-1.6,8.7-3.6,8.7s-3.6-3.9-3.6-8.7C74.2,110,75.8,106.1,77.7,106.1z"/>
	<path class="st3" d="M94.6,127.3c2,0,3.6,3.9,3.6,8.7s-1.6,8.7-3.6,8.7S91,140.8,91,136C91.1,131.2,92.7,127.3,94.6,127.3z"/>
	<path class="st3" d="M57.6,127.5c2,0,3.6,3.9,3.6,8.7s-1.6,8.7-3.6,8.7S54,141,54,136.2C54.1,131.4,55.7,127.5,57.6,127.5z"/>
	<path class="st3" d="M36.8,144.7c2,0,3.6,3.9,3.6,8.7s-1.6,8.7-3.6,8.7s-3.6-3.9-3.6-8.7C33.3,148.6,34.9,144.7,36.8,144.7z"/>
	<path class="st3" d="M111.8,144.7c2,0,3.6,3.9,3.6,8.7s-1.6,8.7-3.6,8.7s-3.6-3.9-3.6-8.7C108.3,148.6,109.9,144.7,111.8,144.7z"/>
	<path class="st3" d="M77.7,176.1c2,0,3.6,3.9,3.6,8.7s-1.6,8.7-3.6,8.7s-3.6-3.9-3.6-8.7C74.2,179.9,75.8,176.1,77.7,176.1z"/>
	<path class="st3" d="M60.5,158.7c2,0,3.6,3.9,3.6,8.7s-1.6,8.7-3.6,8.7s-3.6-3.9-3.6-8.7C57,162.6,58.6,158.7,60.5,158.7z"/>
</g>
<g id="Layer_3">
	<path class="st1" d="M58.1,40c-3.9-0.9-6.7,2.7-10.8,4.9c-4.7,2.5-12.6,3.9-26.2-1.9c0,0-9.5-4.1-11.9-8.5C9.1,34.3,9,34.2,9,34.2
		s8.6,18.5,22.3,23.9c13.5,5.4,32.1-1.9,33.4-9.2C65.3,45.4,61.8,40.8,58.1,40z"/>
	<path class="st1" d="M73.1,37.1c-3.5-1.8-7.2,0.9-11.7,2c-5.2,1.2-13.1,0.5-24.9-8.5c0,0-8.1-6.4-9.4-11.2C27,19.2,27,19.1,27,19.1
		c-0.1,0,3.6,20,15.5,28.8c11.7,8.6,31.6,6.4,34.6-0.4C78.7,44.2,76.5,38.8,73.1,37.1z"/>
	<path class="st1" d="M78.4,37.1c3.5-1.8,7.2,0.9,11.7,2c5.2,1.2,13.1,0.5,24.9-8.5c0,0,8.1-6.4,9.4-11.2c0.1-0.2,0.1-0.3,0.1-0.3
		c0.1,0-3.6,20-15.5,28.8c-11.7,8.6-31.6,6.4-34.6-0.4C72.9,44.2,75.1,38.8,78.4,37.1z"/>
	<path class="st1" d="M90.5,40c3.9-0.9,6.7,2.7,10.8,4.9c4.7,2.5,12.6,3.9,26.2-1.9c0,0,9.5-4.1,11.9-8.5c0.1-0.2,0.2-0.3,0.2-0.3
		s-8.6,18.5-22.3,23.9c-13.4,5.5-32-1.8-33.3-9.1C83.4,45.4,86.9,40.8,90.5,40z"/>
	<path class="st1" d="M64.3,43.6c4.5-5.9,16.3-6.1,20.4,0.3c1.3,2,1.6,4.3,1.7,6.6c0.6,13.2-4.6,32.6-10.9,32.7
		C67.8,83.4,56.6,53.6,64.3,43.6z"/>
</g>
</svg>
