<?xml version="1.0" encoding="utf-8"?>
<!-- Generator: Adobe Illustrator 21.1.0, SVG Export Plug-In . SVG Version: 6.00 Build 0)  -->
<svg version="1.1" id="Layer_1" xmlns="http://www.w3.org/2000/svg" xmlns:xlink="http://www.w3.org/1999/xlink" x="0px" y="0px"
	 viewBox="0 0 216 80.1" style="enable-background:new 0 0 216 80.1;" xml:space="preserve">
<style type="text/css">
	.st0{fill:#FFEA30;}
	.st1{fill:#FCDE06;}
</style>
<polygon class="st0" points="10.2,17 13.9,14.7 7.1,0 0,4.4 "/>
<path class="st0" d="M112.9,51c-54.4,1.5-94.1-34.4-102-28.4c-0.1,0-0.1,0.1-0.2,0.2c-1.4-4.2-1.2-7.2,0.2-8.3
	c7.9-5.9,47.5,30,102,28.4c54.4,1.5,94.1-34.4,102-28.4c1.4,1,1.6,4,0.2,8.3c-0.1-0.1-0.1-0.1-0.2-0.2C207,16.7,167.3,52.6,112.9,51
	z"/>
<path class="st1" d="M196.2,48.8c-17.1,15.8-47.3,31.8-83.4,31.3c-36.1,0.5-66.2-15.5-83.4-31.3c-10.8-9.8-16.7-19.4-18.8-26.1
	c0.1-0.1,0.1-0.1,0.2-0.2c7.9-5.9,47.5,30,102,28.4c54.4,1.5,94.1-34.4,102-28.4c0.1,0,0.1,0.1,0.2,0.2
	C212.9,29.4,207,39.1,196.2,48.8z"/>
</svg>
