<?xml version="1.0" encoding="utf-8"?>
<!-- Generator: Adobe Illustrator 21.1.0, SVG Export Plug-In . SVG Version: 6.00 Build 0)  -->
<svg version="1.1" id="Layer_1" xmlns="http://www.w3.org/2000/svg" xmlns:xlink="http://www.w3.org/1999/xlink" x="0px" y="0px"
	 viewBox="0 0 223.2 216.5" style="enable-background:new 0 0 223.2 216.5;" xml:space="preserve">
<style type="text/css">
	.st0{fill:#A61E22;}
	.st1{fill:#E5777B;}
</style>
<g>
	<g id="XMLID_1_">
		<g>
			<path class="st0" d="M214.9,88.5c18.8,18.8-1.3,33.8-1.3,33.8c5.6,16.9-10,28.8-10,28.8c0,25-16.3,29.4-16.3,29.4
				c0,27.5-25,21.3-25,21.3c0,12.5-16.9,10.6-16.9,10.6c-15.7,10.6-26.9-4.4-26.9-4.4c-21.3,8.8-30.7-13.1-30.7-13.1
				c-23.8,3.8-26.9-18.8-26.9-18.8c-41.9-18.1-40.7-45-40.7-45c-21.3-10-13.8-25-13.8-25C-4.8,89.7,2.7,74.7,2.7,74.7
				c-5.6-26.9,44.5-52.6,44.5-52.6c82-42.6,135.9-11.9,148.4,0c11.9,11.9,8.8,23.8,8.8,23.8C222.5,65.3,214.9,88.5,214.9,88.5z
				 M152.4,29.5c0-0.1,0-0.3,0-0.4c0-0.2,0-0.5-0.1-0.7c-1.3-6.3-26.3-6.3-55.1,0S46.5,45.9,47.8,52.2c0.3,1.1,1.1,1.9,2.3,2.6
				c0.1,0.1,0.3,0.2,0.4,0.3c0.4,0.3,0.9,0.5,1.6,0.7c7.9,3.1,28.1,1.9,51-3.3c14.3-3.3,26.9-7.6,35.8-11.9c0.3-0.1,0.6-0.3,0.8-0.4
				c0.8-0.4,1.5-0.8,2.3-1.2c0,0,0,0,0,0c0.7-0.4,1.4-0.8,2.1-1.2c2.2-1.3,4-2.5,5.3-3.7c0.3-0.2,0.5-0.5,0.8-0.7
				c1.2-1.2,1.9-2.4,2.1-3.4C152.3,29.8,152.4,29.7,152.4,29.5z"/>
			<path class="st0" d="M152.4,29.1c0,0.1,0,0.3,0,0.4c0,0.2-0.1,0.3-0.1,0.5c0-0.2,0.1-0.3,0.1-0.5
				C152.3,29.4,152.4,29.2,152.4,29.1z"/>
			<path class="st1" d="M50.5,55c0.4,0.3,0.9,0.5,1.5,0.7C51.5,55.4,51,55.3,50.5,55z M52.1,55.7c1.1,0.4,2.4,0.8,3.9,1
				c0.5,0.1,1,0.2,1.6,0.2c0.3,0,0.6,0.1,0.9,0.1c0,0,0.1,0,0.2,0c0.5,0,1.1,0.1,1.6,0.1c0.3,0,0.6,0,1,0.1c0.7,0,1.4,0.1,2.1,0.1
				c10,0.2,24.3-1.4,39.7-5c14.3-3.3,26.9-7.6,35.9-11.8c-8.9,4.3-21.5,8.6-35.8,11.9C80.2,57.7,60,58.9,52.1,55.7
				c-0.7-0.1-1.2-0.3-1.6-0.6c-0.1-0.2-0.3-0.2-0.4-0.3c-1.2-0.7-2-1.5-2.3-2.6c-1.3-6.3,20.6-17.5,49.4-23.8s53.8-6.3,55.1,0
				c0.1,0.2,0.1,0.4,0.1,0.7c0,0.1,0,0.3-0.1,0.4c-1.3,6.3-22.3,16.2-49.5,22.6C80.5,57.5,60.6,58.7,52.1,55.7z"/>
			<path class="st0" d="M152.3,29.5c0,0.2,0,0.3-0.1,0.5c-2.2,6.3-23,15.9-49.3,22.2c-15.4,3.7-29.5,5.4-39.6,5.2
				c-0.7,0-1.4,0-2.1-0.1c-0.3,0-0.7,0-1-0.1c-0.6,0-1.1-0.1-1.6-0.1c-0.1,0-0.1,0-0.2,0c-0.3,0-0.6-0.1-0.9-0.1
				c-0.6-0.1-1.1-0.2-1.6-0.2c-1.5-0.3-2.8-0.6-3.9-1c8.5,3,28.4,1.8,50.7-3.6C130,45.7,151,35.8,152.3,29.5z"/>
			<path class="st0" d="M152.2,30c-0.2,1.1-0.9,2.2-2.1,3.4c-0.2,0.2-0.5,0.5-0.8,0.7c-1.3,1.2-3.1,2.4-5.3,3.7
				c-0.6,0.4-1.3,0.8-2.1,1.2c0,0,0,0,0,0c-0.7,0.4-1.5,0.8-2.3,1.2c-0.3,0.1-0.6,0.3-0.8,0.4c-8.9,4.2-21.5,8.5-35.9,11.8
				c-15.5,3.6-29.7,5.2-39.7,5c10.1,0.2,24.2-1.5,39.6-5.2C129.3,45.9,150,36.3,152.2,30z"/>
			<path class="st0" d="M50.5,55c0.5,0.3,1,0.4,1.5,0.7C51.4,55.5,50.9,55.3,50.5,55z"/>
			<path class="st0" d="M50.1,54.8c0.1,0.1,0.3,0.1,0.4,0.3C50.4,55,50.2,54.9,50.1,54.8z"/>
		</g>
		<g>
		</g>
	</g>
</g>
</svg>
