<?xml version="1.0" encoding="utf-8"?>
<!-- Generator: Adobe Illustrator 21.1.0, SVG Export Plug-In . SVG Version: 6.00 Build 0)  -->
<svg version="1.1" id="Layer_1" xmlns="http://www.w3.org/2000/svg" xmlns:xlink="http://www.w3.org/1999/xlink" x="0px" y="0px"
	 viewBox="0 0 217.2 216" style="enable-background:new 0 0 217.2 216;" xml:space="preserve">
<style type="text/css">
	.st0{fill:#39B54A;}
	.st1{fill:#F7F2BA;}
	.st2{fill:#ED1C24;}
	.st3{fill:#231F20;}
</style>
<g>
	<path class="st0" d="M108.6,0L0,188.1c0,0,42.3,27.9,108.6,27.9s108.6-27.9,108.6-27.9L108.6,0z"/>
	<path class="st1" d="M108.6,0L8.3,173.8c0,0,39.1,25.8,100.3,25.8s100.3-25.8,100.3-25.8L108.6,0z"/>
	<path class="st2" d="M108.6,0L13.3,165.1c0,0,37.1,24.5,95.3,24.5s95.3-24.5,95.3-24.5L108.6,0z"/>
	<g>
		<ellipse class="st3" cx="61.9" cy="115.7" rx="2.2" ry="5.2"/>
		<ellipse class="st3" cx="72.2" cy="126.2" rx="2.2" ry="5.2"/>
		<ellipse class="st3" cx="82.6" cy="115.7" rx="2.2" ry="5.2"/>
		<ellipse class="st3" cx="72.2" cy="105.3" rx="2.2" ry="5.2"/>
	</g>
	<g>
		<ellipse class="st3" cx="45" cy="154.6" rx="2.2" ry="5.2"/>
		<ellipse class="st3" cx="55.4" cy="165.1" rx="2.2" ry="5.2"/>
		<ellipse class="st3" cx="65.8" cy="154.6" rx="2.2" ry="5.2"/>
		<ellipse class="st3" cx="55.4" cy="144.2" rx="2.2" ry="5.2"/>
	</g>
	<g>
		<ellipse class="st3" cx="138.9" cy="154.6" rx="2.2" ry="5.2"/>
		<ellipse class="st3" cx="149.3" cy="165.1" rx="2.2" ry="5.2"/>
		<ellipse class="st3" cx="159.7" cy="154.6" rx="2.2" ry="5.2"/>
		<ellipse class="st3" cx="149.3" cy="144.2" rx="2.2" ry="5.2"/>
	</g>
	<g>
		<ellipse class="st3" cx="95.1" cy="154.6" rx="2.2" ry="5.2"/>
		<ellipse class="st3" cx="105.5" cy="165.1" rx="2.2" ry="5.2"/>
		<ellipse class="st3" cx="115.9" cy="154.6" rx="2.2" ry="5.2"/>
		<ellipse class="st3" cx="105.5" cy="144.2" rx="2.2" ry="5.2"/>
	</g>
	<g>
		<ellipse class="st3" cx="136.8" cy="115.8" rx="2.2" ry="5.2"/>
		<ellipse class="st3" cx="147.2" cy="126.2" rx="2.2" ry="5.2"/>
		<ellipse class="st3" cx="157.5" cy="115.8" rx="2.2" ry="5.2"/>
		<ellipse class="st3" cx="147.2" cy="105.3" rx="2.2" ry="5.2"/>
	</g>
	<g>
		<ellipse class="st3" cx="82.6" cy="72.8" rx="2.2" ry="5.2"/>
		<ellipse class="st3" cx="93" cy="83.3" rx="2.2" ry="5.2"/>
		<ellipse class="st3" cx="103.4" cy="72.8" rx="2.2" ry="5.2"/>
		<ellipse class="st3" cx="93" cy="62.4" rx="2.2" ry="5.2"/>
	</g>
	<g>
		<ellipse class="st3" cx="99.3" cy="115.7" rx="2.2" ry="5.2"/>
		<ellipse class="st3" cx="109.7" cy="126.2" rx="2.2" ry="5.2"/>
		<ellipse class="st3" cx="120.1" cy="115.7" rx="2.2" ry="5.2"/>
		<ellipse class="st3" cx="109.7" cy="105.3" rx="2.2" ry="5.2"/>
	</g>
	<g>
		<ellipse class="st3" cx="115.4" cy="72.8" rx="2.2" ry="5.2"/>
		<ellipse class="st3" cx="125.8" cy="83.3" rx="2.2" ry="5.2"/>
		<ellipse class="st3" cx="136.1" cy="72.8" rx="2.2" ry="5.2"/>
		<ellipse class="st3" cx="125.8" cy="62.4" rx="2.2" ry="5.2"/>
	</g>
	<g>
		<ellipse class="st3" cx="100.4" cy="35.1" rx="2.2" ry="5.2"/>
		<ellipse class="st3" cx="110.8" cy="45.6" rx="2.2" ry="5.2"/>
		<ellipse class="st3" cx="121.1" cy="35.1" rx="2.2" ry="5.2"/>
		<ellipse class="st3" cx="110.8" cy="24.7" rx="2.2" ry="5.2"/>
	</g>
</g>
</svg>
